<svg width="168" height="40" viewBox="0 0 168 40" fill="none" xmlns="http://www.w3.org/2000/svg">
<g clip-path="url(#clip0_414_6138)">
<g filter="url(#filter0_d_414_6138)">
<rect x="4" y="4" width="160" height="32" rx="8" fill="url(#paint0_linear_414_6138)"/>
<g clip-path="url(#clip1_414_6138)">
<path d="M32 13L25 20M25 20L32 27M25 20H39" stroke="white" stroke-width="1.5" stroke-linecap="round" stroke-linejoin="round"/>
</g>
<path d="M56.8301 21.4453V25H55.21V15.1973H58.1836C59.3092 15.1973 60.182 15.4593 60.8018 15.9834C61.4215 16.5075 61.7314 17.2458 61.7314 18.1982C61.7314 19.1507 61.4079 19.93 60.7607 20.5361C60.1136 21.1423 59.2386 21.4453 58.1357 21.4453H56.8301ZM56.8301 16.5371V20.1191H57.8828C58.5801 20.1191 59.111 19.9574 59.4756 19.6338C59.8402 19.3102 60.0225 18.8545 60.0225 18.2666C60.0225 17.1136 59.3525 16.5371 58.0127 16.5371H56.8301ZM68.1846 25H66.6465V23.9062H66.6191C66.1361 24.7448 65.4274 25.1641 64.4932 25.1641C63.805 25.1641 63.265 24.9772 62.873 24.6035C62.4857 24.2298 62.292 23.7354 62.292 23.1201C62.292 21.7985 63.0531 21.0283 64.5752 20.8096L66.6533 20.5156C66.6533 19.5176 66.1794 19.0186 65.2314 19.0186C64.3975 19.0186 63.6455 19.3057 62.9756 19.8799V18.4922C63.7139 18.0547 64.5661 17.8359 65.5322 17.8359C67.3005 17.8359 68.1846 18.7064 68.1846 20.4473V25ZM66.6533 21.5615L65.1836 21.7666C64.7279 21.8258 64.3838 21.9375 64.1514 22.1016C63.9235 22.2611 63.8096 22.5436 63.8096 22.9492C63.8096 23.2454 63.9144 23.4893 64.124 23.6807C64.3382 23.8675 64.623 23.9609 64.9785 23.9609C65.4616 23.9609 65.8604 23.7923 66.1748 23.4551C66.4938 23.1133 66.6533 22.6849 66.6533 22.1699V21.5615ZM69.6885 24.7812V23.3115C70.2809 23.7627 70.9349 23.9883 71.6504 23.9883C72.6074 23.9883 73.0859 23.7057 73.0859 23.1406C73.0859 22.9811 73.0449 22.8467 72.9629 22.7373C72.8809 22.6234 72.7692 22.5231 72.6279 22.4365C72.4912 22.3499 72.3271 22.2725 72.1357 22.2041C71.9489 22.1357 71.7393 22.0583 71.5068 21.9717C71.2197 21.8577 70.96 21.737 70.7275 21.6094C70.4997 21.4818 70.3083 21.3382 70.1533 21.1787C70.0029 21.0146 69.889 20.8301 69.8115 20.625C69.734 20.4199 69.6953 20.1807 69.6953 19.9072C69.6953 19.57 69.7751 19.2738 69.9346 19.0186C70.0941 18.7588 70.3083 18.5423 70.5771 18.3691C70.846 18.1914 71.1514 18.0592 71.4932 17.9727C71.835 17.8815 72.1882 17.8359 72.5527 17.8359C73.1999 17.8359 73.7786 17.9339 74.2891 18.1299V19.5176C73.7969 19.1803 73.2318 19.0117 72.5938 19.0117C72.3932 19.0117 72.2109 19.0322 72.0469 19.0732C71.8874 19.1143 71.7507 19.1712 71.6367 19.2441C71.5228 19.3171 71.4339 19.4059 71.3701 19.5107C71.3063 19.611 71.2744 19.7227 71.2744 19.8457C71.2744 19.9961 71.3063 20.1237 71.3701 20.2285C71.4339 20.3333 71.5273 20.4268 71.6504 20.5088C71.778 20.5863 71.9284 20.6592 72.1016 20.7275C72.2793 20.7913 72.4821 20.862 72.71 20.9395C73.0107 21.0625 73.2796 21.1878 73.5166 21.3154C73.7581 21.443 73.9632 21.5889 74.1318 21.7529C74.3005 21.9124 74.4303 22.0993 74.5215 22.3135C74.6126 22.5231 74.6582 22.7738 74.6582 23.0654C74.6582 23.4209 74.5762 23.7308 74.4121 23.9951C74.248 24.2594 74.0293 24.4782 73.7559 24.6514C73.4824 24.8245 73.1657 24.9521 72.8057 25.0342C72.4502 25.1208 72.0742 25.1641 71.6777 25.1641C70.9121 25.1641 70.249 25.0365 69.6885 24.7812ZM79.2725 25.1641C78.1924 25.1641 77.3288 24.8382 76.6816 24.1865C76.0391 23.5303 75.7178 22.6621 75.7178 21.582C75.7178 20.4062 76.0527 19.488 76.7227 18.8271C77.3971 18.1663 78.304 17.8359 79.4434 17.8359C80.5371 17.8359 81.3893 18.1572 82 18.7998C82.6107 19.4424 82.916 20.3333 82.916 21.4727C82.916 22.5892 82.5856 23.4847 81.9248 24.1592C81.2686 24.8291 80.3844 25.1641 79.2725 25.1641ZM79.3477 19.1006C78.7279 19.1006 78.238 19.3171 77.8779 19.75C77.5179 20.1829 77.3379 20.7799 77.3379 21.541C77.3379 22.2747 77.5202 22.8535 77.8848 23.2773C78.2493 23.6966 78.737 23.9062 79.3477 23.9062C79.972 23.9062 80.4505 23.6989 80.7832 23.2842C81.1204 22.8695 81.2891 22.2793 81.2891 21.5137C81.2891 20.7435 81.1204 20.1488 80.7832 19.7295C80.4505 19.3102 79.972 19.1006 79.3477 19.1006ZM93.7646 25H92.2266V23.9062H92.1992C91.7161 24.7448 91.0075 25.1641 90.0732 25.1641C89.3851 25.1641 88.8451 24.9772 88.4531 24.6035C88.0658 24.2298 87.8721 23.7354 87.8721 23.1201C87.8721 21.7985 88.6331 21.0283 90.1553 20.8096L92.2334 20.5156C92.2334 19.5176 91.7594 19.0186 90.8115 19.0186C89.9775 19.0186 89.2256 19.3057 88.5557 19.8799V18.4922C89.2939 18.0547 90.1462 17.8359 91.1123 17.8359C92.8805 17.8359 93.7646 18.7064 93.7646 20.4473V25ZM92.2334 21.5615L90.7637 21.7666C90.3079 21.8258 89.9639 21.9375 89.7314 22.1016C89.5036 22.2611 89.3896 22.5436 89.3896 22.9492C89.3896 23.2454 89.4945 23.4893 89.7041 23.6807C89.9183 23.8675 90.2031 23.9609 90.5586 23.9609C91.0417 23.9609 91.4404 23.7923 91.7549 23.4551C92.0739 23.1133 92.2334 22.6849 92.2334 22.1699V21.5615ZM101.94 25H100.354V21.0557C100.354 19.7477 99.8919 19.0938 98.9668 19.0938C98.4837 19.0938 98.085 19.276 97.7705 19.6406C97.4561 20.0007 97.2988 20.4564 97.2988 21.0078V25H95.7061V18H97.2988V19.1621H97.3262C97.8503 18.278 98.6068 17.8359 99.5957 17.8359C100.357 17.8359 100.938 18.0843 101.339 18.5811C101.74 19.0732 101.94 19.7865 101.94 20.7207V25ZM107.573 24.9248C107.263 25.0798 106.855 25.1572 106.35 25.1572C104.992 25.1572 104.312 24.5055 104.312 23.2021V19.2441H103.144V18H104.312V16.3799L105.898 15.9287V18H107.573V19.2441H105.898V22.7441C105.898 23.1589 105.974 23.4551 106.124 23.6328C106.274 23.8105 106.525 23.8994 106.876 23.8994C107.145 23.8994 107.377 23.8219 107.573 23.667V24.9248ZM114.785 21.9307H110.014C110.032 22.5778 110.23 23.0768 110.608 23.4277C110.991 23.7786 111.515 23.9541 112.181 23.9541C112.928 23.9541 113.614 23.7308 114.238 23.2842V24.5625C113.6 24.9635 112.757 25.1641 111.709 25.1641C110.679 25.1641 109.87 24.8473 109.282 24.2139C108.699 23.5758 108.407 22.6803 108.407 21.5273C108.407 20.4382 108.729 19.5518 109.371 18.8682C110.018 18.18 110.82 17.8359 111.777 17.8359C112.734 17.8359 113.475 18.1436 113.999 18.7588C114.523 19.374 114.785 20.2285 114.785 21.3223V21.9307ZM113.254 20.8096C113.249 20.2399 113.115 19.7979 112.851 19.4834C112.586 19.1644 112.222 19.0049 111.757 19.0049C111.301 19.0049 110.914 19.1712 110.595 19.5039C110.28 19.8366 110.087 20.2718 110.014 20.8096H113.254ZM120.356 19.5107C120.165 19.3604 119.889 19.2852 119.529 19.2852C119.06 19.2852 118.668 19.4971 118.354 19.9209C118.039 20.3447 117.882 20.9212 117.882 21.6504V25H116.296V18H117.882V19.4424H117.909C118.064 18.9502 118.301 18.5674 118.62 18.2939C118.944 18.016 119.304 17.877 119.7 17.877C119.987 17.877 120.206 17.9202 120.356 18.0068V19.5107ZM122.277 16.5303C122.018 16.5303 121.794 16.446 121.607 16.2773C121.425 16.1087 121.334 15.8945 121.334 15.6348C121.334 15.375 121.425 15.1585 121.607 14.9854C121.794 14.8122 122.018 14.7256 122.277 14.7256C122.546 14.7256 122.774 14.8122 122.961 14.9854C123.148 15.1585 123.241 15.375 123.241 15.6348C123.241 15.8809 123.148 16.0928 122.961 16.2705C122.774 16.4437 122.546 16.5303 122.277 16.5303ZM123.063 25H121.478V18H123.063V25ZM128.245 25.1641C127.165 25.1641 126.301 24.8382 125.654 24.1865C125.012 23.5303 124.69 22.6621 124.69 21.582C124.69 20.4062 125.025 19.488 125.695 18.8271C126.37 18.1663 127.277 17.8359 128.416 17.8359C129.51 17.8359 130.362 18.1572 130.973 18.7998C131.583 19.4424 131.889 20.3333 131.889 21.4727C131.889 22.5892 131.558 23.4847 130.897 24.1592C130.241 24.8291 129.357 25.1641 128.245 25.1641ZM128.32 19.1006C127.701 19.1006 127.211 19.3171 126.851 19.75C126.491 20.1829 126.311 20.7799 126.311 21.541C126.311 22.2747 126.493 22.8535 126.857 23.2773C127.222 23.6966 127.71 23.9062 128.32 23.9062C128.945 23.9062 129.423 23.6989 129.756 23.2842C130.093 22.8695 130.262 22.2793 130.262 21.5137C130.262 20.7435 130.093 20.1488 129.756 19.7295C129.423 19.3102 128.945 19.1006 128.32 19.1006ZM137.569 19.5107C137.378 19.3604 137.102 19.2852 136.742 19.2852C136.273 19.2852 135.881 19.4971 135.566 19.9209C135.252 20.3447 135.095 20.9212 135.095 21.6504V25H133.509V18H135.095V19.4424H135.122C135.277 18.9502 135.514 18.5674 135.833 18.2939C136.157 18.016 136.517 17.877 136.913 17.877C137.2 17.877 137.419 17.9202 137.569 18.0068V19.5107Z" fill="white"/>
</g>
</g>
<defs>
<filter id="filter0_d_414_6138" x="0" y="0" width="168" height="40" filterUnits="userSpaceOnUse" color-interpolation-filters="sRGB">
<feFlood flood-opacity="0" result="BackgroundImageFix"/>
<feColorMatrix in="SourceAlpha" type="matrix" values="0 0 0 0 0 0 0 0 0 0 0 0 0 0 0 0 0 0 127 0" result="hardAlpha"/>
<feOffset/>
<feGaussianBlur stdDeviation="2"/>
<feComposite in2="hardAlpha" operator="out"/>
<feColorMatrix type="matrix" values="0 0 0 0 0 0 0 0 0 0 0 0 0 0 0 0 0 0 0.25 0"/>
<feBlend mode="normal" in2="BackgroundImageFix" result="effect1_dropShadow_414_6138"/>
<feBlend mode="normal" in="SourceGraphic" in2="effect1_dropShadow_414_6138" result="shape"/>
</filter>
<linearGradient id="paint0_linear_414_6138" x1="84" y1="4" x2="84" y2="36" gradientUnits="userSpaceOnUse">
<stop stop-color="#5259FF"/>
<stop offset="1" stop-color="#333BF4"/>
</linearGradient>
<clipPath id="clip0_414_6138">
<rect width="168" height="40" fill="white"/>
</clipPath>
<clipPath id="clip1_414_6138">
<rect width="24" height="24" fill="white" transform="translate(20 8)"/>
</clipPath>
</defs>
</svg>
