<svg width="788" height="192" viewBox="0 0 788 192" fill="none" xmlns="http://www.w3.org/2000/svg">
<g clip-path="url(#clip0_520_5129)">
<g clip-path="url(#clip1_520_5129)">
<g filter="url(#filter0_d_520_5129)">
<path fill-rule="evenodd" clip-rule="evenodd" d="M83.6406 51.4421C94.0859 45.4488 99.1719 35.5141 105.229 24C108.318 27.2936 109.986 35.3926 109.303 46.7177C138.41 44.8414 156.854 60.9989 180 36.7019C170.047 74.6457 134.117 53.0889 119.105 56.396C142.279 58.9876 148.855 71.622 175.543 67.1406C166.355 78.0607 146.025 75.847 128.908 68.153C131.93 76.36 162.855 81.6648 156.553 106.164C150.592 96.054 145 89.8448 139.75 87.1586C150.564 105.624 149.717 122.457 139.627 140.855C137.398 144.904 134.678 148.589 131.355 151.775C135.977 141.692 138.219 132.297 136.25 124.13C134.377 131.15 99.3633 199.397 118.053 143.487C80.7285 179.69 44.4023 142.839 12 168C22.8145 117.962 81.6992 137.548 103.383 114.358C107.84 109.579 109.453 103.114 107.539 98.4567C101.961 84.9044 82.4238 88.8864 75.3418 97.1609C70.9805 103.789 62.5312 111.159 55.5996 102.952C54.4648 101.615 53.8223 99.901 53.6445 97.8493C57.1445 99.3206 60.6445 99.8875 64.1445 98.2002L61.3418 95.0956C65.0742 94.0562 69.2441 95.2171 72.5391 91.829L84.7891 83.8785C87.127 82.1777 81.877 81.0844 69.3945 80.234C68.3418 82.9201 68.8203 85.3768 71.8418 87.4961C68.2598 87.9685 65.1562 87.0236 62.7363 84.0405C61.3145 85.1339 61.5195 85.9033 65.334 91.883C61.9023 92.0315 58.4707 90.6817 55.0391 88.5354C54.2461 91.2621 55.4082 93.9887 55.5996 96.7154C53.0977 96 50.8008 94.8256 48.7363 93.1788C46.6582 91.5186 44.7852 89.3993 43.1445 86.8076C42.0098 84.27 42.0234 82.3667 42.8984 80.9494C43.4316 80.072 44.293 79.3836 45.4277 78.8301C49.666 76.7649 51.7988 77.0079 56.7617 73.7413C61.4512 70.6637 66.2363 66.9786 70.3106 62.0112C76.9004 53.9663 76.7227 55.4106 83.6406 51.4421ZM82.6699 63.9145C81.043 64.5759 80.9199 65.3588 78.6777 65.9663C78.0078 66.1417 76.832 67.1406 76.4629 67.721C75.3145 69.5703 79.498 70.5557 80.7559 68.342C81.0703 67.802 82.4785 65.2373 82.5879 64.9269C82.6973 64.6029 82.9844 64.3465 82.7656 63.982C82.7383 63.982 82.7246 63.901 82.6699 63.9145Z" fill="white"/>
</g>
</g>
</g>
<g filter="url(#filter1_d_520_5129)">
<path d="M222.562 50.918C221.508 50.918 220.642 50.6185 219.965 50.0195C219.301 49.4206 218.969 48.6654 218.969 47.7539C218.969 46.8164 219.301 46.0417 219.965 45.4297C220.642 44.8177 221.508 44.5117 222.562 44.5117C223.591 44.5117 224.438 44.8242 225.102 45.4492C225.779 46.0742 226.117 46.8424 226.117 47.7539C226.117 48.6914 225.779 49.4531 225.102 50.0391C224.438 50.625 223.591 50.918 222.562 50.918ZM225.844 72.9688H219.359L220.082 53.6328H225.082L225.844 72.9688ZM232.289 65V36.9922H242.211C252.159 36.9922 257.133 41.543 257.133 50.6445C257.133 55.0065 255.772 58.4896 253.051 61.0938C250.342 63.6979 246.729 65 242.211 65H232.289ZM238.598 42.1289V59.8828H241.723C244.457 59.8828 246.599 59.0625 248.148 57.4219C249.711 55.7812 250.492 53.5482 250.492 50.7227C250.492 48.0534 249.717 45.957 248.168 44.4336C246.632 42.8971 244.47 42.1289 241.684 42.1289H238.598ZM264.301 41.8359C263.259 41.8359 262.406 41.5299 261.742 40.918C261.078 40.293 260.746 39.5312 260.746 38.6328C260.746 37.7083 261.078 36.9531 261.742 36.3672C262.406 35.7812 263.259 35.4883 264.301 35.4883C265.355 35.4883 266.208 35.7812 266.859 36.3672C267.523 36.9531 267.855 37.7083 267.855 38.6328C267.855 39.5703 267.523 40.3385 266.859 40.9375C266.208 41.5365 265.355 41.8359 264.301 41.8359ZM267.348 65H261.176V45H267.348V65ZM271.234 64.4727V59.4727C272.25 60.0846 273.259 60.5404 274.262 60.8398C275.277 61.1393 276.234 61.2891 277.133 61.2891C278.227 61.2891 279.086 61.1393 279.711 60.8398C280.349 60.5404 280.668 60.0846 280.668 59.4727C280.668 59.082 280.525 58.7565 280.238 58.4961C279.952 58.2357 279.581 58.0078 279.125 57.8125C278.682 57.6172 278.194 57.4414 277.66 57.2852C277.126 57.1289 276.612 56.9531 276.117 56.7578C275.323 56.4583 274.62 56.1393 274.008 55.8008C273.409 55.4492 272.901 55.0456 272.484 54.5898C272.081 54.1341 271.768 53.6068 271.547 53.0078C271.339 52.4089 271.234 51.6992 271.234 50.8789C271.234 49.7591 271.475 48.7956 271.957 47.9883C272.452 47.181 273.103 46.5234 273.91 46.0156C274.73 45.4948 275.661 45.1172 276.703 44.8828C277.758 44.6354 278.852 44.5117 279.984 44.5117C280.87 44.5117 281.768 44.5833 282.68 44.7266C283.591 44.8568 284.49 45.0521 285.375 45.3125V50.0781C284.594 49.6224 283.754 49.2839 282.855 49.0625C281.97 48.8281 281.098 48.7109 280.238 48.7109C279.835 48.7109 279.451 48.75 279.086 48.8281C278.734 48.8932 278.422 48.9974 278.148 49.1406C277.875 49.2708 277.66 49.4466 277.504 49.668C277.348 49.8763 277.27 50.1172 277.27 50.3906C277.27 50.7552 277.387 51.0677 277.621 51.3281C277.855 51.5885 278.161 51.8164 278.539 52.0117C278.917 52.194 279.333 52.3633 279.789 52.5195C280.258 52.6628 280.72 52.8125 281.176 52.9688C281.996 53.2552 282.738 53.5677 283.402 53.9062C284.066 54.2448 284.633 54.6419 285.102 55.0977C285.583 55.5534 285.948 56.0872 286.195 56.6992C286.456 57.3112 286.586 58.0404 286.586 58.8867C286.586 60.0716 286.326 61.0872 285.805 61.9336C285.297 62.7669 284.613 63.4505 283.754 63.9844C282.908 64.5052 281.924 64.8828 280.805 65.1172C279.698 65.3646 278.546 65.4883 277.348 65.4883C275.147 65.4883 273.109 65.1497 271.234 64.4727ZM303.207 40.1172C302.413 39.8047 301.651 39.6484 300.922 39.6484C298.943 39.6484 297.953 40.7227 297.953 42.8711V45H302.523V49.5508H297.953V65H291.801V49.5508H288.441V45H291.801V42.5195C291.801 40.2409 292.543 38.4049 294.027 37.0117C295.512 35.6185 297.53 34.9219 300.082 34.9219C301.332 34.9219 302.374 35.0521 303.207 35.3125V40.1172ZM318.559 50.5664C317.816 50.1628 316.951 49.9609 315.961 49.9609C314.62 49.9609 313.572 50.4557 312.816 51.4453C312.061 52.4219 311.684 53.7565 311.684 55.4492V65H305.512V45H311.684V48.7109H311.762C312.738 46.0026 314.496 44.6484 317.035 44.6484C317.686 44.6484 318.194 44.7266 318.559 44.8828V50.5664ZM340.57 65H334.418V61.9531H334.32C332.797 64.3099 330.759 65.4883 328.207 65.4883C323.572 65.4883 321.254 62.6823 321.254 57.0703V45H327.406V56.5234C327.406 59.349 328.526 60.7617 330.766 60.7617C331.872 60.7617 332.758 60.3776 333.422 59.6094C334.086 58.8281 334.418 57.7734 334.418 56.4453V45H340.57V65ZM357.875 64.7656C356.964 65.2474 355.59 65.4883 353.754 65.4883C349.405 65.4883 347.23 63.2292 347.23 58.7109V49.5508H343.988V45H347.23V40.6836L353.383 38.9258V45H357.875V49.5508H353.383V57.6367C353.383 59.7201 354.21 60.7617 355.863 60.7617C356.514 60.7617 357.185 60.5729 357.875 60.1953V64.7656ZM378.012 65H372.172V62.1289H372.094C370.753 64.3685 368.767 65.4883 366.137 65.4883C364.197 65.4883 362.667 64.9414 361.547 63.8477C360.44 62.7409 359.887 61.2695 359.887 59.4336C359.887 55.5534 362.185 53.3138 366.781 52.7148L372.211 51.9922C372.211 49.8047 371.026 48.7109 368.656 48.7109C366.273 48.7109 364.008 49.4206 361.859 50.8398V46.1914C362.719 45.7487 363.891 45.3581 365.375 45.0195C366.872 44.681 368.233 44.5117 369.457 44.5117C375.16 44.5117 378.012 47.3568 378.012 53.0469V65ZM372.211 56.875V55.5273L368.578 55.9961C366.573 56.2565 365.57 57.1615 365.57 58.7109C365.57 59.4141 365.811 59.9935 366.293 60.4492C366.788 60.8919 367.452 61.1133 368.285 61.1133C369.444 61.1133 370.388 60.7161 371.117 59.9219C371.846 59.1146 372.211 58.099 372.211 56.875ZM411.664 65H408.461V61.6016H408.383C406.898 64.1797 404.607 65.4688 401.508 65.4688C398.995 65.4688 396.983 64.5768 395.473 62.793C393.975 60.9961 393.227 58.5547 393.227 55.4688C393.227 52.1615 394.06 49.5117 395.727 47.5195C397.393 45.5273 399.613 44.5312 402.387 44.5312C405.134 44.5312 407.133 45.612 408.383 47.7734H408.461V35.3906H411.664V65ZM408.461 55.957V53.0078C408.461 51.3932 407.927 50.026 406.859 48.9062C405.792 47.7865 404.438 47.2266 402.797 47.2266C400.844 47.2266 399.307 47.9427 398.188 49.375C397.068 50.8073 396.508 52.7865 396.508 55.3125C396.508 57.6172 397.042 59.4401 398.109 60.7812C399.19 62.1094 400.635 62.7734 402.445 62.7734C404.229 62.7734 405.674 62.1289 406.781 60.8398C407.901 59.5508 408.461 57.9232 408.461 55.957ZM434.223 55.8008H420.102C420.154 58.0273 420.753 59.7461 421.898 60.957C423.044 62.168 424.62 62.7734 426.625 62.7734C428.878 62.7734 430.948 62.0312 432.836 60.5469V63.5547C431.078 64.8307 428.754 65.4688 425.863 65.4688C423.038 65.4688 420.818 64.5638 419.203 62.7539C417.589 60.931 416.781 58.3724 416.781 55.0781C416.781 51.9661 417.66 49.4336 419.418 47.4805C421.189 45.5143 423.383 44.5312 426 44.5312C428.617 44.5312 430.642 45.3776 432.074 47.0703C433.507 48.763 434.223 51.1133 434.223 54.1211V55.8008ZM430.941 53.0859C430.928 51.237 430.479 49.7982 429.594 48.7695C428.721 47.7409 427.504 47.2266 425.941 47.2266C424.431 47.2266 423.148 47.7669 422.094 48.8477C421.039 49.9284 420.388 51.3411 420.141 53.0859H430.941ZM466.664 65H463.461V53.5938C463.461 49.349 461.911 47.2266 458.812 47.2266C457.211 47.2266 455.883 47.832 454.828 49.043C453.786 50.2409 453.266 51.7578 453.266 53.5938V65H450.062V45H453.266V48.3203H453.344C454.854 45.7943 457.042 44.5312 459.906 44.5312C462.094 44.5312 463.767 45.2409 464.926 46.6602C466.085 48.0664 466.664 50.1042 466.664 52.7734V65ZM488.891 65H485.688V61.8359H485.609C484.281 64.2578 482.224 65.4688 479.438 65.4688C474.672 65.4688 472.289 62.6302 472.289 56.9531V45H475.473V56.4453C475.473 60.6641 477.087 62.7734 480.316 62.7734C481.879 62.7734 483.161 62.2005 484.164 61.0547C485.18 59.8958 485.688 58.3854 485.688 56.5234V45H488.891V65ZM511.449 55.8008H497.328C497.38 58.0273 497.979 59.7461 499.125 60.957C500.271 62.168 501.846 62.7734 503.852 62.7734C506.104 62.7734 508.174 62.0312 510.062 60.5469V63.5547C508.305 64.8307 505.98 65.4688 503.09 65.4688C500.264 65.4688 498.044 64.5638 496.43 62.7539C494.815 60.931 494.008 58.3724 494.008 55.0781C494.008 51.9661 494.887 49.4336 496.645 47.4805C498.415 45.5143 500.609 44.5312 503.227 44.5312C505.844 44.5312 507.868 45.3776 509.301 47.0703C510.733 48.763 511.449 51.1133 511.449 54.1211V55.8008ZM508.168 53.0859C508.155 51.237 507.706 49.7982 506.82 48.7695C505.948 47.7409 504.73 47.2266 503.168 47.2266C501.658 47.2266 500.375 47.7669 499.32 48.8477C498.266 49.9284 497.615 51.3411 497.367 53.0859H508.168ZM515.102 64.2773V60.8398C516.846 62.1289 518.767 62.7734 520.863 62.7734C523.676 62.7734 525.082 61.8359 525.082 59.9609C525.082 59.4271 524.958 58.9779 524.711 58.6133C524.477 58.2357 524.151 57.9036 523.734 57.6172C523.331 57.3307 522.849 57.0768 522.289 56.8555C521.742 56.6211 521.15 56.3802 520.512 56.1328C519.626 55.7812 518.845 55.4297 518.168 55.0781C517.504 54.7135 516.944 54.3099 516.488 53.8672C516.046 53.4115 515.707 52.8971 515.473 52.3242C515.251 51.7513 515.141 51.0807 515.141 50.3125C515.141 49.375 515.355 48.5482 515.785 47.832C516.215 47.1029 516.788 46.4974 517.504 46.0156C518.22 45.5208 519.034 45.1497 519.945 44.9023C520.87 44.6549 521.82 44.5312 522.797 44.5312C524.529 44.5312 526.078 44.8307 527.445 45.4297V48.6719C525.974 47.7083 524.281 47.2266 522.367 47.2266C521.768 47.2266 521.228 47.2982 520.746 47.4414C520.264 47.5716 519.848 47.7604 519.496 48.0078C519.158 48.2552 518.891 48.5547 518.695 48.9062C518.513 49.2448 518.422 49.6224 518.422 50.0391C518.422 50.5599 518.513 50.9961 518.695 51.3477C518.891 51.6992 519.171 52.0117 519.535 52.2852C519.9 52.5586 520.342 52.806 520.863 53.0273C521.384 53.2487 521.977 53.4896 522.641 53.75C523.526 54.0885 524.32 54.4401 525.023 54.8047C525.727 55.1562 526.326 55.5599 526.82 56.0156C527.315 56.4583 527.693 56.9727 527.953 57.5586C528.227 58.1445 528.363 58.8411 528.363 59.6484C528.363 60.638 528.142 61.4974 527.699 62.2266C527.27 62.9557 526.69 63.5612 525.961 64.043C525.232 64.5247 524.392 64.8828 523.441 65.1172C522.491 65.3516 521.495 65.4688 520.453 65.4688C518.396 65.4688 516.612 65.0716 515.102 64.2773ZM542.582 64.8047C541.827 65.2214 540.831 65.4297 539.594 65.4297C536.091 65.4297 534.34 63.4766 534.34 59.5703V47.7344H530.902V45H534.34V40.1172L537.543 39.082V45H542.582V47.7344H537.543V59.0039C537.543 60.3451 537.771 61.3021 538.227 61.875C538.682 62.4479 539.438 62.7344 540.492 62.7344C541.299 62.7344 541.996 62.513 542.582 62.0703V64.8047ZM557.289 48.2422C556.729 47.8125 555.922 47.5977 554.867 47.5977C553.5 47.5977 552.354 48.2422 551.43 49.5312C550.518 50.8203 550.062 52.5781 550.062 54.8047V65H546.859V45H550.062V49.1211H550.141C550.596 47.7148 551.293 46.6211 552.23 45.8398C553.168 45.0456 554.216 44.6484 555.375 44.6484C556.208 44.6484 556.846 44.7396 557.289 44.9219V48.2422ZM575.082 65H571.879V61.875H571.801C570.408 64.2708 568.357 65.4688 565.648 65.4688C563.656 65.4688 562.094 64.9414 560.961 63.8867C559.841 62.832 559.281 61.4323 559.281 59.6875C559.281 55.9505 561.482 53.776 565.883 53.1641L571.879 52.3242C571.879 48.9258 570.505 47.2266 567.758 47.2266C565.349 47.2266 563.174 48.0469 561.234 49.6875V46.4062C563.201 45.1562 565.466 44.5312 568.031 44.5312C572.732 44.5312 575.082 47.0182 575.082 51.9922V65ZM571.879 54.8828L567.055 55.5469C565.57 55.7552 564.451 56.1263 563.695 56.6602C562.94 57.181 562.562 58.112 562.562 59.4531C562.562 60.4297 562.908 61.2305 563.598 61.8555C564.301 62.4674 565.232 62.7734 566.391 62.7734C567.979 62.7734 569.288 62.2201 570.316 61.1133C571.358 59.9935 571.879 58.5807 571.879 56.875V54.8828ZM590.141 64.4727V59.4727C591.156 60.0846 592.165 60.5404 593.168 60.8398C594.184 61.1393 595.141 61.2891 596.039 61.2891C597.133 61.2891 597.992 61.1393 598.617 60.8398C599.255 60.5404 599.574 60.0846 599.574 59.4727C599.574 59.082 599.431 58.7565 599.145 58.4961C598.858 58.2357 598.487 58.0078 598.031 57.8125C597.589 57.6172 597.1 57.4414 596.566 57.2852C596.033 57.1289 595.518 56.9531 595.023 56.7578C594.229 56.4583 593.526 56.1393 592.914 55.8008C592.315 55.4492 591.807 55.0456 591.391 54.5898C590.987 54.1341 590.674 53.6068 590.453 53.0078C590.245 52.4089 590.141 51.6992 590.141 50.8789C590.141 49.7591 590.382 48.7956 590.863 47.9883C591.358 47.181 592.009 46.5234 592.816 46.0156C593.637 45.4948 594.568 45.1172 595.609 44.8828C596.664 44.6354 597.758 44.5117 598.891 44.5117C599.776 44.5117 600.674 44.5833 601.586 44.7266C602.497 44.8568 603.396 45.0521 604.281 45.3125V50.0781C603.5 49.6224 602.66 49.2839 601.762 49.0625C600.876 48.8281 600.004 48.7109 599.145 48.7109C598.741 48.7109 598.357 48.75 597.992 48.8281C597.641 48.8932 597.328 48.9974 597.055 49.1406C596.781 49.2708 596.566 49.4466 596.41 49.668C596.254 49.8763 596.176 50.1172 596.176 50.3906C596.176 50.7552 596.293 51.0677 596.527 51.3281C596.762 51.5885 597.068 51.8164 597.445 52.0117C597.823 52.194 598.24 52.3633 598.695 52.5195C599.164 52.6628 599.626 52.8125 600.082 52.9688C600.902 53.2552 601.645 53.5677 602.309 53.9062C602.973 54.2448 603.539 54.6419 604.008 55.0977C604.49 55.5534 604.854 56.0872 605.102 56.6992C605.362 57.3112 605.492 58.0404 605.492 58.8867C605.492 60.0716 605.232 61.0872 604.711 61.9336C604.203 62.7669 603.52 63.4505 602.66 63.9844C601.814 64.5052 600.831 64.8828 599.711 65.1172C598.604 65.3646 597.452 65.4883 596.254 65.4883C594.053 65.4883 592.016 65.1497 590.141 64.4727ZM627.035 56.7578H613.988C614.197 59.6615 616.026 61.1133 619.477 61.1133C621.677 61.1133 623.611 60.5924 625.277 59.5508V64.0039C623.428 64.9935 621.026 65.4883 618.07 65.4883C614.841 65.4883 612.335 64.5964 610.551 62.8125C608.767 61.0156 607.875 58.5156 607.875 55.3125C607.875 51.9922 608.839 49.362 610.766 47.4219C612.693 45.4818 615.062 44.5117 617.875 44.5117C620.792 44.5117 623.044 45.3776 624.633 47.1094C626.234 48.8411 627.035 51.1914 627.035 54.1602V56.7578ZM621.312 52.9688C621.312 50.1042 620.154 48.6719 617.836 48.6719C616.846 48.6719 615.987 49.082 615.258 49.9023C614.542 50.7227 614.105 51.7448 613.949 52.9688H621.312ZM636.879 65H630.707V35.3906H636.879V65ZM660.043 56.7578H646.996C647.204 59.6615 649.034 61.1133 652.484 61.1133C654.685 61.1133 656.618 60.5924 658.285 59.5508V64.0039C656.436 64.9935 654.034 65.4883 651.078 65.4883C647.849 65.4883 645.342 64.5964 643.559 62.8125C641.775 61.0156 640.883 58.5156 640.883 55.3125C640.883 51.9922 641.846 49.362 643.773 47.4219C645.701 45.4818 648.07 44.5117 650.883 44.5117C653.799 44.5117 656.052 45.3776 657.641 47.1094C659.242 48.8411 660.043 51.1914 660.043 54.1602V56.7578ZM654.32 52.9688C654.32 50.1042 653.161 48.6719 650.844 48.6719C649.854 48.6719 648.995 49.082 648.266 49.9023C647.549 50.7227 647.113 51.7448 646.957 52.9688H654.32ZM678.871 64.2773C677.478 65.0846 675.466 65.4883 672.836 65.4883C669.763 65.4883 667.276 64.5573 665.375 62.6953C663.474 60.8333 662.523 58.431 662.523 55.4883C662.523 52.0898 663.539 49.4141 665.57 47.4609C667.615 45.4948 670.342 44.5117 673.754 44.5117C676.111 44.5117 677.816 44.8242 678.871 45.4492V50.6836C677.582 49.7201 676.143 49.2383 674.555 49.2383C672.784 49.2383 671.378 49.7591 670.336 50.8008C669.307 51.8294 668.793 53.2552 668.793 55.0781C668.793 56.849 669.288 58.2422 670.277 59.2578C671.267 60.2604 672.628 60.7617 674.359 60.7617C675.896 60.7617 677.4 60.2799 678.871 59.3164V64.2773ZM698.09 64.2773C696.697 65.0846 694.685 65.4883 692.055 65.4883C688.982 65.4883 686.495 64.5573 684.594 62.6953C682.693 60.8333 681.742 58.431 681.742 55.4883C681.742 52.0898 682.758 49.4141 684.789 47.4609C686.833 45.4948 689.561 44.5117 692.973 44.5117C695.329 44.5117 697.035 44.8242 698.09 45.4492V50.6836C696.801 49.7201 695.362 49.2383 693.773 49.2383C692.003 49.2383 690.596 49.7591 689.555 50.8008C688.526 51.8294 688.012 53.2552 688.012 55.0781C688.012 56.849 688.507 58.2422 689.496 59.2578C690.486 60.2604 691.846 60.7617 693.578 60.7617C695.115 60.7617 696.618 60.2799 698.09 59.3164V64.2773ZM705.277 41.8359C704.236 41.8359 703.383 41.5299 702.719 40.918C702.055 40.293 701.723 39.5312 701.723 38.6328C701.723 37.7083 702.055 36.9531 702.719 36.3672C703.383 35.7812 704.236 35.4883 705.277 35.4883C706.332 35.4883 707.185 35.7812 707.836 36.3672C708.5 36.9531 708.832 37.7083 708.832 38.6328C708.832 39.5703 708.5 40.3385 707.836 40.9375C707.185 41.5365 706.332 41.8359 705.277 41.8359ZM708.324 65H702.152V45H708.324V65ZM723.051 65.4883C719.717 65.4883 717.094 64.5573 715.18 62.6953C713.279 60.8203 712.328 58.2812 712.328 55.0781C712.328 51.7708 713.318 49.1862 715.297 47.3242C717.276 45.4492 719.952 44.5117 723.324 44.5117C726.645 44.5117 729.249 45.4492 731.137 47.3242C733.025 49.1862 733.969 51.6536 733.969 54.7266C733.969 58.0469 732.992 60.6706 731.039 62.5977C729.099 64.5247 726.436 65.4883 723.051 65.4883ZM723.207 49.2383C721.749 49.2383 720.616 49.7396 719.809 50.7422C719.001 51.7448 718.598 53.1641 718.598 55C718.598 58.8411 720.147 60.7617 723.246 60.7617C726.202 60.7617 727.68 58.7891 727.68 54.8438C727.68 51.1068 726.189 49.2383 723.207 49.2383ZM729.828 35.5273L723.715 41.8359H719.262L724.34 35.5273H729.828ZM757.289 65H751.137V53.8867C751.137 50.7878 750.03 49.2383 747.816 49.2383C746.749 49.2383 745.87 49.6484 745.18 50.4688C744.49 51.2891 744.145 52.3307 744.145 53.5938V65H737.973V45H744.145V48.1641H744.223C745.694 45.7292 747.836 44.5117 750.648 44.5117C755.076 44.5117 757.289 47.2591 757.289 52.7539V65ZM236.312 113H233.109V109.602H233.031C231.547 112.18 229.255 113.469 226.156 113.469C223.643 113.469 221.632 112.577 220.121 110.793C218.624 108.996 217.875 106.555 217.875 103.469C217.875 100.161 218.708 97.5117 220.375 95.5195C222.042 93.5273 224.262 92.5312 227.035 92.5312C229.783 92.5312 231.781 93.612 233.031 95.7734H233.109V83.3906H236.312V113ZM233.109 103.957V101.008C233.109 99.3932 232.576 98.026 231.508 96.9062C230.44 95.7865 229.086 95.2266 227.445 95.2266C225.492 95.2266 223.956 95.9427 222.836 97.375C221.716 98.8073 221.156 100.786 221.156 103.312C221.156 105.617 221.69 107.44 222.758 108.781C223.839 110.109 225.284 110.773 227.094 110.773C228.878 110.773 230.323 110.129 231.43 108.84C232.549 107.551 233.109 105.923 233.109 103.957ZM258.871 103.801H244.75C244.802 106.027 245.401 107.746 246.547 108.957C247.693 110.168 249.268 110.773 251.273 110.773C253.526 110.773 255.596 110.031 257.484 108.547V111.555C255.727 112.831 253.402 113.469 250.512 113.469C247.686 113.469 245.466 112.564 243.852 110.754C242.237 108.931 241.43 106.372 241.43 103.078C241.43 99.9661 242.309 97.4336 244.066 95.4805C245.837 93.5143 248.031 92.5312 250.648 92.5312C253.266 92.5312 255.29 93.3776 256.723 95.0703C258.155 96.763 258.871 99.1133 258.871 102.121V103.801ZM255.59 101.086C255.577 99.237 255.128 97.7982 254.242 96.7695C253.37 95.7409 252.152 95.2266 250.59 95.2266C249.079 95.2266 247.797 95.7669 246.742 96.8477C245.688 97.9284 245.036 99.3411 244.789 101.086H255.59ZM280.316 110.676H280.238V122.199H274.066V93H280.238V96.0078H280.316C281.84 93.6771 283.982 92.5117 286.742 92.5117C289.333 92.5117 291.332 93.4036 292.738 95.1875C294.158 96.9583 294.867 99.3737 294.867 102.434C294.867 105.767 294.04 108.443 292.387 110.461C290.746 112.479 288.559 113.488 285.824 113.488C283.415 113.488 281.579 112.551 280.316 110.676ZM280.141 102.473V104.074C280.141 105.454 280.505 106.581 281.234 107.453C281.964 108.326 282.921 108.762 284.105 108.762C285.512 108.762 286.599 108.221 287.367 107.141C288.148 106.047 288.539 104.504 288.539 102.512C288.539 98.9961 287.172 97.2383 284.438 97.2383C283.174 97.2383 282.139 97.7201 281.332 98.6836C280.538 99.6341 280.141 100.897 280.141 102.473ZM311.918 98.5664C311.176 98.1628 310.31 97.9609 309.32 97.9609C307.979 97.9609 306.931 98.4557 306.176 99.4453C305.421 100.422 305.043 101.757 305.043 103.449V113H298.871V93H305.043V96.7109H305.121C306.098 94.0026 307.855 92.6484 310.395 92.6484C311.046 92.6484 311.553 92.7266 311.918 92.8828V98.5664ZM324.184 113.488C320.85 113.488 318.227 112.557 316.312 110.695C314.411 108.82 313.461 106.281 313.461 103.078C313.461 99.7708 314.451 97.1862 316.43 95.3242C318.409 93.4492 321.085 92.5117 324.457 92.5117C327.777 92.5117 330.382 93.4492 332.27 95.3242C334.158 97.1862 335.102 99.6536 335.102 102.727C335.102 106.047 334.125 108.671 332.172 110.598C330.232 112.525 327.569 113.488 324.184 113.488ZM324.34 97.2383C322.882 97.2383 321.749 97.7396 320.941 98.7422C320.134 99.7448 319.73 101.164 319.73 103C319.73 106.841 321.28 108.762 324.379 108.762C327.335 108.762 328.812 106.789 328.812 102.844C328.812 99.1068 327.322 97.2383 324.34 97.2383ZM358.676 113H352.504V110.246H352.426C351.02 112.408 348.956 113.488 346.234 113.488C343.734 113.488 341.723 112.609 340.199 110.852C338.676 109.081 337.914 106.613 337.914 103.449C337.914 100.142 338.754 97.4922 340.434 95.5C342.113 93.5078 344.314 92.5117 347.035 92.5117C349.613 92.5117 351.41 93.4362 352.426 95.2852H352.504V83.3906H358.676V113ZM352.621 103.273V101.77C352.621 100.467 352.243 99.3867 351.488 98.5273C350.733 97.668 349.75 97.2383 348.539 97.2383C347.172 97.2383 346.104 97.7786 345.336 98.8594C344.568 99.9271 344.184 101.398 344.184 103.273C344.184 105.031 344.555 106.385 345.297 107.336C346.039 108.286 347.068 108.762 348.383 108.762C349.633 108.762 350.648 108.26 351.43 107.258C352.224 106.255 352.621 104.927 352.621 103.273ZM382.875 113H376.723V109.953H376.625C375.102 112.31 373.064 113.488 370.512 113.488C365.876 113.488 363.559 110.682 363.559 105.07V93H369.711V104.523C369.711 107.349 370.831 108.762 373.07 108.762C374.177 108.762 375.062 108.378 375.727 107.609C376.391 106.828 376.723 105.773 376.723 104.445V93H382.875V113ZM403.246 112.277C401.853 113.085 399.841 113.488 397.211 113.488C394.138 113.488 391.651 112.557 389.75 110.695C387.849 108.833 386.898 106.431 386.898 103.488C386.898 100.09 387.914 97.4141 389.945 95.4609C391.99 93.4948 394.717 92.5117 398.129 92.5117C400.486 92.5117 402.191 92.8242 403.246 93.4492V98.6836C401.957 97.7201 400.518 97.2383 398.93 97.2383C397.159 97.2383 395.753 97.7591 394.711 98.8008C393.682 99.8294 393.168 101.255 393.168 103.078C393.168 104.849 393.663 106.242 394.652 107.258C395.642 108.26 397.003 108.762 398.734 108.762C400.271 108.762 401.775 108.28 403.246 107.316V112.277ZM419.398 112.766C418.487 113.247 417.113 113.488 415.277 113.488C410.928 113.488 408.754 111.229 408.754 106.711V97.5508H405.512V93H408.754V88.6836L414.906 86.9258V93H419.398V97.5508H414.906V105.637C414.906 107.72 415.733 108.762 417.387 108.762C418.038 108.762 418.708 108.573 419.398 108.195V112.766ZM432.27 113.488C428.936 113.488 426.312 112.557 424.398 110.695C422.497 108.82 421.547 106.281 421.547 103.078C421.547 99.7708 422.536 97.1862 424.516 95.3242C426.495 93.4492 429.171 92.5117 432.543 92.5117C435.863 92.5117 438.467 93.4492 440.355 95.3242C442.243 97.1862 443.188 99.6536 443.188 102.727C443.188 106.047 442.211 108.671 440.258 110.598C438.318 112.525 435.655 113.488 432.27 113.488ZM432.426 97.2383C430.967 97.2383 429.835 97.7396 429.027 98.7422C428.22 99.7448 427.816 101.164 427.816 103C427.816 106.841 429.366 108.762 432.465 108.762C435.421 108.762 436.898 106.789 436.898 102.844C436.898 99.1068 435.408 97.2383 432.426 97.2383ZM445.883 112.473V107.473C446.898 108.085 447.908 108.54 448.91 108.84C449.926 109.139 450.883 109.289 451.781 109.289C452.875 109.289 453.734 109.139 454.359 108.84C454.997 108.54 455.316 108.085 455.316 107.473C455.316 107.082 455.173 106.757 454.887 106.496C454.6 106.236 454.229 106.008 453.773 105.812C453.331 105.617 452.842 105.441 452.309 105.285C451.775 105.129 451.26 104.953 450.766 104.758C449.971 104.458 449.268 104.139 448.656 103.801C448.057 103.449 447.549 103.046 447.133 102.59C446.729 102.134 446.417 101.607 446.195 101.008C445.987 100.409 445.883 99.6992 445.883 98.8789C445.883 97.7591 446.124 96.7956 446.605 95.9883C447.1 95.181 447.751 94.5234 448.559 94.0156C449.379 93.4948 450.31 93.1172 451.352 92.8828C452.406 92.6354 453.5 92.5117 454.633 92.5117C455.518 92.5117 456.417 92.5833 457.328 92.7266C458.24 92.8568 459.138 93.0521 460.023 93.3125V98.0781C459.242 97.6224 458.402 97.2839 457.504 97.0625C456.618 96.8281 455.746 96.7109 454.887 96.7109C454.483 96.7109 454.099 96.75 453.734 96.8281C453.383 96.8932 453.07 96.9974 452.797 97.1406C452.523 97.2708 452.309 97.4466 452.152 97.668C451.996 97.8763 451.918 98.1172 451.918 98.3906C451.918 98.7552 452.035 99.0677 452.27 99.3281C452.504 99.5885 452.81 99.8164 453.188 100.012C453.565 100.194 453.982 100.363 454.438 100.52C454.906 100.663 455.368 100.812 455.824 100.969C456.645 101.255 457.387 101.568 458.051 101.906C458.715 102.245 459.281 102.642 459.75 103.098C460.232 103.553 460.596 104.087 460.844 104.699C461.104 105.311 461.234 106.04 461.234 106.887C461.234 108.072 460.974 109.087 460.453 109.934C459.945 110.767 459.262 111.451 458.402 111.984C457.556 112.505 456.573 112.883 455.453 113.117C454.346 113.365 453.194 113.488 451.996 113.488C449.796 113.488 447.758 113.15 445.883 112.473ZM490.824 113H487.621V109.875H487.543C486.15 112.271 484.099 113.469 481.391 113.469C479.398 113.469 477.836 112.941 476.703 111.887C475.583 110.832 475.023 109.432 475.023 107.688C475.023 103.951 477.224 101.776 481.625 101.164L487.621 100.324C487.621 96.9258 486.247 95.2266 483.5 95.2266C481.091 95.2266 478.917 96.0469 476.977 97.6875V94.4062C478.943 93.1562 481.208 92.5312 483.773 92.5312C488.474 92.5312 490.824 95.0182 490.824 99.9922V113ZM487.621 102.883L482.797 103.547C481.312 103.755 480.193 104.126 479.438 104.66C478.682 105.181 478.305 106.112 478.305 107.453C478.305 108.43 478.65 109.23 479.34 109.855C480.043 110.467 480.974 110.773 482.133 110.773C483.721 110.773 485.03 110.22 486.059 109.113C487.1 107.993 487.621 106.581 487.621 104.875V102.883ZM511.039 113H507.836V83.3906H511.039V113ZM525.883 113.469C522.927 113.469 520.564 112.538 518.793 110.676C517.035 108.801 516.156 106.32 516.156 103.234C516.156 99.875 517.074 97.2513 518.91 95.3633C520.746 93.4753 523.227 92.5312 526.352 92.5312C529.333 92.5312 531.658 93.4492 533.324 95.2852C535.004 97.1211 535.844 99.6667 535.844 102.922C535.844 106.112 534.939 108.671 533.129 110.598C531.332 112.512 528.917 113.469 525.883 113.469ZM526.117 95.2266C524.06 95.2266 522.432 95.9297 521.234 97.3359C520.036 98.7292 519.438 100.656 519.438 103.117C519.438 105.487 520.043 107.355 521.254 108.723C522.465 110.09 524.086 110.773 526.117 110.773C528.188 110.773 529.776 110.103 530.883 108.762C532.003 107.421 532.562 105.513 532.562 103.039C532.562 100.539 532.003 98.612 530.883 97.2578C529.776 95.9036 528.188 95.2266 526.117 95.2266ZM539.75 112.277V108.84C541.495 110.129 543.415 110.773 545.512 110.773C548.324 110.773 549.73 109.836 549.73 107.961C549.73 107.427 549.607 106.978 549.359 106.613C549.125 106.236 548.799 105.904 548.383 105.617C547.979 105.331 547.497 105.077 546.938 104.855C546.391 104.621 545.798 104.38 545.16 104.133C544.275 103.781 543.493 103.43 542.816 103.078C542.152 102.714 541.592 102.31 541.137 101.867C540.694 101.411 540.355 100.897 540.121 100.324C539.9 99.7513 539.789 99.0807 539.789 98.3125C539.789 97.375 540.004 96.5482 540.434 95.832C540.863 95.1029 541.436 94.4974 542.152 94.0156C542.868 93.5208 543.682 93.1497 544.594 92.9023C545.518 92.6549 546.469 92.5312 547.445 92.5312C549.177 92.5312 550.727 92.8307 552.094 93.4297V96.6719C550.622 95.7083 548.93 95.2266 547.016 95.2266C546.417 95.2266 545.876 95.2982 545.395 95.4414C544.913 95.5716 544.496 95.7604 544.145 96.0078C543.806 96.2552 543.539 96.5547 543.344 96.9062C543.161 97.2448 543.07 97.6224 543.07 98.0391C543.07 98.5599 543.161 98.9961 543.344 99.3477C543.539 99.6992 543.819 100.012 544.184 100.285C544.548 100.559 544.991 100.806 545.512 101.027C546.033 101.249 546.625 101.49 547.289 101.75C548.174 102.089 548.969 102.44 549.672 102.805C550.375 103.156 550.974 103.56 551.469 104.016C551.964 104.458 552.341 104.973 552.602 105.559C552.875 106.145 553.012 106.841 553.012 107.648C553.012 108.638 552.79 109.497 552.348 110.227C551.918 110.956 551.339 111.561 550.609 112.043C549.88 112.525 549.04 112.883 548.09 113.117C547.139 113.352 546.143 113.469 545.102 113.469C543.044 113.469 541.26 113.072 539.75 112.277ZM600.043 113H593.891V101.594C593.891 98.6901 592.823 97.2383 590.688 97.2383C589.672 97.2383 588.845 97.6745 588.207 98.5469C587.569 99.4193 587.25 100.507 587.25 101.809V113H581.078V101.477C581.078 98.651 580.03 97.2383 577.934 97.2383C576.879 97.2383 576.033 97.6549 575.395 98.4883C574.77 99.3216 574.457 100.454 574.457 101.887V113H568.285V93H574.457V96.125H574.535C575.173 95.0573 576.065 94.1914 577.211 93.5273C578.37 92.8503 579.633 92.5117 581 92.5117C583.826 92.5117 585.759 93.7552 586.801 96.2422C588.324 93.7552 590.564 92.5117 593.52 92.5117C597.868 92.5117 600.043 95.194 600.043 100.559V113ZM622.895 104.758H609.848C610.056 107.661 611.885 109.113 615.336 109.113C617.536 109.113 619.47 108.592 621.137 107.551V112.004C619.288 112.993 616.885 113.488 613.93 113.488C610.701 113.488 608.194 112.596 606.41 110.812C604.626 109.016 603.734 106.516 603.734 103.312C603.734 99.9922 604.698 97.362 606.625 95.4219C608.552 93.4818 610.922 92.5117 613.734 92.5117C616.651 92.5117 618.904 93.3776 620.492 95.1094C622.094 96.8411 622.895 99.1914 622.895 102.16V104.758ZM617.172 100.969C617.172 98.1042 616.013 96.6719 613.695 96.6719C612.706 96.6719 611.846 97.082 611.117 97.9023C610.401 98.7227 609.965 99.7448 609.809 100.969H617.172ZM629.691 89.8359C628.65 89.8359 627.797 89.5299 627.133 88.918C626.469 88.293 626.137 87.5312 626.137 86.6328C626.137 85.7083 626.469 84.9531 627.133 84.3672C627.797 83.7812 628.65 83.4883 629.691 83.4883C630.746 83.4883 631.599 83.7812 632.25 84.3672C632.914 84.9531 633.246 85.7083 633.246 86.6328C633.246 87.5703 632.914 88.3385 632.25 88.9375C631.599 89.5365 630.746 89.8359 629.691 89.8359ZM632.738 112.648C632.738 115.604 632.016 117.967 630.57 119.738C629.125 121.509 627.042 122.395 624.32 122.395C623.422 122.395 622.439 122.199 621.371 121.809V116.965C622.23 117.447 622.992 117.688 623.656 117.688C625.596 117.688 626.566 116.164 626.566 113.117V93H632.738V112.648ZM647.465 113.488C644.132 113.488 641.508 112.557 639.594 110.695C637.693 108.82 636.742 106.281 636.742 103.078C636.742 99.7708 637.732 97.1862 639.711 95.3242C641.69 93.4492 644.366 92.5117 647.738 92.5117C651.059 92.5117 653.663 93.4492 655.551 95.3242C657.439 97.1862 658.383 99.6536 658.383 102.727C658.383 106.047 657.406 108.671 655.453 110.598C653.513 112.525 650.85 113.488 647.465 113.488ZM647.621 97.2383C646.163 97.2383 645.03 97.7396 644.223 98.7422C643.415 99.7448 643.012 101.164 643.012 103C643.012 106.841 644.561 108.762 647.66 108.762C650.616 108.762 652.094 106.789 652.094 102.844C652.094 99.1068 650.603 97.2383 647.621 97.2383ZM675.434 98.5664C674.691 98.1628 673.826 97.9609 672.836 97.9609C671.495 97.9609 670.447 98.4557 669.691 99.4453C668.936 100.422 668.559 101.757 668.559 103.449V113H662.387V93H668.559V96.7109H668.637C669.613 94.0026 671.371 92.6484 673.91 92.6484C674.561 92.6484 675.069 92.7266 675.434 92.8828V98.5664ZM696.137 104.758H683.09C683.298 107.661 685.128 109.113 688.578 109.113C690.779 109.113 692.712 108.592 694.379 107.551V112.004C692.53 112.993 690.128 113.488 687.172 113.488C683.943 113.488 681.436 112.596 679.652 110.812C677.868 109.016 676.977 106.516 676.977 103.312C676.977 99.9922 677.94 97.362 679.867 95.4219C681.794 93.4818 684.164 92.5117 686.977 92.5117C689.893 92.5117 692.146 93.3776 693.734 95.1094C695.336 96.8411 696.137 99.1914 696.137 102.16V104.758ZM690.414 100.969C690.414 98.1042 689.255 96.6719 686.938 96.6719C685.948 96.6719 685.089 97.082 684.359 97.9023C683.643 98.7227 683.207 99.7448 683.051 100.969H690.414ZM698.5 112.473V107.473C699.516 108.085 700.525 108.54 701.527 108.84C702.543 109.139 703.5 109.289 704.398 109.289C705.492 109.289 706.352 109.139 706.977 108.84C707.615 108.54 707.934 108.085 707.934 107.473C707.934 107.082 707.79 106.757 707.504 106.496C707.217 106.236 706.846 106.008 706.391 105.812C705.948 105.617 705.46 105.441 704.926 105.285C704.392 105.129 703.878 104.953 703.383 104.758C702.589 104.458 701.885 104.139 701.273 103.801C700.674 103.449 700.167 103.046 699.75 102.59C699.346 102.134 699.034 101.607 698.812 101.008C698.604 100.409 698.5 99.6992 698.5 98.8789C698.5 97.7591 698.741 96.7956 699.223 95.9883C699.717 95.181 700.368 94.5234 701.176 94.0156C701.996 93.4948 702.927 93.1172 703.969 92.8828C705.023 92.6354 706.117 92.5117 707.25 92.5117C708.135 92.5117 709.034 92.5833 709.945 92.7266C710.857 92.8568 711.755 93.0521 712.641 93.3125V98.0781C711.859 97.6224 711.02 97.2839 710.121 97.0625C709.236 96.8281 708.363 96.7109 707.504 96.7109C707.1 96.7109 706.716 96.75 706.352 96.8281C706 96.8932 705.688 96.9974 705.414 97.1406C705.141 97.2708 704.926 97.4466 704.77 97.668C704.613 97.8763 704.535 98.1172 704.535 98.3906C704.535 98.7552 704.652 99.0677 704.887 99.3281C705.121 99.5885 705.427 99.8164 705.805 100.012C706.182 100.194 706.599 100.363 707.055 100.52C707.523 100.663 707.986 100.812 708.441 100.969C709.262 101.255 710.004 101.568 710.668 101.906C711.332 102.245 711.898 102.642 712.367 103.098C712.849 103.553 713.214 104.087 713.461 104.699C713.721 105.311 713.852 106.04 713.852 106.887C713.852 108.072 713.591 109.087 713.07 109.934C712.562 110.767 711.879 111.451 711.02 111.984C710.173 112.505 709.19 112.883 708.07 113.117C706.964 113.365 705.811 113.488 704.613 113.488C702.413 113.488 700.375 113.15 698.5 112.473ZM224.848 158.676H224.77V170.199H218.598V141H224.77V144.008H224.848C226.371 141.677 228.513 140.512 231.273 140.512C233.865 140.512 235.863 141.404 237.27 143.188C238.689 144.958 239.398 147.374 239.398 150.434C239.398 153.767 238.572 156.443 236.918 158.461C235.277 160.479 233.09 161.488 230.355 161.488C227.947 161.488 226.111 160.551 224.848 158.676ZM224.672 150.473V152.074C224.672 153.454 225.036 154.581 225.766 155.453C226.495 156.326 227.452 156.762 228.637 156.762C230.043 156.762 231.13 156.221 231.898 155.141C232.68 154.047 233.07 152.504 233.07 150.512C233.07 146.996 231.703 145.238 228.969 145.238C227.706 145.238 226.671 145.72 225.863 146.684C225.069 147.634 224.672 148.897 224.672 150.473ZM256.449 146.566C255.707 146.163 254.841 145.961 253.852 145.961C252.51 145.961 251.462 146.456 250.707 147.445C249.952 148.422 249.574 149.757 249.574 151.449V161H243.402V141H249.574V144.711H249.652C250.629 142.003 252.387 140.648 254.926 140.648C255.577 140.648 256.085 140.727 256.449 140.883V146.566ZM277.152 152.758H264.105C264.314 155.661 266.143 157.113 269.594 157.113C271.794 157.113 273.728 156.592 275.395 155.551V160.004C273.546 160.993 271.143 161.488 268.188 161.488C264.958 161.488 262.452 160.596 260.668 158.812C258.884 157.016 257.992 154.516 257.992 151.312C257.992 147.992 258.956 145.362 260.883 143.422C262.81 141.482 265.18 140.512 267.992 140.512C270.909 140.512 273.161 141.378 274.75 143.109C276.352 144.841 277.152 147.191 277.152 150.16V152.758ZM271.43 148.969C271.43 146.104 270.271 144.672 267.953 144.672C266.964 144.672 266.104 145.082 265.375 145.902C264.659 146.723 264.223 147.745 264.066 148.969H271.43ZM295.98 160.277C294.587 161.085 292.576 161.488 289.945 161.488C286.872 161.488 284.385 160.557 282.484 158.695C280.583 156.833 279.633 154.431 279.633 151.488C279.633 148.09 280.648 145.414 282.68 143.461C284.724 141.495 287.452 140.512 290.863 140.512C293.22 140.512 294.926 140.824 295.98 141.449V146.684C294.691 145.72 293.253 145.238 291.664 145.238C289.893 145.238 288.487 145.759 287.445 146.801C286.417 147.829 285.902 149.255 285.902 151.078C285.902 152.849 286.397 154.242 287.387 155.258C288.376 156.26 289.737 156.762 291.469 156.762C293.005 156.762 294.509 156.28 295.98 155.316V160.277ZM303.168 137.836C302.126 137.836 301.273 137.53 300.609 136.918C299.945 136.293 299.613 135.531 299.613 134.633C299.613 133.708 299.945 132.953 300.609 132.367C301.273 131.781 302.126 131.488 303.168 131.488C304.223 131.488 305.076 131.781 305.727 132.367C306.391 132.953 306.723 133.708 306.723 134.633C306.723 135.57 306.391 136.339 305.727 136.938C305.076 137.536 304.223 137.836 303.168 137.836ZM306.215 161H300.043V141H306.215V161ZM320.941 161.488C317.608 161.488 314.984 160.557 313.07 158.695C311.169 156.82 310.219 154.281 310.219 151.078C310.219 147.771 311.208 145.186 313.188 143.324C315.167 141.449 317.842 140.512 321.215 140.512C324.535 140.512 327.139 141.449 329.027 143.324C330.915 145.186 331.859 147.654 331.859 150.727C331.859 154.047 330.883 156.671 328.93 158.598C326.99 160.525 324.327 161.488 320.941 161.488ZM321.098 145.238C319.639 145.238 318.507 145.74 317.699 146.742C316.892 147.745 316.488 149.164 316.488 151C316.488 154.841 318.038 156.762 321.137 156.762C324.092 156.762 325.57 154.789 325.57 150.844C325.57 147.107 324.079 145.238 321.098 145.238ZM334.555 160.473V155.473C335.57 156.085 336.579 156.54 337.582 156.84C338.598 157.139 339.555 157.289 340.453 157.289C341.547 157.289 342.406 157.139 343.031 156.84C343.669 156.54 343.988 156.085 343.988 155.473C343.988 155.082 343.845 154.757 343.559 154.496C343.272 154.236 342.901 154.008 342.445 153.812C342.003 153.617 341.514 153.441 340.98 153.285C340.447 153.129 339.932 152.953 339.438 152.758C338.643 152.458 337.94 152.139 337.328 151.801C336.729 151.449 336.221 151.046 335.805 150.59C335.401 150.134 335.089 149.607 334.867 149.008C334.659 148.409 334.555 147.699 334.555 146.879C334.555 145.759 334.796 144.796 335.277 143.988C335.772 143.181 336.423 142.523 337.23 142.016C338.051 141.495 338.982 141.117 340.023 140.883C341.078 140.635 342.172 140.512 343.305 140.512C344.19 140.512 345.089 140.583 346 140.727C346.911 140.857 347.81 141.052 348.695 141.312V146.078C347.914 145.622 347.074 145.284 346.176 145.062C345.29 144.828 344.418 144.711 343.559 144.711C343.155 144.711 342.771 144.75 342.406 144.828C342.055 144.893 341.742 144.997 341.469 145.141C341.195 145.271 340.98 145.447 340.824 145.668C340.668 145.876 340.59 146.117 340.59 146.391C340.59 146.755 340.707 147.068 340.941 147.328C341.176 147.589 341.482 147.816 341.859 148.012C342.237 148.194 342.654 148.363 343.109 148.52C343.578 148.663 344.04 148.812 344.496 148.969C345.316 149.255 346.059 149.568 346.723 149.906C347.387 150.245 347.953 150.642 348.422 151.098C348.904 151.553 349.268 152.087 349.516 152.699C349.776 153.311 349.906 154.04 349.906 154.887C349.906 156.072 349.646 157.087 349.125 157.934C348.617 158.767 347.934 159.451 347.074 159.984C346.228 160.505 345.245 160.883 344.125 161.117C343.018 161.365 341.866 161.488 340.668 161.488C338.467 161.488 336.43 161.15 334.555 160.473ZM360.648 132.992L359.887 152.289H354.887L354.164 132.992H360.648ZM357.445 161.449C356.404 161.449 355.544 161.137 354.867 160.512C354.19 159.874 353.852 159.105 353.852 158.207C353.852 157.27 354.19 156.501 354.867 155.902C355.557 155.303 356.417 155.004 357.445 155.004C358.487 155.004 359.34 155.31 360.004 155.922C360.668 156.521 361 157.283 361 158.207C361 159.145 360.668 159.919 360.004 160.531C359.353 161.143 358.5 161.449 357.445 161.449Z" fill="white"/>
</g>
<defs>
<filter id="filter0_d_520_5129" x="8" y="20" width="176" height="152" filterUnits="userSpaceOnUse" color-interpolation-filters="sRGB">
<feFlood flood-opacity="0" result="BackgroundImageFix"/>
<feColorMatrix in="SourceAlpha" type="matrix" values="0 0 0 0 0 0 0 0 0 0 0 0 0 0 0 0 0 0 127 0" result="hardAlpha"/>
<feOffset/>
<feGaussianBlur stdDeviation="2"/>
<feComposite in2="hardAlpha" operator="out"/>
<feColorMatrix type="matrix" values="0 0 0 0 0 0 0 0 0 0 0 0 0 0 0 0 0 0 0.25 0"/>
<feBlend mode="normal" in2="BackgroundImageFix" result="effect1_dropShadow_520_5129"/>
<feBlend mode="normal" in="SourceGraphic" in2="effect1_dropShadow_520_5129" result="shape"/>
</filter>
<filter id="filter1_d_520_5129" x="213.875" y="30.9219" width="547.414" height="143.277" filterUnits="userSpaceOnUse" color-interpolation-filters="sRGB">
<feFlood flood-opacity="0" result="BackgroundImageFix"/>
<feColorMatrix in="SourceAlpha" type="matrix" values="0 0 0 0 0 0 0 0 0 0 0 0 0 0 0 0 0 0 127 0" result="hardAlpha"/>
<feOffset/>
<feGaussianBlur stdDeviation="2"/>
<feComposite in2="hardAlpha" operator="out"/>
<feColorMatrix type="matrix" values="0 0 0 0 0 0 0 0 0 0 0 0 0 0 0 0 0 0 0.25 0"/>
<feBlend mode="normal" in2="BackgroundImageFix" result="effect1_dropShadow_520_5129"/>
<feBlend mode="normal" in="SourceGraphic" in2="effect1_dropShadow_520_5129" result="shape"/>
</filter>
<clipPath id="clip0_520_5129">
<rect width="192" height="192" fill="white"/>
</clipPath>
<clipPath id="clip1_520_5129">
<rect width="168" height="144" fill="white" transform="translate(12 24)"/>
</clipPath>
</defs>
</svg>
