<svg width="109" height="48" viewBox="0 0 109 48" fill="none" xmlns="http://www.w3.org/2000/svg">
<g filter="url(#filter0_d_486_3799)">
<rect x="4" y="4" width="101" height="40" rx="8" fill="white"/>
<path d="M24.0459 29.5898C23.3076 29.9727 22.3893 30.1641 21.291 30.1641C19.8691 30.1641 18.7298 29.7152 17.873 28.8174C17.0163 27.9196 16.5879 26.7415 16.5879 25.2832C16.5879 23.7155 17.0687 22.4486 18.0303 21.4824C18.9964 20.5163 20.2155 20.0332 21.6875 20.0332C22.6354 20.0332 23.4215 20.1676 24.0459 20.4365V22.0498C23.3851 21.6579 22.6559 21.4619 21.8584 21.4619C20.7965 21.4619 19.9352 21.8014 19.2744 22.4805C18.6182 23.1595 18.29 24.0664 18.29 25.2012C18.29 26.2812 18.5977 27.1426 19.2129 27.7852C19.8281 28.4232 20.637 28.7422 21.6396 28.7422C22.5648 28.7422 23.3669 28.5234 24.0459 28.0859V29.5898ZM31.832 30H30.2461V28.8926H30.2188C29.7585 29.7402 29.043 30.1641 28.0723 30.1641C26.418 30.1641 25.5908 29.1706 25.5908 27.1836V23H27.1768V27.0195C27.1768 28.2773 27.6621 28.9062 28.6328 28.9062C29.1022 28.9062 29.4873 28.7331 29.7881 28.3867C30.0934 28.0404 30.2461 27.5869 30.2461 27.0264V23H31.832V30ZM39.8301 26.9307H35.0586C35.0768 27.5778 35.2751 28.0768 35.6533 28.4277C36.0361 28.7786 36.5602 28.9541 37.2256 28.9541C37.973 28.9541 38.6589 28.7308 39.2832 28.2842V29.5625C38.6452 29.9635 37.8021 30.1641 36.7539 30.1641C35.724 30.1641 34.915 29.8473 34.3271 29.2139C33.7438 28.5758 33.4521 27.6803 33.4521 26.5273C33.4521 25.4382 33.7734 24.5518 34.416 23.8682C35.0632 23.18 35.8652 22.8359 36.8223 22.8359C37.7793 22.8359 38.5199 23.1436 39.0439 23.7588C39.568 24.374 39.8301 25.2285 39.8301 26.3223V26.9307ZM38.2988 25.8096C38.2943 25.2399 38.1598 24.7979 37.8955 24.4834C37.6312 24.1644 37.2666 24.0049 36.8018 24.0049C36.346 24.0049 35.9587 24.1712 35.6396 24.5039C35.3252 24.8366 35.1315 25.2718 35.0586 25.8096H38.2988ZM47.5752 30H45.9893V26.0557C45.9893 24.7477 45.5267 24.0938 44.6016 24.0938C44.1185 24.0938 43.7197 24.276 43.4053 24.6406C43.0908 25.0007 42.9336 25.4564 42.9336 26.0078V30H41.3408V23H42.9336V24.1621H42.9609C43.485 23.278 44.2415 22.8359 45.2305 22.8359C45.9915 22.8359 46.5726 23.0843 46.9736 23.5811C47.3747 24.0732 47.5752 24.7865 47.5752 25.7207V30ZM53.208 29.9248C52.8981 30.0798 52.4902 30.1572 51.9844 30.1572C50.6263 30.1572 49.9473 29.5055 49.9473 28.2021V24.2441H48.7783V23H49.9473V21.3799L51.5332 20.9287V23H53.208V24.2441H51.5332V27.7441C51.5332 28.1589 51.6084 28.4551 51.7588 28.6328C51.9092 28.8105 52.1598 28.8994 52.5107 28.8994C52.7796 28.8994 53.012 28.8219 53.208 28.667V29.9248ZM59.9482 30H58.4102V28.9062H58.3828C57.8997 29.7448 57.1911 30.1641 56.2568 30.1641C55.5687 30.1641 55.0286 29.9772 54.6367 29.6035C54.2493 29.2298 54.0557 28.7354 54.0557 28.1201C54.0557 26.7985 54.8167 26.0283 56.3389 25.8096L58.417 25.5156C58.417 24.5176 57.943 24.0186 56.9951 24.0186C56.1611 24.0186 55.4092 24.3057 54.7393 24.8799V23.4922C55.4775 23.0547 56.3298 22.8359 57.2959 22.8359C59.0641 22.8359 59.9482 23.7064 59.9482 25.4473V30ZM58.417 26.5615L56.9473 26.7666C56.4915 26.8258 56.1475 26.9375 55.915 27.1016C55.6872 27.2611 55.5732 27.5436 55.5732 27.9492C55.5732 28.2454 55.6781 28.4893 55.8877 28.6807C56.1019 28.8675 56.3867 28.9609 56.7422 28.9609C57.2253 28.9609 57.624 28.7923 57.9385 28.4551C58.2575 28.1133 58.417 27.6849 58.417 27.1699V26.5615Z" fill="#5259FF"/>
<g clip-path="url(#clip0_486_3799)">
<path d="M72.9999 30C72.9999 27.7909 74.7907 26 76.9999 26H84.9999C87.209 26 88.9999 27.7909 88.9999 30V30C88.9999 31.1046 88.1044 32 86.9999 32H74.9999C73.8953 32 72.9999 31.1046 72.9999 30V30Z" stroke="#5259FF" stroke-width="1.5" stroke-linejoin="round"/>
<circle cx="80.9999" cy="19" r="3" stroke="#5259FF" stroke-width="1.5"/>
</g>
</g>
<defs>
<filter id="filter0_d_486_3799" x="0" y="0" width="109" height="48" filterUnits="userSpaceOnUse" color-interpolation-filters="sRGB">
<feFlood flood-opacity="0" result="BackgroundImageFix"/>
<feColorMatrix in="SourceAlpha" type="matrix" values="0 0 0 0 0 0 0 0 0 0 0 0 0 0 0 0 0 0 127 0" result="hardAlpha"/>
<feOffset/>
<feGaussianBlur stdDeviation="2"/>
<feComposite in2="hardAlpha" operator="out"/>
<feColorMatrix type="matrix" values="0 0 0 0 0 0 0 0 0 0 0 0 0 0 0 0 0 0 0.25 0"/>
<feBlend mode="normal" in2="BackgroundImageFix" result="effect1_dropShadow_486_3799"/>
<feBlend mode="normal" in="SourceGraphic" in2="effect1_dropShadow_486_3799" result="shape"/>
</filter>
<clipPath id="clip0_486_3799">
<rect width="24" height="24" fill="white" transform="translate(69 12)"/>
</clipPath>
</defs>
</svg>
