<svg width="117" height="48" viewBox="0 0 117 48" fill="none" xmlns="http://www.w3.org/2000/svg">
<g filter="url(#filter0_d_423_7600)">
<rect x="4" y="4" width="109" height="40" rx="8" fill="white"/>
<rect x="4.5" y="4.5" width="108" height="39" rx="7.5" stroke="#F0F0F0"/>
<g clip-path="url(#clip0_423_7600)">
<path d="M20 30C20 27.7909 21.7909 26 24 26H32C34.2091 26 36 27.7909 36 30V30C36 31.1046 35.1046 32 34 32H22C20.8954 32 20 31.1046 20 30V30Z" stroke="#5259FF" stroke-width="1.5" stroke-linejoin="round"/>
<circle cx="28" cy="19" r="3" stroke="#5259FF" stroke-width="1.5"/>
</g>
<path d="M50.8779 30H49.2031V20.1973H50.8779V30ZM59.3545 30H57.7686V26.0557C57.7686 24.7477 57.306 24.0938 56.3809 24.0938C55.8978 24.0938 55.499 24.276 55.1846 24.6406C54.8701 25.0007 54.7129 25.4564 54.7129 26.0078V30H53.1201V23H54.7129V24.1621H54.7402C55.2643 23.278 56.0208 22.8359 57.0098 22.8359C57.7708 22.8359 58.3519 23.0843 58.7529 23.5811C59.154 24.0732 59.3545 24.7865 59.3545 25.7207V30ZM67.3252 23L64.6182 30H62.9023L60.3252 23H62.0479L63.5996 27.8945C63.7181 28.2546 63.791 28.569 63.8184 28.8379H63.8389C63.8799 28.5007 63.9437 28.1953 64.0303 27.9219L65.6572 23H67.3252ZM69.2051 21.5303C68.9453 21.5303 68.722 21.446 68.5352 21.2773C68.3529 21.1087 68.2617 20.8945 68.2617 20.6348C68.2617 20.375 68.3529 20.1585 68.5352 19.9854C68.722 19.8122 68.9453 19.7256 69.2051 19.7256C69.474 19.7256 69.7018 19.8122 69.8887 19.9854C70.0755 20.1585 70.1689 20.375 70.1689 20.6348C70.1689 20.8809 70.0755 21.0928 69.8887 21.2705C69.7018 21.4437 69.474 21.5303 69.2051 21.5303ZM69.9912 30H68.4053V23H69.9912V30ZM75.7607 29.9248C75.4508 30.0798 75.043 30.1572 74.5371 30.1572C73.179 30.1572 72.5 29.5055 72.5 28.2021V24.2441H71.3311V23H72.5V21.3799L74.0859 20.9287V23H75.7607V24.2441H74.0859V27.7441C74.0859 28.1589 74.1611 28.4551 74.3115 28.6328C74.4619 28.8105 74.7126 28.8994 75.0635 28.8994C75.3324 28.8994 75.5648 28.8219 75.7607 28.667V29.9248ZM82.501 30H80.9629V28.9062H80.9355C80.4525 29.7448 79.7438 30.1641 78.8096 30.1641C78.1214 30.1641 77.5814 29.9772 77.1895 29.6035C76.8021 29.2298 76.6084 28.7354 76.6084 28.1201C76.6084 26.7985 77.3695 26.0283 78.8916 25.8096L80.9697 25.5156C80.9697 24.5176 80.4958 24.0186 79.5479 24.0186C78.7139 24.0186 77.9619 24.3057 77.292 24.8799V23.4922C78.0303 23.0547 78.8825 22.8359 79.8486 22.8359C81.6169 22.8359 82.501 23.7064 82.501 25.4473V30ZM80.9697 26.5615L79.5 26.7666C79.0443 26.8258 78.7002 26.9375 78.4678 27.1016C78.2399 27.2611 78.126 27.5436 78.126 27.9492C78.126 28.2454 78.2308 28.4893 78.4404 28.6807C78.6546 28.8675 78.9395 28.9609 79.2949 28.9609C79.778 28.9609 80.1768 28.7923 80.4912 28.4551C80.8102 28.1133 80.9697 27.6849 80.9697 27.1699V26.5615ZM90.8066 30H89.2207V28.8105H89.1934C88.6829 29.7129 87.8968 30.1641 86.835 30.1641C85.9736 30.1641 85.2832 29.8519 84.7637 29.2275C84.2487 28.5986 83.9912 27.7441 83.9912 26.6641C83.9912 25.5065 84.276 24.5791 84.8457 23.8818C85.4199 23.1846 86.1833 22.8359 87.1357 22.8359C88.0791 22.8359 88.765 23.2142 89.1934 23.9707H89.2207V19.6367H90.8066V30ZM89.2412 26.8008V25.8848C89.2412 25.388 89.0794 24.9665 88.7559 24.6201C88.4323 24.2738 88.0199 24.1006 87.5186 24.1006C86.9261 24.1006 86.459 24.3216 86.1172 24.7637C85.7799 25.2057 85.6113 25.8187 85.6113 26.6025C85.6113 27.3135 85.7731 27.8763 86.0967 28.291C86.4248 28.7012 86.8646 28.9062 87.416 28.9062C87.9583 28.9062 88.3981 28.708 88.7354 28.3115C89.0726 27.9105 89.2412 27.4069 89.2412 26.8008ZM95.9814 30.1641C94.9014 30.1641 94.0378 29.8382 93.3906 29.1865C92.748 28.5303 92.4268 27.6621 92.4268 26.582C92.4268 25.4062 92.7617 24.488 93.4316 23.8271C94.1061 23.1663 95.013 22.8359 96.1523 22.8359C97.2461 22.8359 98.0983 23.1572 98.709 23.7998C99.3197 24.4424 99.625 25.3333 99.625 26.4727C99.625 27.5892 99.2946 28.4847 98.6338 29.1592C97.9775 29.8291 97.0934 30.1641 95.9814 30.1641ZM96.0566 24.1006C95.4368 24.1006 94.9469 24.3171 94.5869 24.75C94.2269 25.1829 94.0469 25.7799 94.0469 26.541C94.0469 27.2747 94.2292 27.8535 94.5938 28.2773C94.9583 28.6966 95.446 28.9062 96.0566 28.9062C96.681 28.9062 97.1595 28.6989 97.4922 28.2842C97.8294 27.8695 97.998 27.2793 97.998 26.5137C97.998 25.7435 97.8294 25.1488 97.4922 24.7295C97.1595 24.3102 96.681 24.1006 96.0566 24.1006Z" fill="#5259FF"/>
</g>
<defs>
<filter id="filter0_d_423_7600" x="0" y="0" width="117" height="48" filterUnits="userSpaceOnUse" color-interpolation-filters="sRGB">
<feFlood flood-opacity="0" result="BackgroundImageFix"/>
<feColorMatrix in="SourceAlpha" type="matrix" values="0 0 0 0 0 0 0 0 0 0 0 0 0 0 0 0 0 0 127 0" result="hardAlpha"/>
<feOffset/>
<feGaussianBlur stdDeviation="2"/>
<feComposite in2="hardAlpha" operator="out"/>
<feColorMatrix type="matrix" values="0 0 0 0 0 0 0 0 0 0 0 0 0 0 0 0 0 0 0.25 0"/>
<feBlend mode="normal" in2="BackgroundImageFix" result="effect1_dropShadow_423_7600"/>
<feBlend mode="normal" in="SourceGraphic" in2="effect1_dropShadow_423_7600" result="shape"/>
</filter>
<clipPath id="clip0_423_7600">
<rect width="24" height="24" fill="white" transform="translate(16 12)"/>
</clipPath>
</defs>
</svg>
