<svg width="117" height="48" viewBox="0 0 117 48" fill="none" xmlns="http://www.w3.org/2000/svg">
<g filter="url(#filter0_d_486_3799)">
<rect x="4" y="4" width="109" height="40" rx="8" fill="white"/>
<path d="M18.8779 30H17.2031V20.1973H18.8779V30ZM27.3545 30H25.7686V26.0557C25.7686 24.7477 25.306 24.0938 24.3809 24.0938C23.8978 24.0938 23.499 24.276 23.1846 24.6406C22.8701 25.0007 22.7129 25.4564 22.7129 26.0078V30H21.1201V23H22.7129V24.1621H22.7402C23.2643 23.278 24.0208 22.8359 25.0098 22.8359C25.7708 22.8359 26.3519 23.0843 26.7529 23.5811C27.154 24.0732 27.3545 24.7865 27.3545 25.7207V30ZM35.3252 23L32.6182 30H30.9023L28.3252 23H30.0479L31.5996 27.8945C31.7181 28.2546 31.791 28.569 31.8184 28.8379H31.8389C31.8799 28.5007 31.9437 28.1953 32.0303 27.9219L33.6572 23H35.3252ZM37.2051 21.5303C36.9453 21.5303 36.722 21.446 36.5352 21.2773C36.3529 21.1087 36.2617 20.8945 36.2617 20.6348C36.2617 20.375 36.3529 20.1585 36.5352 19.9854C36.722 19.8122 36.9453 19.7256 37.2051 19.7256C37.474 19.7256 37.7018 19.8122 37.8887 19.9854C38.0755 20.1585 38.1689 20.375 38.1689 20.6348C38.1689 20.8809 38.0755 21.0928 37.8887 21.2705C37.7018 21.4437 37.474 21.5303 37.2051 21.5303ZM37.9912 30H36.4053V23H37.9912V30ZM43.7607 29.9248C43.4508 30.0798 43.043 30.1572 42.5371 30.1572C41.179 30.1572 40.5 29.5055 40.5 28.2021V24.2441H39.3311V23H40.5V21.3799L42.0859 20.9287V23H43.7607V24.2441H42.0859V27.7441C42.0859 28.1589 42.1611 28.4551 42.3115 28.6328C42.4619 28.8105 42.7126 28.8994 43.0635 28.8994C43.3324 28.8994 43.5648 28.8219 43.7607 28.667V29.9248ZM50.501 30H48.9629V28.9062H48.9355C48.4525 29.7448 47.7438 30.1641 46.8096 30.1641C46.1214 30.1641 45.5814 29.9772 45.1895 29.6035C44.8021 29.2298 44.6084 28.7354 44.6084 28.1201C44.6084 26.7985 45.3695 26.0283 46.8916 25.8096L48.9697 25.5156C48.9697 24.5176 48.4958 24.0186 47.5479 24.0186C46.7139 24.0186 45.9619 24.3057 45.292 24.8799V23.4922C46.0303 23.0547 46.8825 22.8359 47.8486 22.8359C49.6169 22.8359 50.501 23.7064 50.501 25.4473V30ZM48.9697 26.5615L47.5 26.7666C47.0443 26.8258 46.7002 26.9375 46.4678 27.1016C46.2399 27.2611 46.126 27.5436 46.126 27.9492C46.126 28.2454 46.2308 28.4893 46.4404 28.6807C46.6546 28.8675 46.9395 28.9609 47.2949 28.9609C47.778 28.9609 48.1768 28.7923 48.4912 28.4551C48.8102 28.1133 48.9697 27.6849 48.9697 27.1699V26.5615ZM58.8066 30H57.2207V28.8105H57.1934C56.6829 29.7129 55.8968 30.1641 54.835 30.1641C53.9736 30.1641 53.2832 29.8519 52.7637 29.2275C52.2487 28.5986 51.9912 27.7441 51.9912 26.6641C51.9912 25.5065 52.276 24.5791 52.8457 23.8818C53.4199 23.1846 54.1833 22.8359 55.1357 22.8359C56.0791 22.8359 56.765 23.2142 57.1934 23.9707H57.2207V19.6367H58.8066V30ZM57.2412 26.8008V25.8848C57.2412 25.388 57.0794 24.9665 56.7559 24.6201C56.4323 24.2738 56.0199 24.1006 55.5186 24.1006C54.9261 24.1006 54.459 24.3216 54.1172 24.7637C53.7799 25.2057 53.6113 25.8187 53.6113 26.6025C53.6113 27.3135 53.7731 27.8763 54.0967 28.291C54.4248 28.7012 54.8646 28.9062 55.416 28.9062C55.9583 28.9062 56.3981 28.708 56.7354 28.3115C57.0726 27.9105 57.2412 27.4069 57.2412 26.8008ZM63.9814 30.1641C62.9014 30.1641 62.0378 29.8382 61.3906 29.1865C60.748 28.5303 60.4268 27.6621 60.4268 26.582C60.4268 25.4062 60.7617 24.488 61.4316 23.8271C62.1061 23.1663 63.013 22.8359 64.1523 22.8359C65.2461 22.8359 66.0983 23.1572 66.709 23.7998C67.3197 24.4424 67.625 25.3333 67.625 26.4727C67.625 27.5892 67.2946 28.4847 66.6338 29.1592C65.9775 29.8291 65.0934 30.1641 63.9814 30.1641ZM64.0566 24.1006C63.4368 24.1006 62.9469 24.3171 62.5869 24.75C62.2269 25.1829 62.0469 25.7799 62.0469 26.541C62.0469 27.2747 62.2292 27.8535 62.5938 28.2773C62.9583 28.6966 63.446 28.9062 64.0566 28.9062C64.681 28.9062 65.1595 28.6989 65.4922 28.2842C65.8294 27.8695 65.998 27.2793 65.998 26.5137C65.998 25.7435 65.8294 25.1488 65.4922 24.7295C65.1595 24.3102 64.681 24.1006 64.0566 24.1006Z" fill="#5259FF"/>
<g clip-path="url(#clip0_486_3799)">
<path d="M80.9999 30C80.9999 27.7909 82.7907 26 84.9999 26H92.9999C95.209 26 96.9999 27.7909 96.9999 30V30C96.9999 31.1046 96.1044 32 94.9999 32H82.9999C81.8953 32 80.9999 31.1046 80.9999 30V30Z" stroke="#5259FF" stroke-width="1.5" stroke-linejoin="round"/>
<circle cx="88.9999" cy="19" r="3" stroke="#5259FF" stroke-width="1.5"/>
</g>
</g>
<defs>
<filter id="filter0_d_486_3799" x="0" y="0" width="117" height="48" filterUnits="userSpaceOnUse" color-interpolation-filters="sRGB">
<feFlood flood-opacity="0" result="BackgroundImageFix"/>
<feColorMatrix in="SourceAlpha" type="matrix" values="0 0 0 0 0 0 0 0 0 0 0 0 0 0 0 0 0 0 127 0" result="hardAlpha"/>
<feOffset/>
<feGaussianBlur stdDeviation="2"/>
<feComposite in2="hardAlpha" operator="out"/>
<feColorMatrix type="matrix" values="0 0 0 0 0 0 0 0 0 0 0 0 0 0 0 0 0 0 0.25 0"/>
<feBlend mode="normal" in2="BackgroundImageFix" result="effect1_dropShadow_486_3799"/>
<feBlend mode="normal" in="SourceGraphic" in2="effect1_dropShadow_486_3799" result="shape"/>
</filter>
<clipPath id="clip0_486_3799">
<rect width="24" height="24" fill="white" transform="translate(77 12)"/>
</clipPath>
</defs>
</svg>
