<svg width="132" height="48" viewBox="0 0 132 48" fill="none" xmlns="http://www.w3.org/2000/svg">
<g filter="url(#filter0_d_423_7590)">
<rect x="4" y="4" width="124" height="40" rx="8" fill="white"/>
<rect x="4.5" y="4.5" width="123" height="39" rx="7.5" stroke="#F0F0F0"/>
<g clip-path="url(#clip0_423_7590)">
<g clip-path="url(#clip1_423_7590)">
<path d="M20 30C20 27.7909 21.7909 26 24 26H32C34.2091 26 36 27.7909 36 30V30C36 31.1046 35.1046 32 34 32H22C20.8954 32 20 31.1046 20 30V30Z" stroke="#5259FF" stroke-width="1.5" stroke-linejoin="round"/>
<circle cx="28" cy="19" r="3" stroke="#5259FF" stroke-width="1.5"/>
</g>
<path d="M63.7373 30H62.124V23.6562C62.124 23.1367 62.1559 22.501 62.2197 21.749H62.1924C62.0921 22.1774 62.0033 22.485 61.9258 22.6719L59 30H57.8789L54.9463 22.7266C54.8643 22.5124 54.7777 22.1865 54.6865 21.749H54.6592C54.6956 22.141 54.7139 22.7812 54.7139 23.6699V30H53.21V20.1973H55.5L58.0771 26.7256C58.2731 27.2269 58.4007 27.6006 58.46 27.8467H58.4941C58.6628 27.3317 58.7995 26.9489 58.9043 26.6982L61.5293 20.1973H63.7373V30ZM66.7793 21.5303C66.5195 21.5303 66.2962 21.446 66.1094 21.2773C65.9271 21.1087 65.8359 20.8945 65.8359 20.6348C65.8359 20.375 65.9271 20.1585 66.1094 19.9854C66.2962 19.8122 66.5195 19.7256 66.7793 19.7256C67.0482 19.7256 67.276 19.8122 67.4629 19.9854C67.6497 20.1585 67.7432 20.375 67.7432 20.6348C67.7432 20.8809 67.6497 21.0928 67.4629 21.2705C67.276 21.4437 67.0482 21.5303 66.7793 21.5303ZM67.5654 30H65.9795V23H67.5654V30ZM78.5098 29.6787C77.9492 30.0023 77.2861 30.1641 76.5205 30.1641C75.4814 30.1641 74.6429 29.8405 74.0049 29.1934C73.3669 28.5417 73.0479 27.6986 73.0479 26.6641C73.0479 25.5111 73.3896 24.5859 74.0732 23.8887C74.7614 23.1868 75.6797 22.8359 76.8281 22.8359C77.4661 22.8359 78.029 22.9476 78.5166 23.1709V24.6475C78.029 24.2829 77.5094 24.1006 76.958 24.1006C76.2881 24.1006 75.7389 24.3285 75.3105 24.7842C74.8822 25.2354 74.668 25.8278 74.668 26.5615C74.668 27.2861 74.8685 27.8581 75.2695 28.2773C75.6751 28.6966 76.2174 28.9062 76.8965 28.9062C77.4661 28.9062 78.0039 28.7035 78.5098 28.2979V29.6787ZM86.1934 30H84.6074V28.8926H84.5801C84.1198 29.7402 83.4043 30.1641 82.4336 30.1641C80.7793 30.1641 79.9521 29.1706 79.9521 27.1836V23H81.5381V27.0195C81.5381 28.2773 82.0234 28.9062 82.9941 28.9062C83.4635 28.9062 83.8486 28.7331 84.1494 28.3867C84.4548 28.0404 84.6074 27.5869 84.6074 27.0264V23H86.1934V30ZM94.1914 26.9307H89.4199C89.4382 27.5778 89.6364 28.0768 90.0146 28.4277C90.3975 28.7786 90.9215 28.9541 91.5869 28.9541C92.3343 28.9541 93.0202 28.7308 93.6445 28.2842V29.5625C93.0065 29.9635 92.1634 30.1641 91.1152 30.1641C90.0853 30.1641 89.2764 29.8473 88.6885 29.2139C88.1051 28.5758 87.8135 27.6803 87.8135 26.5273C87.8135 25.4382 88.1348 24.5518 88.7773 23.8682C89.4245 23.18 90.2266 22.8359 91.1836 22.8359C92.1406 22.8359 92.8812 23.1436 93.4053 23.7588C93.9294 24.374 94.1914 25.2285 94.1914 26.3223V26.9307ZM92.6602 25.8096C92.6556 25.2399 92.5212 24.7979 92.2568 24.4834C91.9925 24.1644 91.6279 24.0049 91.1631 24.0049C90.7074 24.0049 90.32 24.1712 90.001 24.5039C89.6865 24.8366 89.4928 25.2718 89.4199 25.8096H92.6602ZM101.937 30H100.351V26.0557C100.351 24.7477 99.888 24.0938 98.9629 24.0938C98.4798 24.0938 98.0811 24.276 97.7666 24.6406C97.4521 25.0007 97.2949 25.4564 97.2949 26.0078V30H95.7021V23H97.2949V24.1621H97.3223C97.8464 23.278 98.6029 22.8359 99.5918 22.8359C100.353 22.8359 100.934 23.0843 101.335 23.5811C101.736 24.0732 101.937 24.7865 101.937 25.7207V30ZM107.569 29.9248C107.259 30.0798 106.852 30.1572 106.346 30.1572C104.988 30.1572 104.309 29.5055 104.309 28.2021V24.2441H103.14V23H104.309V21.3799L105.895 20.9287V23H107.569V24.2441H105.895V27.7441C105.895 28.1589 105.97 28.4551 106.12 28.6328C106.271 28.8105 106.521 28.8994 106.872 28.8994C107.141 28.8994 107.373 28.8219 107.569 28.667V29.9248ZM114.31 30H112.771V28.9062H112.744C112.261 29.7448 111.552 30.1641 110.618 30.1641C109.93 30.1641 109.39 29.9772 108.998 29.6035C108.611 29.2298 108.417 28.7354 108.417 28.1201C108.417 26.7985 109.178 26.0283 110.7 25.8096L112.778 25.5156C112.778 24.5176 112.304 24.0186 111.356 24.0186C110.522 24.0186 109.771 24.3057 109.101 24.8799V23.4922C109.839 23.0547 110.691 22.8359 111.657 22.8359C113.425 22.8359 114.31 23.7064 114.31 25.4473V30ZM112.778 26.5615L111.309 26.7666C110.853 26.8258 110.509 26.9375 110.276 27.1016C110.049 27.2611 109.935 27.5436 109.935 27.9492C109.935 28.2454 110.039 28.4893 110.249 28.6807C110.463 28.8675 110.748 28.9609 111.104 28.9609C111.587 28.9609 111.985 28.7923 112.3 28.4551C112.619 28.1133 112.778 27.6849 112.778 27.1699V26.5615Z" fill="#5259FF"/>
</g>
</g>
<defs>
<filter id="filter0_d_423_7590" x="0" y="0" width="132" height="48" filterUnits="userSpaceOnUse" color-interpolation-filters="sRGB">
<feFlood flood-opacity="0" result="BackgroundImageFix"/>
<feColorMatrix in="SourceAlpha" type="matrix" values="0 0 0 0 0 0 0 0 0 0 0 0 0 0 0 0 0 0 127 0" result="hardAlpha"/>
<feOffset/>
<feGaussianBlur stdDeviation="2"/>
<feComposite in2="hardAlpha" operator="out"/>
<feColorMatrix type="matrix" values="0 0 0 0 0 0 0 0 0 0 0 0 0 0 0 0 0 0 0.25 0"/>
<feBlend mode="normal" in2="BackgroundImageFix" result="effect1_dropShadow_423_7590"/>
<feBlend mode="normal" in="SourceGraphic" in2="effect1_dropShadow_423_7590" result="shape"/>
</filter>
<clipPath id="clip0_423_7590">
<rect width="100" height="24" fill="white" transform="translate(16 12)"/>
</clipPath>
<clipPath id="clip1_423_7590">
<rect width="24" height="24" fill="white" transform="translate(16 12)"/>
</clipPath>
</defs>
</svg>
