<svg width="168" height="40" viewBox="0 0 168 40" fill="none" xmlns="http://www.w3.org/2000/svg">
<g filter="url(#filter0_d_502_1222)">
<rect x="4" y="4" width="160" height="32" rx="8" fill="url(#paint0_linear_502_1222)"/>
<path d="M28.0459 24.5898C27.3076 24.9727 26.3893 25.1641 25.291 25.1641C23.8691 25.1641 22.7298 24.7152 21.873 23.8174C21.0163 22.9196 20.5879 21.7415 20.5879 20.2832C20.5879 18.7155 21.0687 17.4486 22.0303 16.4824C22.9964 15.5163 24.2155 15.0332 25.6875 15.0332C26.6354 15.0332 27.4215 15.1676 28.0459 15.4365V17.0498C27.3851 16.6579 26.6559 16.4619 25.8584 16.4619C24.7965 16.4619 23.9352 16.8014 23.2744 17.4805C22.6182 18.1595 22.29 19.0664 22.29 20.2012C22.29 21.2812 22.5977 22.1426 23.2129 22.7852C23.8281 23.4232 24.637 23.7422 25.6396 23.7422C26.5648 23.7422 27.3669 23.5234 28.0459 23.0859V24.5898ZM33.7881 19.5107C33.5967 19.3604 33.321 19.2852 32.9609 19.2852C32.4915 19.2852 32.0996 19.4971 31.7852 19.9209C31.4707 20.3447 31.3135 20.9212 31.3135 21.6504V25H29.7275V18H31.3135V19.4424H31.3408C31.4958 18.9502 31.7327 18.5674 32.0518 18.2939C32.3753 18.016 32.7354 17.877 33.1318 17.877C33.4189 17.877 33.6377 17.9202 33.7881 18.0068V19.5107ZM40.7129 21.9307H35.9414C35.9596 22.5778 36.1579 23.0768 36.5361 23.4277C36.9189 23.7786 37.443 23.9541 38.1084 23.9541C38.8558 23.9541 39.5417 23.7308 40.166 23.2842V24.5625C39.528 24.9635 38.6849 25.1641 37.6367 25.1641C36.6068 25.1641 35.7979 24.8473 35.21 24.2139C34.6266 23.5758 34.335 22.6803 34.335 21.5273C34.335 20.4382 34.6562 19.5518 35.2988 18.8682C35.946 18.18 36.748 17.8359 37.7051 17.8359C38.6621 17.8359 39.4027 18.1436 39.9268 18.7588C40.4508 19.374 40.7129 20.2285 40.7129 21.3223V21.9307ZM39.1816 20.8096C39.1771 20.2399 39.0426 19.7979 38.7783 19.4834C38.514 19.1644 38.1494 19.0049 37.6846 19.0049C37.2288 19.0049 36.8415 19.1712 36.5225 19.5039C36.208 19.8366 36.0143 20.2718 35.9414 20.8096H39.1816ZM47.5967 25H46.0586V23.9062H46.0312C45.5482 24.7448 44.8395 25.1641 43.9053 25.1641C43.2171 25.1641 42.6771 24.9772 42.2852 24.6035C41.8978 24.2298 41.7041 23.7354 41.7041 23.1201C41.7041 21.7985 42.4652 21.0283 43.9873 20.8096L46.0654 20.5156C46.0654 19.5176 45.5915 19.0186 44.6436 19.0186C43.8096 19.0186 43.0576 19.3057 42.3877 19.8799V18.4922C43.126 18.0547 43.9782 17.8359 44.9443 17.8359C46.7126 17.8359 47.5967 18.7064 47.5967 20.4473V25ZM46.0654 21.5615L44.5957 21.7666C44.14 21.8258 43.7959 21.9375 43.5635 22.1016C43.3356 22.2611 43.2217 22.5436 43.2217 22.9492C43.2217 23.2454 43.3265 23.4893 43.5361 23.6807C43.7503 23.8675 44.0352 23.9609 44.3906 23.9609C44.8737 23.9609 45.2725 23.7923 45.5869 23.4551C45.9059 23.1133 46.0654 22.6849 46.0654 22.1699V21.5615ZM53.5986 19.5107C53.4072 19.3604 53.1315 19.2852 52.7715 19.2852C52.3021 19.2852 51.9102 19.4971 51.5957 19.9209C51.2812 20.3447 51.124 20.9212 51.124 21.6504V25H49.5381V18H51.124V19.4424H51.1514C51.3063 18.9502 51.5433 18.5674 51.8623 18.2939C52.1859 18.016 52.5459 17.877 52.9424 17.877C53.2295 17.877 53.4482 17.9202 53.5986 18.0068V19.5107ZM63.5859 24.6787C63.0254 25.0023 62.3623 25.1641 61.5967 25.1641C60.5576 25.1641 59.7191 24.8405 59.0811 24.1934C58.443 23.5417 58.124 22.6986 58.124 21.6641C58.124 20.5111 58.4658 19.5859 59.1494 18.8887C59.8376 18.1868 60.7559 17.8359 61.9043 17.8359C62.5423 17.8359 63.1051 17.9476 63.5928 18.1709V19.6475C63.1051 19.2829 62.5856 19.1006 62.0342 19.1006C61.3643 19.1006 60.8151 19.3285 60.3867 19.7842C59.9583 20.2354 59.7441 20.8278 59.7441 21.5615C59.7441 22.2861 59.9447 22.8581 60.3457 23.2773C60.7513 23.6966 61.2936 23.9062 61.9727 23.9062C62.5423 23.9062 63.0801 23.7035 63.5859 23.2979V24.6787ZM71.2695 25H69.6836V23.8926H69.6562C69.196 24.7402 68.4805 25.1641 67.5098 25.1641C65.8555 25.1641 65.0283 24.1706 65.0283 22.1836V18H66.6143V22.0195C66.6143 23.2773 67.0996 23.9062 68.0703 23.9062C68.5397 23.9062 68.9248 23.7331 69.2256 23.3867C69.5309 23.0404 69.6836 22.5869 69.6836 22.0264V18H71.2695V25ZM79.2676 21.9307H74.4961C74.5143 22.5778 74.7126 23.0768 75.0908 23.4277C75.4736 23.7786 75.9977 23.9541 76.6631 23.9541C77.4105 23.9541 78.0964 23.7308 78.7207 23.2842V24.5625C78.0827 24.9635 77.2396 25.1641 76.1914 25.1641C75.1615 25.1641 74.3525 24.8473 73.7646 24.2139C73.1813 23.5758 72.8896 22.6803 72.8896 21.5273C72.8896 20.4382 73.2109 19.5518 73.8535 18.8682C74.5007 18.18 75.3027 17.8359 76.2598 17.8359C77.2168 17.8359 77.9574 18.1436 78.4814 18.7588C79.0055 19.374 79.2676 20.2285 79.2676 21.3223V21.9307ZM77.7363 20.8096C77.7318 20.2399 77.5973 19.7979 77.333 19.4834C77.0687 19.1644 76.7041 19.0049 76.2393 19.0049C75.7835 19.0049 75.3962 19.1712 75.0771 19.5039C74.7627 19.8366 74.569 20.2718 74.4961 20.8096H77.7363ZM87.0127 25H85.4268V21.0557C85.4268 19.7477 84.9642 19.0938 84.0391 19.0938C83.556 19.0938 83.1572 19.276 82.8428 19.6406C82.5283 20.0007 82.3711 20.4564 82.3711 21.0078V25H80.7783V18H82.3711V19.1621H82.3984C82.9225 18.278 83.679 17.8359 84.668 17.8359C85.429 17.8359 86.0101 18.0843 86.4111 18.5811C86.8122 19.0732 87.0127 19.7865 87.0127 20.7207V25ZM92.6455 24.9248C92.3356 25.0798 91.9277 25.1572 91.4219 25.1572C90.0638 25.1572 89.3848 24.5055 89.3848 23.2021V19.2441H88.2158V18H89.3848V16.3799L90.9707 15.9287V18H92.6455V19.2441H90.9707V22.7441C90.9707 23.1589 91.0459 23.4551 91.1963 23.6328C91.3467 23.8105 91.5973 23.8994 91.9482 23.8994C92.2171 23.8994 92.4495 23.8219 92.6455 23.667V24.9248ZM99.3857 25H97.8477V23.9062H97.8203C97.3372 24.7448 96.6286 25.1641 95.6943 25.1641C95.0062 25.1641 94.4661 24.9772 94.0742 24.6035C93.6868 24.2298 93.4932 23.7354 93.4932 23.1201C93.4932 21.7985 94.2542 21.0283 95.7764 20.8096L97.8545 20.5156C97.8545 19.5176 97.3805 19.0186 96.4326 19.0186C95.5986 19.0186 94.8467 19.3057 94.1768 19.8799V18.4922C94.915 18.0547 95.7673 17.8359 96.7334 17.8359C98.5016 17.8359 99.3857 18.7064 99.3857 20.4473V25ZM97.8545 21.5615L96.3848 21.7666C95.929 21.8258 95.585 21.9375 95.3525 22.1016C95.1247 22.2611 95.0107 22.5436 95.0107 22.9492C95.0107 23.2454 95.1156 23.4893 95.3252 23.6807C95.5394 23.8675 95.8242 23.9609 96.1797 23.9609C96.6628 23.9609 97.0615 23.7923 97.376 23.4551C97.695 23.1133 97.8545 22.6849 97.8545 22.1699V21.5615Z" fill="white"/>
<g clip-path="url(#clip0_502_1222)">
<path d="M136 27L143 20L136 13M143 20L129 20" stroke="white" stroke-width="1.5" stroke-linecap="round" stroke-linejoin="round"/>
</g>
</g>
<defs>
<filter id="filter0_d_502_1222" x="0" y="0" width="168" height="40" filterUnits="userSpaceOnUse" color-interpolation-filters="sRGB">
<feFlood flood-opacity="0" result="BackgroundImageFix"/>
<feColorMatrix in="SourceAlpha" type="matrix" values="0 0 0 0 0 0 0 0 0 0 0 0 0 0 0 0 0 0 127 0" result="hardAlpha"/>
<feOffset/>
<feGaussianBlur stdDeviation="2"/>
<feComposite in2="hardAlpha" operator="out"/>
<feColorMatrix type="matrix" values="0 0 0 0 0 0 0 0 0 0 0 0 0 0 0 0 0 0 0.25 0"/>
<feBlend mode="normal" in2="BackgroundImageFix" result="effect1_dropShadow_502_1222"/>
<feBlend mode="normal" in="SourceGraphic" in2="effect1_dropShadow_502_1222" result="shape"/>
</filter>
<linearGradient id="paint0_linear_502_1222" x1="84" y1="4" x2="84" y2="36" gradientUnits="userSpaceOnUse">
<stop stop-color="#5259FF"/>
<stop offset="1" stop-color="#333BF4"/>
</linearGradient>
<clipPath id="clip0_502_1222">
<rect width="24" height="24" fill="white" transform="translate(124 8)"/>
</clipPath>
</defs>
</svg>
