<svg width="192" height="192" viewBox="0 0 192 192" fill="none" xmlns="http://www.w3.org/2000/svg">
<g clip-path="url(#clip0_520_4229)">
<g clip-path="url(#clip1_520_4229)">
<path fill-rule="evenodd" clip-rule="evenodd" d="M83.6406 51.4421C94.0859 45.4488 99.1719 35.5141 105.229 24C108.318 27.2936 109.986 35.3926 109.303 46.7177C138.41 44.8414 156.854 60.9989 180 36.7019C170.047 74.6457 134.117 53.0889 119.105 56.396C142.279 58.9876 148.855 71.622 175.543 67.1406C166.355 78.0607 146.025 75.847 128.908 68.153C131.93 76.36 162.855 81.6648 156.553 106.164C150.592 96.054 145 89.8448 139.75 87.1586C150.564 105.624 149.717 122.457 139.627 140.855C137.398 144.904 134.678 148.589 131.355 151.775C135.977 141.692 138.219 132.297 136.25 124.13C134.377 131.15 99.3633 199.397 118.053 143.487C80.7285 179.69 44.4023 142.839 12 168C22.8145 117.962 81.6992 137.548 103.383 114.358C107.84 109.579 109.453 103.114 107.539 98.4567C101.961 84.9044 82.4238 88.8864 75.3418 97.1609C70.9805 103.789 62.5312 111.159 55.5996 102.952C54.4648 101.615 53.8223 99.901 53.6445 97.8493C57.1445 99.3206 60.6445 99.8875 64.1445 98.2002L61.3418 95.0956C65.0742 94.0562 69.2441 95.2171 72.5391 91.829L84.7891 83.8785C87.127 82.1777 81.877 81.0844 69.3945 80.234C68.3418 82.9201 68.8203 85.3768 71.8418 87.4961C68.2598 87.9685 65.1562 87.0236 62.7363 84.0405C61.3145 85.1339 61.5195 85.9033 65.334 91.883C61.9023 92.0315 58.4707 90.6817 55.0391 88.5354C54.2461 91.2621 55.4082 93.9887 55.5996 96.7154C53.0977 96 50.8008 94.8256 48.7363 93.1788C46.6582 91.5186 44.7852 89.3993 43.1445 86.8076C42.0098 84.27 42.0234 82.3667 42.8984 80.9494C43.4316 80.072 44.293 79.3836 45.4277 78.8301C49.666 76.7649 51.7988 77.0079 56.7617 73.7413C61.4512 70.6637 66.2363 66.9786 70.3106 62.0112C76.9004 53.9663 76.7227 55.4106 83.6406 51.4421ZM82.6699 63.9145C81.043 64.5759 80.9199 65.3588 78.6777 65.9663C78.0078 66.1417 76.832 67.1406 76.4629 67.721C75.3145 69.5703 79.498 70.5557 80.7559 68.342C81.0703 67.802 82.4785 65.2373 82.5879 64.9269C82.6973 64.6029 82.9844 64.3465 82.7656 63.982C82.7383 63.982 82.7246 63.901 82.6699 63.9145Z" fill="url(#paint0_linear_520_4229)"/>
</g>
</g>
<defs>
<linearGradient id="paint0_linear_520_4229" x1="96" y1="24" x2="96" y2="168" gradientUnits="userSpaceOnUse">
<stop stop-color="#5259FF"/>
<stop offset="1" stop-color="#333BF4"/>
</linearGradient>
<clipPath id="clip0_520_4229">
<rect width="192" height="192" fill="white"/>
</clipPath>
<clipPath id="clip1_520_4229">
<rect width="168" height="144" fill="white" transform="translate(12 24)"/>
</clipPath>
</defs>
</svg>
