<svg width="179" height="24" viewBox="0 0 179 24" fill="none" xmlns="http://www.w3.org/2000/svg">
<g clip-path="url(#clip0_550_7115)">
<path d="M4 18C4 15.7909 5.79086 14 8 14H16C18.2091 14 20 15.7909 20 18V18C20 19.1046 19.1046 20 18 20H6C4.89543 20 4 19.1046 4 18V18Z" stroke="#5259FF" stroke-width="1.5" stroke-linejoin="round"/>
<circle cx="12" cy="7" r="3" stroke="#5259FF" stroke-width="1.5"/>
</g>
<path d="M38.8779 18H37.2031V8.19727H38.8779V18ZM47.3545 18H45.7686V14.0557C45.7686 12.7477 45.306 12.0938 44.3809 12.0938C43.8978 12.0938 43.499 12.276 43.1846 12.6406C42.8701 13.0007 42.7129 13.4564 42.7129 14.0078V18H41.1201V11H42.7129V12.1621H42.7402C43.2643 11.278 44.0208 10.8359 45.0098 10.8359C45.7708 10.8359 46.3519 11.0843 46.7529 11.5811C47.154 12.0732 47.3545 12.7865 47.3545 13.7207V18ZM55.3252 11L52.6182 18H50.9023L48.3252 11H50.0479L51.5996 15.8945C51.7181 16.2546 51.791 16.569 51.8184 16.8379H51.8389C51.8799 16.5007 51.9437 16.1953 52.0303 15.9219L53.6572 11H55.3252ZM57.2051 9.53027C56.9453 9.53027 56.722 9.44596 56.5352 9.27734C56.3529 9.10872 56.2617 8.89453 56.2617 8.63477C56.2617 8.375 56.3529 8.15853 56.5352 7.98535C56.722 7.81217 56.9453 7.72559 57.2051 7.72559C57.474 7.72559 57.7018 7.81217 57.8887 7.98535C58.0755 8.15853 58.1689 8.375 58.1689 8.63477C58.1689 8.88086 58.0755 9.09277 57.8887 9.27051C57.7018 9.44368 57.474 9.53027 57.2051 9.53027ZM57.9912 18H56.4053V11H57.9912V18ZM63.7607 17.9248C63.4508 18.0798 63.043 18.1572 62.5371 18.1572C61.179 18.1572 60.5 17.5055 60.5 16.2021V12.2441H59.3311V11H60.5V9.37988L62.0859 8.92871V11H63.7607V12.2441H62.0859V15.7441C62.0859 16.1589 62.1611 16.4551 62.3115 16.6328C62.4619 16.8105 62.7126 16.8994 63.0635 16.8994C63.3324 16.8994 63.5648 16.8219 63.7607 16.667V17.9248ZM70.501 18H68.9629V16.9062H68.9355C68.4525 17.7448 67.7438 18.1641 66.8096 18.1641C66.1214 18.1641 65.5814 17.9772 65.1895 17.6035C64.8021 17.2298 64.6084 16.7354 64.6084 16.1201C64.6084 14.7985 65.3695 14.0283 66.8916 13.8096L68.9697 13.5156C68.9697 12.5176 68.4958 12.0186 67.5479 12.0186C66.7139 12.0186 65.9619 12.3057 65.292 12.8799V11.4922C66.0303 11.0547 66.8825 10.8359 67.8486 10.8359C69.6169 10.8359 70.501 11.7064 70.501 13.4473V18ZM68.9697 14.5615L67.5 14.7666C67.0443 14.8258 66.7002 14.9375 66.4678 15.1016C66.2399 15.2611 66.126 15.5436 66.126 15.9492C66.126 16.2454 66.2308 16.4893 66.4404 16.6807C66.6546 16.8675 66.9395 16.9609 67.2949 16.9609C67.778 16.9609 68.1768 16.7923 68.4912 16.4551C68.8102 16.1133 68.9697 15.6849 68.9697 15.1699V14.5615ZM78.8066 18H77.2207V16.8105H77.1934C76.6829 17.7129 75.8968 18.1641 74.835 18.1641C73.9736 18.1641 73.2832 17.8519 72.7637 17.2275C72.2487 16.5986 71.9912 15.7441 71.9912 14.6641C71.9912 13.5065 72.276 12.5791 72.8457 11.8818C73.4199 11.1846 74.1833 10.8359 75.1357 10.8359C76.0791 10.8359 76.765 11.2142 77.1934 11.9707H77.2207V7.63672H78.8066V18ZM77.2412 14.8008V13.8848C77.2412 13.388 77.0794 12.9665 76.7559 12.6201C76.4323 12.2738 76.0199 12.1006 75.5186 12.1006C74.9261 12.1006 74.459 12.3216 74.1172 12.7637C73.7799 13.2057 73.6113 13.8187 73.6113 14.6025C73.6113 15.3135 73.7731 15.8763 74.0967 16.291C74.4248 16.7012 74.8646 16.9062 75.416 16.9062C75.9583 16.9062 76.3981 16.708 76.7354 16.3115C77.0726 15.9105 77.2412 15.4069 77.2412 14.8008ZM83.9814 18.1641C82.9014 18.1641 82.0378 17.8382 81.3906 17.1865C80.748 16.5303 80.4268 15.6621 80.4268 14.582C80.4268 13.4062 80.7617 12.488 81.4316 11.8271C82.1061 11.1663 83.013 10.8359 84.1523 10.8359C85.2461 10.8359 86.0983 11.1572 86.709 11.7998C87.3197 12.4424 87.625 13.3333 87.625 14.4727C87.625 15.5892 87.2946 16.4847 86.6338 17.1592C85.9775 17.8291 85.0934 18.1641 83.9814 18.1641ZM84.0566 12.1006C83.4368 12.1006 82.9469 12.3171 82.5869 12.75C82.2269 13.1829 82.0469 13.7799 82.0469 14.541C82.0469 15.2747 82.2292 15.8535 82.5938 16.2773C82.9583 16.6966 83.446 16.9062 84.0566 16.9062C84.681 16.9062 85.1595 16.6989 85.4922 16.2842C85.8294 15.8695 85.998 15.2793 85.998 14.5137C85.998 13.7435 85.8294 13.1488 85.4922 12.7295C85.1595 12.3102 84.681 12.1006 84.0566 12.1006Z" fill="#5259FF"/>
<defs>
<clipPath id="clip0_550_7115">
<rect width="24" height="24" fill="white"/>
</clipPath>
</defs>
</svg>
