<svg width="24" height="24" viewBox="0 0 24 24" fill="none" xmlns="http://www.w3.org/2000/svg">
<path d="M2.75 3C2.55109 3 2.36032 3.07902 2.21967 3.21967C2.07902 3.36032 2 3.55109 2 3.75C2 3.94891 2.07902 4.13968 2.21967 4.28033C2.36032 4.42098 2.55109 4.5 2.75 4.5V3ZM4.75 3.75L5.498 3.692C5.48339 3.50365 5.39824 3.32775 5.25957 3.19946C5.12089 3.07117 4.93891 2.99994 4.75 3V3.75ZM20.75 6.75L21.495 6.833C21.5067 6.72819 21.4961 6.62209 21.464 6.52164C21.4319 6.42118 21.3789 6.32863 21.3086 6.25002C21.2383 6.17141 21.1522 6.10851 21.056 6.06543C20.9597 6.02235 20.8555 6.00006 20.75 6V6.75ZM7.734 16.609L7.681 15.86L7.734 16.608V16.609ZM2.75 4.5H4.75V3H2.75V4.5ZM7.787 17.356L18.142 16.617L18.035 15.121L7.681 15.861L7.787 17.356ZM20.679 14.177L21.495 6.833L20.005 6.667L19.189 14.012L20.679 14.177ZM4.002 3.807L4.233 6.808L5.729 6.692L5.498 3.692L4.002 3.808V3.807ZM4.233 6.808L4.85 14.824L6.345 14.709L5.729 6.692L4.233 6.808ZM20.75 6H4.98V7.5H20.75V6ZM18.142 16.617C18.7834 16.5711 19.3885 16.3019 19.852 15.8561C20.3155 15.4103 20.6081 14.8162 20.679 14.177L19.189 14.012C19.1567 14.3026 19.0236 14.5728 18.8128 14.7754C18.6019 14.978 18.3267 15.1003 18.035 15.121L18.142 16.617ZM7.681 15.86C7.35155 15.8837 7.02611 15.7761 6.77578 15.5606C6.52544 15.3451 6.37057 15.0393 6.345 14.71L4.85 14.824C4.90577 15.5484 5.24596 16.2214 5.79626 16.6958C6.34657 17.1702 7.06226 17.4076 7.787 17.356L7.681 15.86Z" fill="#5259FF"/>
<path d="M8.25 21.25H8.26V21.26H8.25V21.25ZM17.25 21.25H17.26V21.26H17.25V21.25Z" stroke="#5259FF" stroke-width="2.25" stroke-linejoin="round"/>
</svg>
