<svg width="24" height="24" viewBox="0 0 24 24" fill="none" xmlns="http://www.w3.org/2000/svg">
<mask id="mask0_836_6250" style="mask-type:alpha" maskUnits="userSpaceOnUse" x="1" y="1" width="22" height="22">
<path d="M7.53443 1.35902C6.39948 1.41259 5.6243 1.59438 4.94691 1.8598C4.24569 2.13317 3.65127 2.49952 3.05995 3.09327C2.46793 3.68736 2.10436 4.28284 1.83307 4.98476C1.57041 5.66388 1.39242 6.43942 1.3423 7.57507C1.29254 8.71281 1.28113 9.07569 1.28668 11.9722C1.2922 14.8684 1.30499 15.232 1.35924 16.37C1.4135 17.5047 1.59461 18.2795 1.86003 18.9572C2.13374 19.6585 2.49972 20.2526 3.0938 20.8442C3.68755 21.4359 4.28337 21.7991 4.98562 22.0708C5.66404 22.3331 6.43991 22.5118 7.57522 22.5616C8.71294 22.6117 9.07615 22.6227 11.9719 22.6172C14.8691 22.6117 15.2323 22.5989 16.3701 22.545C17.505 22.4907 18.2795 22.3089 18.9576 22.0442C19.6588 21.7698 20.2532 21.4045 20.8445 20.8104C21.4359 20.2166 21.7994 19.6208 22.0707 18.9185C22.3334 18.2401 22.5121 17.4642 22.5615 16.3296C22.6113 15.1912 22.623 14.8276 22.6175 11.9314C22.6119 9.03491 22.5988 8.67203 22.5449 7.53465C22.491 6.39898 22.3092 5.62449 22.0441 4.9464C21.7701 4.24518 21.4044 3.65142 20.8107 3.0594C20.2169 2.46807 19.6211 2.1038 18.9189 1.8332C18.2401 1.57053 17.4646 1.39151 16.3293 1.34243C15.1916 1.29197 14.8283 1.28092 11.9315 1.28645C9.03538 1.29197 8.67216 1.30442 7.53443 1.35902ZM7.65886 20.6417C6.61894 20.5964 6.05423 20.4236 5.67788 20.2788C5.17952 20.086 4.8239 19.8548 4.44961 19.4833C4.07601 19.1103 3.84411 18.7557 3.64954 18.2584C3.50334 17.8821 3.32744 17.318 3.27871 16.2781C3.22583 15.1539 3.21374 14.8165 3.20855 11.9684C3.20303 9.12097 3.21338 8.78365 3.26247 7.65837C3.30704 6.61913 3.48089 6.05372 3.62534 5.6777C3.81818 5.17865 4.0487 4.82371 4.42092 4.44943C4.79381 4.07513 5.1484 3.84392 5.64607 3.64935C6.02208 3.50246 6.58611 3.32793 7.62568 3.27852C8.75061 3.22528 9.08756 3.21388 11.935 3.20836C14.783 3.20282 15.1204 3.21285 16.2456 3.26227C17.2849 3.30754 17.8503 3.47966 18.2259 3.62515C18.7246 3.818 19.0803 4.04783 19.4542 4.42074C19.8281 4.79365 20.06 5.14755 20.2546 5.64625C20.4015 6.02123 20.576 6.58595 20.6251 7.62519C20.6787 8.75014 20.6908 9.08744 20.6959 11.9349C20.7015 14.783 20.6911 15.1203 20.6417 16.2449C20.5964 17.2848 20.4239 17.8499 20.2788 18.2266C20.086 18.7246 19.8554 19.0803 19.4829 19.4546C19.1103 19.8275 18.7557 20.0601 18.2577 20.2546C17.8824 20.4012 17.3177 20.576 16.2788 20.6255C15.1539 20.6783 14.8169 20.6904 11.9685 20.6956C9.12108 20.7012 8.78413 20.6904 7.65886 20.6417ZM16.3545 6.25003C16.3559 6.95645 16.9303 7.52843 17.6367 7.52704C18.3434 7.52566 18.9154 6.95161 18.9144 6.24519C18.913 5.53877 18.3386 4.96646 17.6319 4.96784C16.9251 4.96922 16.3531 5.54361 16.3545 6.25003ZM6.47518 11.9622C6.48105 14.9873 8.93792 17.4342 11.9623 17.4283C14.987 17.4224 17.4352 14.9662 17.4293 11.9411C17.4234 8.91707 14.9662 6.46879 11.9412 6.47467C8.91683 6.48054 6.46929 8.9378 6.47518 11.9622ZM8.39636 11.9584C8.3929 9.995 9.98198 8.40004 11.945 8.39658C13.9084 8.39278 15.5036 9.98118 15.5074 11.9449C15.5113 13.9086 13.9222 15.5033 11.9585 15.5071C9.99546 15.5109 8.40016 13.9221 8.39636 11.9584Z" fill="#000008"/>
</mask>
<g mask="url(#mask0_836_6250)">
<rect x="0.39209" y="0.390625" width="23.2267" height="23.2267" fill="white"/>
<g filter="url(#filter0_f_836_6250)">
<ellipse cx="4.73872" cy="-0.491035" rx="13.4" ry="9.38" transform="rotate(-14.9317 4.73872 -0.491035)" fill="white"/>
</g>
<g filter="url(#filter1_f_836_6250)">
<circle cx="22.8743" cy="0.542274" r="12.6556" fill="white"/>
</g>
<g filter="url(#filter2_f_836_6250)">
<circle cx="4.8587" cy="21.2365" r="7.14667" fill="white"/>
</g>
</g>
<defs>
<filter id="filter0_f_836_6250" x="-45.2848" y="-47.0414" width="100.047" height="93.1023" filterUnits="userSpaceOnUse" color-interpolation-filters="sRGB">
<feFlood flood-opacity="0" result="BackgroundImageFix"/>
<feBlend mode="normal" in="SourceGraphic" in2="BackgroundImageFix" result="shape"/>
<feGaussianBlur stdDeviation="18.425" result="effect1_foregroundBlur_836_6250"/>
</filter>
<filter id="filter1_f_836_6250" x="-34.4479" y="-56.7799" width="114.644" height="114.646" filterUnits="userSpaceOnUse" color-interpolation-filters="sRGB">
<feFlood flood-opacity="0" result="BackgroundImageFix"/>
<feBlend mode="normal" in="SourceGraphic" in2="BackgroundImageFix" result="shape"/>
<feGaussianBlur stdDeviation="22.3333" result="effect1_foregroundBlur_836_6250"/>
</filter>
<filter id="filter2_f_836_6250" x="-38.0213" y="-21.6435" width="85.76" height="85.7596" filterUnits="userSpaceOnUse" color-interpolation-filters="sRGB">
<feFlood flood-opacity="0" result="BackgroundImageFix"/>
<feBlend mode="normal" in="SourceGraphic" in2="BackgroundImageFix" result="shape"/>
<feGaussianBlur stdDeviation="17.8667" result="effect1_foregroundBlur_836_6250"/>
</filter>
</defs>
</svg>
