<svg width="46" height="46" viewBox="0 0 46 46" fill="none" xmlns="http://www.w3.org/2000/svg">
<g clip-path="url(#clip0_341_3112)">
<path fill-rule="evenodd" clip-rule="evenodd" d="M20.2044 12.2888C22.5671 10.9154 23.7174 8.63864 25.0874 6C25.7863 6.75478 26.1636 8.6108 26.009 11.2061C32.5928 10.7762 36.7645 14.4789 42 8.91085C39.7487 17.6063 31.6217 12.6662 28.2262 13.4241C33.4679 14.018 34.9554 16.9134 40.9919 15.8864C38.9137 18.3889 34.3153 17.8816 30.4435 16.1184C31.127 17.9992 38.1221 19.2148 36.6965 24.8293C35.3481 22.5124 34.0833 21.0894 32.8958 20.4738C35.342 24.7056 35.1502 28.563 32.868 32.7792C32.3639 33.7073 31.7485 34.5517 30.9971 35.2818C32.0423 32.971 32.5495 30.8181 32.1042 28.9466C31.6805 30.5551 23.7607 46.1952 27.9881 33.3825C19.5457 41.6789 11.3291 33.234 4 39C6.44613 27.5329 19.7653 32.0214 24.6699 26.707C25.6781 25.6119 26.043 24.1302 25.61 23.063C24.3483 19.9573 19.9292 20.8698 18.3273 22.766C17.3408 24.2849 15.4297 25.9738 13.8618 24.0931C13.6051 23.7868 13.4598 23.394 13.4196 22.9238C14.2113 23.261 15.0029 23.3909 15.7946 23.0042L15.1606 22.2927C16.0049 22.0546 16.9481 22.3206 17.6934 21.5442L20.4642 19.7222C20.993 19.3324 19.8055 19.0818 16.9821 18.887C16.744 19.5025 16.8522 20.0655 17.5356 20.5512C16.7254 20.6594 16.0234 20.4429 15.4761 19.7593C15.1545 20.0098 15.2008 20.1862 16.0636 21.5565C15.2874 21.5906 14.5112 21.2812 13.735 20.7894C13.5557 21.4142 13.8185 22.0391 13.8618 22.6639C13.2959 22.5 12.7764 22.2309 12.3094 21.8535C11.8394 21.473 11.4157 20.9873 11.0446 20.3934C10.7879 19.8119 10.791 19.3757 10.9889 19.0509C11.1095 18.8498 11.3044 18.6921 11.561 18.5652C12.5197 18.092 13.0021 18.1476 14.1247 17.399C15.1854 16.6938 16.2677 15.8493 17.1893 14.7109C18.6799 12.8673 18.6396 13.1983 20.2044 12.2888ZM19.9849 15.1471C19.6169 15.2986 19.589 15.4781 19.0819 15.6173C18.9303 15.6575 18.6644 15.8864 18.5809 16.0194C18.3211 16.4432 19.2674 16.669 19.5519 16.1617C19.623 16.038 19.9416 15.4502 19.9663 15.3791C19.991 15.3048 20.056 15.2461 20.0065 15.1625C20.0003 15.1625 19.9972 15.144 19.9849 15.1471Z" fill="url(#paint0_linear_341_3112)"/>
</g>
<defs>
<linearGradient id="paint0_linear_341_3112" x1="23" y1="6" x2="23" y2="39" gradientUnits="userSpaceOnUse">
<stop stop-color="#5259FF"/>
<stop offset="1" stop-color="#333BF4"/>
</linearGradient>
<clipPath id="clip0_341_3112">
<rect width="38" height="33" fill="white" transform="translate(4 6)"/>
</clipPath>
</defs>
</svg>
