<svg width="147" height="25" viewBox="0 0 147 25" fill="none" xmlns="http://www.w3.org/2000/svg">
<path d="M11.9531 8.24414C11.9531 8.56641 11.8682 8.87988 11.6982 9.18457C11.5342 9.48926 11.3115 9.77637 11.0303 10.0459C10.749 10.3096 10.4209 10.5527 10.0459 10.7754C9.6709 10.9922 9.27539 11.1797 8.85938 11.3379C8.92383 11.3262 8.98828 11.3203 9.05273 11.3203C9.12305 11.3203 9.19043 11.3203 9.25488 11.3203C9.74121 11.3203 10.2217 11.3613 10.6963 11.4434C11.1768 11.5254 11.6074 11.6777 11.9883 11.9004C12.3691 12.1172 12.6768 12.416 12.9111 12.7969C13.1455 13.1777 13.2627 13.6641 13.2627 14.2559C13.2627 14.7188 13.1953 15.1318 13.0605 15.4951C12.9316 15.8584 12.75 16.1807 12.5156 16.4619C12.2871 16.7432 12.0205 16.9863 11.7158 17.1914C11.4111 17.3906 11.0859 17.5605 10.7402 17.7012C10.3945 17.8418 10.0371 17.9531 9.66797 18.0352C9.29883 18.123 8.93848 18.1904 8.58691 18.2373C8.23535 18.2842 7.89844 18.3164 7.57617 18.334C7.25977 18.3516 6.97852 18.3604 6.73242 18.3604C6.48633 18.3604 6.23145 18.3516 5.96777 18.334C5.7041 18.3223 5.44043 18.3047 5.17676 18.2812C4.91309 18.2578 4.65234 18.2314 4.39453 18.2021C4.14258 18.1729 3.90234 18.1406 3.67383 18.1055C3.13477 18.0293 2.60742 17.9414 2.0918 17.8418L2.17969 6.96973C2.17969 6.84668 2.15918 6.71191 2.11816 6.56543C2.07715 6.41895 1.99805 6.28418 1.88086 6.16113C1.76953 6.03809 1.61133 5.93555 1.40625 5.85352C1.20117 5.76562 0.931641 5.72168 0.597656 5.72168V5.39648H6.47754C7.30957 5.39648 8.0625 5.43164 8.73633 5.50195C9.41016 5.57227 9.98438 5.70996 10.459 5.91504C10.9395 6.12012 11.3086 6.41016 11.5664 6.78516C11.8242 7.1543 11.9531 7.64062 11.9531 8.24414ZM9.01758 8.22656C9.01758 7.76953 8.94434 7.3916 8.79785 7.09277C8.65137 6.79395 8.45801 6.55664 8.21777 6.38086C7.97754 6.20508 7.70508 6.08203 7.40039 6.01172C7.0957 5.94141 6.78809 5.90625 6.47754 5.90625C6.16113 5.90625 5.90039 5.94141 5.69531 6.01172C5.49609 6.07617 5.33789 6.16406 5.2207 6.27539C5.10938 6.38672 5.0332 6.51562 4.99219 6.66211C4.95117 6.80859 4.93066 6.96387 4.93066 7.12793L4.89551 17.332C5.09473 17.4375 5.32031 17.5283 5.57227 17.6045C5.78906 17.6748 6.04688 17.7393 6.3457 17.7979C6.64453 17.8506 6.97852 17.877 7.34766 17.877C7.66992 17.877 8.01855 17.8213 8.39355 17.71C8.76855 17.5928 9.11719 17.417 9.43945 17.1826C9.76172 16.9424 10.0283 16.6406 10.2393 16.2773C10.4561 15.9082 10.5645 15.4746 10.5645 14.9766C10.5645 14.5605 10.5117 14.2002 10.4062 13.8955C10.3008 13.585 10.1572 13.3213 9.97559 13.1045C9.79395 12.8818 9.58594 12.7002 9.35156 12.5596C9.11719 12.4189 8.86816 12.3105 8.60449 12.2344C8.34668 12.1523 8.08301 12.0967 7.81348 12.0674C7.5498 12.0381 7.29785 12.0234 7.05762 12.0234C6.87012 12.0234 6.69434 12.0322 6.53027 12.0498C6.36621 12.0615 6.22266 12.0732 6.09961 12.085C5.95312 12.1084 5.82129 12.1289 5.7041 12.1465L5.56348 11.8037C6.20801 11.7275 6.78223 11.5488 7.28613 11.2676C7.50293 11.1504 7.71387 11.0039 7.91895 10.8281C8.12402 10.6523 8.30859 10.4414 8.47266 10.1953C8.63672 9.94922 8.76855 9.66504 8.86816 9.34277C8.96777 9.01465 9.01758 8.64258 9.01758 8.22656ZM14.5195 1.81934H18.8525V17.3145H25.2422C25.0195 17.5312 24.832 17.7832 24.6797 18.0703C24.5273 18.3574 24.4043 18.6328 24.3105 18.8965C24.2051 19.207 24.1201 19.5205 24.0557 19.8369L23.6426 19.9248C23.6719 19.8193 23.6895 19.7139 23.6953 19.6084C23.707 19.5029 23.7129 19.4062 23.7129 19.3184C23.7129 18.9316 23.5898 18.6445 23.3438 18.457C23.1035 18.2695 22.7578 18.1406 22.3066 18.0703C21.8555 18.0059 21.3047 17.9795 20.6543 17.9912C20.0039 17.9971 19.2715 18 18.457 18H14.5195V17.6748C14.8301 17.6748 15.085 17.6455 15.2842 17.5869C15.4834 17.5225 15.6416 17.4375 15.7588 17.332C15.876 17.2207 15.9551 17.0947 15.9961 16.9541C16.043 16.8135 16.0664 16.6641 16.0664 16.5059V3.2959C16.0664 3.17871 16.043 3.05273 15.9961 2.91797C15.9551 2.7832 15.876 2.66016 15.7588 2.54883C15.6475 2.43164 15.4922 2.33496 15.293 2.25879C15.0938 2.18262 14.8359 2.14453 14.5195 2.14453V1.81934ZM34.0049 5.39648H39.8936V5.72168C39.5771 5.72168 39.3164 5.75684 39.1113 5.82715C38.9121 5.8916 38.7539 5.98242 38.6367 6.09961C38.5254 6.21094 38.4492 6.33984 38.4082 6.48633C38.3672 6.63281 38.3467 6.78809 38.3467 6.95215V16.4531C38.3467 16.5703 38.3643 16.6992 38.3994 16.8398C38.4404 16.9805 38.5137 17.1123 38.6191 17.2354C38.7305 17.3584 38.8857 17.4639 39.085 17.5518C39.29 17.6338 39.5596 17.6748 39.8936 17.6748V18H35.5605V16.6816C35.3496 16.9102 35.1182 17.127 34.8662 17.332C34.6143 17.5312 34.333 17.707 34.0225 17.8594C33.7178 18.0117 33.3838 18.1318 33.0205 18.2197C32.6572 18.3135 32.2617 18.3604 31.834 18.3604C31.3066 18.3604 30.7793 18.3047 30.252 18.1934C29.7246 18.082 29.2178 17.915 28.7314 17.6924C28.251 17.4697 27.8027 17.1943 27.3867 16.8662C26.9707 16.5322 26.6074 16.1484 26.2969 15.7148C25.9922 15.2754 25.752 14.7832 25.5762 14.2383C25.4004 13.6875 25.3125 13.0869 25.3125 12.4365C25.3125 11.7334 25.3916 11.0859 25.5498 10.4941C25.7139 9.89648 25.9277 9.35449 26.1914 8.86816C26.4609 8.37598 26.7656 7.93652 27.1055 7.5498C27.4453 7.15723 27.7939 6.81152 28.1514 6.5127C28.9893 5.80957 29.9385 5.24707 30.999 4.8252L31.2363 5.03613C31.2129 5.05371 31.1279 5.12988 30.9814 5.26465C30.835 5.39941 30.6562 5.59863 30.4453 5.8623C30.2344 6.12598 30.0088 6.45996 29.7686 6.86426C29.5283 7.2627 29.3057 7.74023 29.1006 8.29688C28.8955 8.85352 28.7256 9.49219 28.5908 10.2129C28.4561 10.9336 28.3887 11.7422 28.3887 12.6387C28.3887 13.4883 28.4795 14.2324 28.6611 14.8711C28.8486 15.5039 29.1064 16.0342 29.4346 16.4619C29.7627 16.8838 30.1494 17.2002 30.5947 17.4111C31.0459 17.6221 31.5352 17.7275 32.0625 17.7275C32.5371 17.7275 32.9854 17.6367 33.4072 17.4551C33.8291 17.2734 34.1982 17.0186 34.5146 16.6904C34.8369 16.3623 35.0918 15.9727 35.2793 15.5215C35.4668 15.0645 35.5605 14.5635 35.5605 14.0186V6.95215C35.5605 6.83496 35.54 6.70605 35.499 6.56543C35.4639 6.41895 35.3906 6.28418 35.2793 6.16113C35.1738 6.03809 35.0186 5.93555 34.8135 5.85352C34.6084 5.76562 34.3389 5.72168 34.0049 5.72168V5.39648ZM52.5586 8.20898C52.3887 7.83984 52.166 7.51172 51.8906 7.22461C51.6211 6.9375 51.3164 6.69434 50.9766 6.49512C50.6426 6.2959 50.2881 6.14648 49.9131 6.04688C49.5381 5.94141 49.166 5.88867 48.7969 5.88867C48.3926 5.88867 48.0117 5.96191 47.6543 6.1084C47.2969 6.24902 46.9629 6.44531 46.6523 6.69727C46.3477 6.94336 46.0693 7.23926 45.8174 7.58496C45.5654 7.9248 45.3428 8.29395 45.1494 8.69238C44.9619 9.08496 44.8066 9.49805 44.6836 9.93164C44.5605 10.3652 44.4727 10.7988 44.4199 11.2324H51.9082C51.7852 11.4785 51.6914 11.7393 51.627 12.0146C51.5625 12.2842 51.5156 12.5361 51.4863 12.7705C51.4512 13.0459 51.4307 13.3125 51.4248 13.5703L51.1348 13.623C51.0586 13.248 50.9648 12.9375 50.8535 12.6914C50.7422 12.4453 50.5752 12.252 50.3525 12.1113C50.1299 11.9707 49.8311 11.874 49.4561 11.8213C49.0869 11.7627 48.6035 11.7334 48.0059 11.7334H44.3672V12.1113C44.3672 12.5859 44.4229 13.0518 44.5342 13.5088C44.6455 13.9658 44.8037 14.4023 45.0088 14.8184C45.2139 15.2285 45.4658 15.6064 45.7646 15.9521C46.0635 16.2979 46.3975 16.5996 46.7666 16.8574C47.1357 17.1094 47.54 17.3057 47.9795 17.4463C48.4189 17.5869 48.8848 17.6572 49.377 17.6572C49.8223 17.6572 50.2148 17.6162 50.5547 17.5342C50.8945 17.4463 51.1875 17.3379 51.4336 17.209C51.6855 17.0801 51.8965 16.9395 52.0664 16.7871C52.2363 16.6289 52.377 16.4795 52.4883 16.3389C52.5996 16.1982 52.6816 16.0752 52.7344 15.9697C52.793 15.8584 52.8369 15.7852 52.8662 15.75L52.7256 16.9893C52.5908 17.1768 52.3945 17.3584 52.1367 17.5342C51.8789 17.7041 51.5713 17.8594 51.2139 18C50.8623 18.1348 50.4668 18.2432 50.0273 18.3252C49.5879 18.4072 49.1133 18.4482 48.6035 18.4482C47.625 18.4482 46.6992 18.3047 45.8262 18.0176C44.959 17.7305 44.1943 17.3232 43.5322 16.7959C42.876 16.2686 42.3516 15.6328 41.959 14.8887C41.5723 14.1387 41.373 13.3037 41.3613 12.3838C41.3789 11.4346 41.543 10.582 41.8535 9.82617C42.1699 9.06445 42.5889 8.40234 43.1104 7.83984C43.6377 7.27148 44.25 6.80273 44.9473 6.43359C45.6445 6.05859 46.3887 5.78027 47.1797 5.59863C47.5957 5.49902 48.0732 5.43457 48.6123 5.40527C49.1514 5.37598 49.6934 5.36133 50.2383 5.36133C50.7656 5.36133 51.2607 5.36719 51.7236 5.37891C52.1924 5.39062 52.585 5.39648 52.9014 5.39648C52.8369 5.67187 52.79 5.91797 52.7607 6.13477C52.7373 6.3457 52.7256 6.54492 52.7256 6.73242C52.7256 6.99609 52.7461 7.24219 52.7871 7.4707C52.8281 7.69336 52.8838 7.93359 52.9541 8.19141L52.5586 8.20898ZM60.7061 18.4307C59.8564 18.4307 59.0537 18.2871 58.2979 18C57.5479 17.7129 56.8887 17.3115 56.3203 16.7959C55.7578 16.2744 55.3125 15.6562 54.9844 14.9414C54.6562 14.2266 54.4922 13.4414 54.4922 12.5859C54.4922 11.7832 54.6592 11.0244 54.9932 10.3096C55.3271 9.59473 55.8047 8.94141 56.4258 8.34961C57.0469 7.75195 57.7998 7.22754 58.6846 6.77637C59.5693 6.31934 60.5596 5.9502 61.6553 5.66895L60.9873 5.20312C60.5713 4.92188 60.2725 4.59082 60.0908 4.20996C59.9092 3.82324 59.8184 3.42773 59.8184 3.02344C59.8184 2.73047 59.8594 2.44043 59.9414 2.15332C60.0293 1.86621 60.1494 1.59961 60.3018 1.35352C60.4541 1.10742 60.6328 0.890625 60.8379 0.703125C61.043 0.509766 61.2686 0.360352 61.5146 0.254883L61.7256 0.580078C61.333 0.861328 61.1367 1.18359 61.1367 1.54688C61.1367 1.88086 61.2891 2.23828 61.5938 2.61914C61.8984 3 62.3408 3.39844 62.9209 3.81445C63.8994 4.5293 64.7578 5.20312 65.4961 5.83594C66.2402 6.46289 66.8613 7.08691 67.3594 7.70801C67.8633 8.3291 68.2441 8.96191 68.502 9.60645C68.7598 10.2451 68.8975 10.9365 68.915 11.6807C68.915 12.4365 68.8066 13.1279 68.5898 13.7549C68.373 14.376 68.0742 14.9385 67.6934 15.4424C67.3125 15.9404 66.8613 16.377 66.3398 16.752C65.8184 17.127 65.2529 17.4404 64.6436 17.6924C64.0342 17.9385 63.3955 18.123 62.7275 18.2461C62.0596 18.3691 61.3857 18.4307 60.7061 18.4307ZM65.9443 12.4014C65.9443 11.8154 65.8799 11.2617 65.751 10.7402C65.6279 10.2129 65.4229 9.69727 65.1357 9.19336C64.8545 8.68945 64.4795 8.18848 64.0107 7.69043C63.5479 7.19238 62.9736 6.67969 62.2881 6.15234C61.8252 6.25195 61.3857 6.40723 60.9697 6.61816C60.5537 6.82324 60.167 7.0752 59.8096 7.37402C59.4521 7.66699 59.127 8.00098 58.834 8.37598C58.5469 8.74512 58.3008 9.14062 58.0957 9.5625C57.8965 9.97852 57.7412 10.415 57.6299 10.8721C57.5186 11.3232 57.4629 11.7803 57.4629 12.2432C57.4629 12.7002 57.5127 13.1514 57.6123 13.5967C57.7119 14.0361 57.8525 14.458 58.0342 14.8623C58.2217 15.2607 58.4502 15.6299 58.7197 15.9697C58.9893 16.3096 59.291 16.6025 59.625 16.8486C59.9648 17.0947 60.334 17.2881 60.7324 17.4287C61.1367 17.5693 61.5645 17.6396 62.0156 17.6396C62.5605 17.6396 63.0703 17.5137 63.5449 17.2617C64.0254 17.0039 64.4414 16.6465 64.793 16.1895C65.1504 15.7266 65.4316 15.1758 65.6367 14.5371C65.8418 13.8926 65.9443 13.1807 65.9443 12.4014ZM83.4346 17.8945C82.9014 18.1113 82.4209 18.2578 81.9932 18.334C81.5654 18.4102 81.1875 18.4482 80.8594 18.4482C80.4492 18.4482 80.0391 18.3398 79.6289 18.123C79.2246 17.9062 78.832 17.6309 78.4512 17.2969C78.0762 16.957 77.7217 16.582 77.3877 16.1719C77.0537 15.7617 76.752 15.3604 76.4824 14.9678C76.2188 14.5752 75.9932 14.2178 75.8057 13.8955C75.624 13.5732 75.4951 13.333 75.4189 13.1748C76.1631 13.0518 76.8281 12.8291 77.4141 12.5068C77.666 12.3662 77.9121 12.1992 78.1523 12.0059C78.3926 11.8125 78.6064 11.584 78.7939 11.3203C78.9814 11.0566 79.1309 10.7549 79.2422 10.415C79.3594 10.0752 79.418 9.68848 79.418 9.25488C79.418 8.8623 79.3682 8.50781 79.2686 8.19141C79.1689 7.86914 79.0371 7.58496 78.873 7.33887C78.709 7.08691 78.5186 6.87305 78.3018 6.69727C78.085 6.51562 77.8594 6.36621 77.625 6.24902C77.3906 6.13184 77.1533 6.04688 76.9131 5.99414C76.6787 5.93555 76.459 5.90625 76.2539 5.90625C75.9434 5.90625 75.6855 5.93848 75.4805 6.00293C75.2812 6.06738 75.123 6.15527 75.0059 6.2666C74.8887 6.37207 74.8066 6.49805 74.7598 6.64453C74.7188 6.78516 74.6982 6.93457 74.6982 7.09277V16.4531C74.6982 16.5703 74.7158 16.6992 74.751 16.8398C74.792 16.9805 74.8652 17.1123 74.9707 17.2354C75.082 17.3584 75.2402 17.4639 75.4453 17.5518C75.6504 17.6338 75.9199 17.6748 76.2539 17.6748V18H70.3652V17.6748C70.6758 17.6748 70.9307 17.6455 71.1299 17.5869C71.3291 17.5225 71.4873 17.4375 71.6045 17.332C71.7217 17.2207 71.8008 17.0947 71.8418 16.9541C71.8887 16.8135 71.9121 16.6641 71.9121 16.5059V6.87305C71.9121 6.75586 71.8887 6.62988 71.8418 6.49512C71.8008 6.36035 71.7217 6.2373 71.6045 6.12598C71.4932 6.00879 71.3379 5.91211 71.1387 5.83594C70.9395 5.75977 70.6816 5.72168 70.3652 5.72168V5.39648H76.2539C77.0859 5.39648 77.8711 5.46973 78.6094 5.61621C79.3477 5.7627 79.9922 5.99414 80.543 6.31055C81.0996 6.62109 81.5391 7.02246 81.8613 7.51465C82.1895 8.00098 82.3535 8.58691 82.3535 9.27246C82.3535 9.85254 82.2334 10.3594 81.9932 10.793C81.7588 11.2266 81.4453 11.5986 81.0527 11.9092C80.666 12.2197 80.2236 12.4775 79.7256 12.6826C79.2334 12.8818 78.7295 13.04 78.2139 13.1572C78.4131 13.5205 78.6328 13.8838 78.873 14.2471C79.1133 14.6104 79.3652 14.959 79.6289 15.293C79.8926 15.627 80.1562 15.9375 80.4199 16.2246C80.6895 16.5117 80.9502 16.7637 81.2021 16.9805C81.4541 17.1914 81.6885 17.3584 81.9053 17.4814C82.1279 17.5986 82.3242 17.6572 82.4941 17.6572C82.5762 17.6572 82.6875 17.6484 82.8281 17.6309C82.9746 17.6133 83.1328 17.5693 83.3027 17.499L83.4346 17.8945ZM98.7979 17.5342C98.2646 17.751 97.7783 17.8975 97.3389 17.9736C96.8994 18.0498 96.5039 18.0879 96.1523 18.0879C95.8711 18.0879 95.6279 18.0703 95.4229 18.0352C95.2178 18.0059 95.042 17.9678 94.8955 17.9209C94.7256 17.8682 94.5791 17.8096 94.4561 17.7451C94.1982 17.5986 93.9727 17.4082 93.7793 17.1738C93.5859 16.9395 93.4102 16.6875 93.252 16.418C93.0996 16.1484 92.9619 15.8701 92.8389 15.583C92.7158 15.2959 92.5957 15.0264 92.4785 14.7744L92.2588 14.3086C91.667 14.4785 91.1133 14.6748 90.5977 14.8975C90.0879 15.1143 89.6338 15.3311 89.2354 15.5479C88.8369 15.7588 88.5 15.9551 88.2246 16.1367C87.9551 16.3125 87.7646 16.4414 87.6533 16.5234C87.4365 16.7637 87.1934 16.9775 86.9238 17.165C86.6543 17.3525 86.3525 17.5137 86.0186 17.6484C85.6846 17.7773 85.3125 17.877 84.9023 17.9473C84.4922 18.0176 84.041 18.0527 83.5488 18.0527L83.4609 17.6748C84.0293 17.5811 84.5186 17.3994 84.9287 17.1299C85.3447 16.8604 85.7021 16.5293 86.001 16.1367C86.2998 15.7383 86.5547 15.293 86.7656 14.8008C86.9766 14.3027 87.1641 13.7783 87.3281 13.2275C87.4219 12.9111 87.5449 12.5771 87.6973 12.2256C87.8555 11.874 88.043 11.5342 88.2598 11.2061C88.4824 10.8721 88.7344 10.5615 89.0156 10.2744C89.3027 9.98145 89.6279 9.73535 89.9912 9.53613C89.8916 9.34863 89.792 9.1582 89.6924 8.96484C89.5986 8.76562 89.5078 8.56641 89.4199 8.36719C89.2969 8.13281 89.1738 7.875 89.0508 7.59375C88.9277 7.30664 88.7812 7.04297 88.6113 6.80273C88.4473 6.55664 88.251 6.35156 88.0225 6.1875C87.7998 6.02344 87.5215 5.94141 87.1875 5.94141C86.9531 5.94141 86.7217 5.96777 86.4932 6.02051C86.2705 6.07324 86.0566 6.1377 85.8516 6.21387L85.7285 5.85352C86.2383 5.68359 86.7539 5.54004 87.2754 5.42285C87.8027 5.2998 88.3242 5.23828 88.8398 5.23828C89.0859 5.23828 89.3291 5.25586 89.5693 5.29102C89.8096 5.32031 90.041 5.37598 90.2637 5.45801C90.457 5.52832 90.6445 5.64551 90.8262 5.80957C91.0078 5.96777 91.1807 6.1582 91.3447 6.38086C91.5088 6.59766 91.6611 6.83203 91.8018 7.08398C91.9482 7.33594 92.083 7.58789 92.2061 7.83984C92.335 8.0918 92.4492 8.33203 92.5488 8.56055C92.6543 8.7832 92.7451 8.97656 92.8213 9.14062C93.3369 10.248 93.8496 11.3584 94.3594 12.4717C94.8691 13.5791 95.417 14.6719 96.0029 15.75C96.1084 15.9434 96.2197 16.1338 96.3369 16.3213C96.46 16.5088 96.5947 16.6758 96.7412 16.8223C96.8936 16.9688 97.0605 17.0859 97.2422 17.1738C97.4238 17.2617 97.6289 17.3027 97.8574 17.2969C97.9395 17.2969 98.0508 17.2881 98.1914 17.2705C98.3379 17.2529 98.4961 17.209 98.666 17.1387L98.7979 17.5342ZM90.4834 10.5469C90.3311 10.793 90.1904 11.0479 90.0615 11.3115C89.9385 11.5752 89.8242 11.8447 89.7188 12.1201C89.6133 12.3896 89.5166 12.6592 89.4287 12.9287C89.3408 13.1982 89.2529 13.4561 89.165 13.7021C89.0771 13.9717 88.9805 14.2354 88.875 14.4932C88.7754 14.7451 88.6611 14.9912 88.5322 15.2314C88.9717 14.9736 89.4873 14.7041 90.0791 14.4229C90.6709 14.1416 91.3037 13.9014 91.9775 13.7021L90.4834 10.5469ZM103.983 12.6738C104.147 12.5098 104.364 12.3252 104.634 12.1201C104.903 11.9092 105.229 11.7129 105.609 11.5312C105.996 11.3496 106.436 11.1973 106.928 11.0742C107.426 10.9512 107.979 10.8896 108.589 10.8896C109.028 10.8896 109.459 10.9453 109.881 11.0566C110.303 11.1621 110.678 11.335 111.006 11.5752C111.34 11.8154 111.609 12.1289 111.814 12.5156C112.02 12.8965 112.122 13.3623 112.122 13.9131C112.122 14.3643 112.025 14.7891 111.832 15.1875C111.639 15.5859 111.372 15.9551 111.032 16.2949C110.692 16.6289 110.294 16.9307 109.837 17.2002C109.38 17.4639 108.888 17.6895 108.36 17.877C107.839 18.0586 107.294 18.1992 106.726 18.2988C106.157 18.3984 105.592 18.4482 105.029 18.4482C104.414 18.4482 103.825 18.3867 103.263 18.2637C102.7 18.1406 102.173 17.9619 101.681 17.7275C101.188 17.4873 100.74 17.1943 100.336 16.8486C99.9375 16.4971 99.5947 16.0986 99.3076 15.6533C99.0205 15.2021 98.7979 14.7041 98.6396 14.1592C98.4814 13.6084 98.4023 13.0166 98.4023 12.3838C98.4141 11.7451 98.502 11.1504 98.666 10.5996C98.8359 10.0488 99.0615 9.54199 99.3428 9.0791C99.6299 8.61621 99.9668 8.19727 100.354 7.82227C100.746 7.44141 101.168 7.10742 101.619 6.82031C102.076 6.52734 102.554 6.28125 103.052 6.08203C103.556 5.87695 104.065 5.71582 104.581 5.59863C104.792 5.5459 105.021 5.50488 105.267 5.47559C105.519 5.44629 105.776 5.42285 106.04 5.40527C106.31 5.3877 106.585 5.37598 106.866 5.37012C107.147 5.36426 107.429 5.36133 107.71 5.36133C108.243 5.36133 108.75 5.36719 109.23 5.37891C109.717 5.39062 110.121 5.39648 110.443 5.39648C110.379 5.67187 110.332 5.91797 110.303 6.13477C110.279 6.3457 110.268 6.54492 110.268 6.73242C110.268 6.99609 110.288 7.24219 110.329 7.4707C110.37 7.69336 110.429 7.93359 110.505 8.19141L110.109 8.20898C109.934 7.83398 109.705 7.50586 109.424 7.22461C109.143 6.9375 108.832 6.7002 108.492 6.5127C108.152 6.31934 107.789 6.17578 107.402 6.08203C107.021 5.98828 106.644 5.94141 106.269 5.94141C105.653 5.94141 105.105 6.04102 104.625 6.24023C104.15 6.43945 103.731 6.70605 103.368 7.04004C103.011 7.36816 102.706 7.74609 102.454 8.17383C102.208 8.60156 102.006 9.04688 101.848 9.50977C101.695 9.9668 101.584 10.4238 101.514 10.8809C101.443 11.3379 101.408 11.7598 101.408 12.1465C101.408 12.9375 101.522 13.6699 101.751 14.3438C101.979 15.0117 102.293 15.5918 102.691 16.084C103.096 16.5703 103.57 16.9512 104.115 17.2266C104.666 17.502 105.264 17.6396 105.908 17.6396C106.365 17.6396 106.767 17.5869 107.112 17.4814C107.458 17.3701 107.754 17.2266 108 17.0508C108.252 16.875 108.46 16.6729 108.624 16.4443C108.794 16.21 108.926 15.9697 109.02 15.7236C109.119 15.4775 109.189 15.2314 109.23 14.9854C109.271 14.7393 109.292 14.5137 109.292 14.3086C109.292 13.9688 109.236 13.6465 109.125 13.3418C109.014 13.0371 108.853 12.7705 108.642 12.542C108.431 12.3135 108.17 12.1348 107.859 12.0059C107.555 11.8711 107.206 11.8037 106.813 11.8037C106.468 11.8037 106.148 11.8506 105.855 11.9443C105.562 12.0322 105.302 12.1348 105.073 12.252C104.851 12.3691 104.66 12.4893 104.502 12.6123C104.35 12.7354 104.238 12.8262 104.168 12.8848L103.983 12.6738ZM113.467 11.6982C113.467 11.2119 113.534 10.7139 113.669 10.2041C113.804 9.68848 114.003 9.19336 114.267 8.71875C114.53 8.23828 114.855 7.78711 115.242 7.36523C115.635 6.9375 116.083 6.56543 116.587 6.24902C117.097 5.93262 117.665 5.68359 118.292 5.50195C118.919 5.31445 119.599 5.2207 120.331 5.2207C121.087 5.2207 121.781 5.30566 122.414 5.47559C123.053 5.64551 123.627 5.87988 124.137 6.17871C124.652 6.47754 125.104 6.83203 125.49 7.24219C125.883 7.65234 126.208 8.09766 126.466 8.57812C126.729 9.05273 126.926 9.55664 127.055 10.0898C127.189 10.623 127.257 11.1592 127.257 11.6982C127.257 12.2139 127.189 12.7354 127.055 13.2627C126.926 13.79 126.729 14.2998 126.466 14.792C126.208 15.2842 125.883 15.7471 125.49 16.1807C125.104 16.6143 124.652 16.9922 124.137 17.3145C123.627 17.6367 123.053 17.8916 122.414 18.0791C121.781 18.2666 121.087 18.3604 120.331 18.3604C119.587 18.3604 118.901 18.2666 118.274 18.0791C117.647 17.8975 117.079 17.6455 116.569 17.3232C116.065 17.001 115.62 16.623 115.233 16.1895C114.847 15.7559 114.521 15.293 114.258 14.8008C113.994 14.3086 113.795 13.7988 113.66 13.2715C113.531 12.7383 113.467 12.2139 113.467 11.6982ZM116.49 11.6631C116.49 12.1611 116.517 12.6533 116.569 13.1396C116.628 13.626 116.719 14.0918 116.842 14.5371C116.965 14.9766 117.123 15.3867 117.316 15.7676C117.516 16.1426 117.756 16.4707 118.037 16.752C118.318 17.0332 118.644 17.2559 119.013 17.4199C119.382 17.584 119.801 17.6689 120.27 17.6748C120.738 17.6748 121.163 17.5928 121.544 17.4287C121.925 17.2588 122.262 17.0303 122.555 16.7432C122.848 16.4561 123.1 16.1191 123.311 15.7324C123.521 15.3457 123.697 14.9355 123.838 14.502C123.979 14.0625 124.081 13.6084 124.146 13.1396C124.216 12.665 124.257 12.2021 124.269 11.751C124.269 11.2881 124.239 10.8223 124.181 10.3535C124.128 9.88477 124.037 9.43652 123.908 9.00879C123.785 8.5752 123.624 8.1709 123.425 7.7959C123.226 7.4209 122.982 7.0957 122.695 6.82031C122.408 6.53906 122.077 6.31934 121.702 6.16113C121.327 6.00293 120.899 5.92383 120.419 5.92383C119.95 5.92383 119.528 5.99414 119.153 6.13477C118.784 6.27539 118.453 6.47461 118.16 6.73242C117.873 6.99023 117.624 7.29492 117.413 7.64648C117.208 7.99805 117.038 8.3877 116.903 8.81543C116.769 9.24316 116.666 9.69727 116.596 10.1777C116.531 10.6582 116.496 11.1533 116.49 11.6631ZM128.742 5.39648H133.154L139.808 13.4824V6.87305C139.808 6.75586 139.784 6.62988 139.737 6.49512C139.696 6.36035 139.617 6.2373 139.5 6.12598C139.389 6.00879 139.233 5.91211 139.034 5.83594C138.835 5.75977 138.577 5.72168 138.261 5.72168V5.39648H142.154V5.72168C141.832 5.72168 141.571 5.75684 141.372 5.82715C141.173 5.8916 141.015 5.98242 140.897 6.09961C140.786 6.21094 140.71 6.33984 140.669 6.48633C140.628 6.63281 140.607 6.78809 140.607 6.95215V18H139.808L131.08 7.4707V16.4531C131.08 16.5703 131.098 16.6992 131.133 16.8398C131.174 16.9805 131.247 17.1123 131.353 17.2354C131.464 17.3584 131.619 17.4639 131.818 17.5518C132.023 17.6338 132.293 17.6748 132.627 17.6748V18H128.742V17.6748C129.059 17.6748 129.316 17.6426 129.516 17.5781C129.721 17.5078 129.879 17.417 129.99 17.3057C130.107 17.1943 130.187 17.0654 130.228 16.9189C130.269 16.7725 130.289 16.6172 130.289 16.4531V6.5127C130.148 6.35449 130.02 6.22559 129.902 6.12598C129.785 6.02637 129.665 5.94727 129.542 5.88867C129.425 5.82422 129.302 5.78027 129.173 5.75684C129.044 5.7334 128.9 5.72168 128.742 5.72168V5.39648Z" fill="url(#paint0_linear_460_3528)"/>
<defs>
<linearGradient id="paint0_linear_460_3528" x1="73.5" y1="0" x2="73.5" y2="25" gradientUnits="userSpaceOnUse">
<stop stop-color="#5259FF"/>
<stop offset="1" stop-color="#333BF4"/>
</linearGradient>
</defs>
</svg>
