<svg width="191" height="42" viewBox="0 0 191 42" fill="none" xmlns="http://www.w3.org/2000/svg">
<path d="M6.42773 30.7812H4.01367V38H2.61914V30.7812H0.210938V29.5977H6.42773V30.7812ZM11.4141 35.3691H7.32422C7.33984 35.9238 7.50977 36.3516 7.83398 36.6523C8.16211 36.9531 8.61133 37.1035 9.18164 37.1035C9.82227 37.1035 10.4102 36.9121 10.9453 36.5293V37.625C10.3984 37.9688 9.67578 38.1406 8.77734 38.1406C7.89453 38.1406 7.20117 37.8691 6.69727 37.3262C6.19727 36.7793 5.94727 36.0117 5.94727 35.0234C5.94727 34.0898 6.22266 33.3301 6.77344 32.7441C7.32812 32.1543 8.01562 31.8594 8.83594 31.8594C9.65625 31.8594 10.291 32.123 10.7402 32.6504C11.1895 33.1777 11.4141 33.9102 11.4141 34.8477V35.3691ZM10.1016 34.4082C10.0977 33.9199 9.98242 33.541 9.75586 33.2715C9.5293 32.998 9.2168 32.8613 8.81836 32.8613C8.42773 32.8613 8.0957 33.0039 7.82227 33.2891C7.55273 33.5742 7.38672 33.9473 7.32422 34.4082H10.1016ZM17.0039 37.7246C16.5234 38.002 15.9551 38.1406 15.2988 38.1406C14.4082 38.1406 13.6895 37.8633 13.1426 37.3086C12.5957 36.75 12.3223 36.0273 12.3223 35.1406C12.3223 34.1523 12.6152 33.3594 13.2012 32.7617C13.791 32.1602 14.5781 31.8594 15.5625 31.8594C16.1094 31.8594 16.5918 31.9551 17.0098 32.1465V33.4121C16.5918 33.0996 16.1465 32.9434 15.6738 32.9434C15.0996 32.9434 14.6289 33.1387 14.2617 33.5293C13.8945 33.916 13.7109 34.4238 13.7109 35.0527C13.7109 35.6738 13.8828 36.1641 14.2266 36.5234C14.5742 36.8828 15.0391 37.0625 15.6211 37.0625C16.1094 37.0625 16.5703 36.8887 17.0039 36.541V37.7246ZM23.7012 38H22.3418V34.6191C22.3418 33.498 21.9453 32.9375 21.1523 32.9375C20.7383 32.9375 20.3965 33.0938 20.127 33.4062C19.8574 33.7148 19.7227 34.1055 19.7227 34.5781V38H18.3574V32H19.7227V32.9961H19.7461C20.1953 32.2383 20.8438 31.8594 21.6914 31.8594C22.3438 31.8594 22.8418 32.0723 23.1855 32.498C23.5293 32.9199 23.7012 33.5312 23.7012 34.332V38ZM28.0254 38.1406C27.0996 38.1406 26.3594 37.8613 25.8047 37.3027C25.2539 36.7402 24.9785 35.9961 24.9785 35.0703C24.9785 34.0625 25.2656 33.2754 25.8398 32.709C26.418 32.1426 27.1953 31.8594 28.1719 31.8594C29.1094 31.8594 29.8398 32.1348 30.3633 32.6855C30.8867 33.2363 31.1484 34 31.1484 34.9766C31.1484 35.9336 30.8652 36.7012 30.2988 37.2793C29.7363 37.8535 28.9785 38.1406 28.0254 38.1406ZM28.0898 32.9434C27.5586 32.9434 27.1387 33.1289 26.8301 33.5C26.5215 33.8711 26.3672 34.3828 26.3672 35.0352C26.3672 35.6641 26.5234 36.1602 26.8359 36.5234C27.1484 36.8828 27.5664 37.0625 28.0898 37.0625C28.625 37.0625 29.0352 36.8848 29.3203 36.5293C29.6094 36.1738 29.7539 35.668 29.7539 35.0117C29.7539 34.3516 29.6094 33.8418 29.3203 33.4824C29.0352 33.123 28.625 32.9434 28.0898 32.9434ZM33.9023 38H32.5371V29.1172H33.9023V38ZM38.3379 38.1406C37.4121 38.1406 36.6719 37.8613 36.1172 37.3027C35.5664 36.7402 35.291 35.9961 35.291 35.0703C35.291 34.0625 35.5781 33.2754 36.1523 32.709C36.7305 32.1426 37.5078 31.8594 38.4844 31.8594C39.4219 31.8594 40.1523 32.1348 40.6758 32.6855C41.1992 33.2363 41.4609 34 41.4609 34.9766C41.4609 35.9336 41.1777 36.7012 40.6113 37.2793C40.0488 37.8535 39.291 38.1406 38.3379 38.1406ZM38.4023 32.9434C37.8711 32.9434 37.4512 33.1289 37.1426 33.5C36.834 33.8711 36.6797 34.3828 36.6797 35.0352C36.6797 35.6641 36.8359 36.1602 37.1484 36.5234C37.4609 36.8828 37.8789 37.0625 38.4023 37.0625C38.9375 37.0625 39.3477 36.8848 39.6328 36.5293C39.9219 36.1738 40.0664 35.668 40.0664 35.0117C40.0664 34.3516 39.9219 33.8418 39.6328 33.4824C39.3477 33.123 38.9375 32.9434 38.4023 32.9434ZM48.3105 37.5195C48.3105 39.7227 47.2031 40.8242 44.9883 40.8242C44.207 40.8242 43.5254 40.6934 42.9434 40.4316V39.1895C43.5996 39.5645 44.2227 39.752 44.8125 39.752C46.2383 39.752 46.9512 39.0508 46.9512 37.6484V36.9922H46.9277C46.4785 37.7578 45.8027 38.1406 44.9004 38.1406C44.1699 38.1406 43.5801 37.875 43.1309 37.3438C42.6855 36.8086 42.4629 36.0918 42.4629 35.1934C42.4629 34.1738 42.7031 33.3633 43.1836 32.7617C43.6641 32.1602 44.3242 31.8594 45.1641 31.8594C45.957 31.8594 46.5449 32.1836 46.9277 32.832H46.9512V32H48.3105V37.5195ZM46.9629 35.252V34.4727C46.9629 34.0508 46.8223 33.6914 46.541 33.3945C46.2637 33.0938 45.916 32.9434 45.498 32.9434C44.9824 32.9434 44.5781 33.1348 44.2852 33.5176C43.9961 33.8965 43.8516 34.4277 43.8516 35.1113C43.8516 35.7012 43.9902 36.1738 44.2676 36.5293C44.5488 36.8809 44.9199 37.0566 45.3809 37.0566C45.8496 37.0566 46.2305 36.8887 46.5234 36.5527C46.8164 36.2129 46.9629 35.7793 46.9629 35.252ZM55.2773 32L52.5703 38.9609C52.0078 40.2031 51.2188 40.8242 50.2031 40.8242C49.918 40.8242 49.6797 40.7988 49.4883 40.748V39.6172C49.7031 39.6875 49.8984 39.7227 50.0742 39.7227C50.582 39.7227 50.9609 39.4727 51.2109 38.9727L51.6152 37.9883L49.2305 32H50.7363L52.166 36.3594C52.1816 36.4141 52.2168 36.5586 52.2715 36.793H52.3008C52.3203 36.7031 52.3555 36.5625 52.4062 36.3711L53.9062 32H55.2773ZM59.2559 37.666V36.2305C59.3848 36.3477 59.5371 36.4531 59.7129 36.5469C59.8926 36.6406 60.082 36.7207 60.2812 36.7871C60.4805 36.8496 60.6797 36.8984 60.8789 36.9336C61.0781 36.9688 61.2617 36.9863 61.4297 36.9863C62.0156 36.9863 62.4512 36.8887 62.7363 36.6934C63.0254 36.498 63.1699 36.2148 63.1699 35.8438C63.1699 35.6445 63.1211 35.4727 63.0234 35.3281C62.9297 35.1797 62.7969 35.0449 62.625 34.9238C62.4531 34.8027 62.25 34.6875 62.0156 34.5781C61.7852 34.4648 61.5371 34.3477 61.2715 34.2266C60.9863 34.0742 60.7207 33.9199 60.4746 33.7637C60.2285 33.6074 60.0137 33.4355 59.8301 33.248C59.6504 33.0566 59.5078 32.8418 59.4023 32.6035C59.3008 32.3652 59.25 32.0859 59.25 31.7656C59.25 31.3711 59.3379 31.0293 59.5137 30.7402C59.6934 30.4473 59.9277 30.207 60.2168 30.0195C60.5098 29.8281 60.8418 29.6875 61.2129 29.5977C61.584 29.5039 61.9629 29.457 62.3496 29.457C63.2285 29.457 63.8691 29.5566 64.2715 29.7559V31.1328C63.7949 30.7891 63.1816 30.6172 62.4316 30.6172C62.2246 30.6172 62.0176 30.6367 61.8105 30.6758C61.6074 30.7148 61.4238 30.7793 61.2598 30.8691C61.0996 30.959 60.9688 31.0742 60.8672 31.2148C60.7656 31.3555 60.7148 31.5254 60.7148 31.7246C60.7148 31.9121 60.7539 32.0742 60.832 32.2109C60.9102 32.3477 61.0234 32.4727 61.1719 32.5859C61.3242 32.6992 61.5078 32.8105 61.7227 32.9199C61.9414 33.0254 62.1934 33.1406 62.4785 33.2656C62.7715 33.418 63.0469 33.5781 63.3047 33.7461C63.5664 33.9141 63.7949 34.0996 63.9902 34.3027C64.1895 34.5059 64.3457 34.7324 64.459 34.9824C64.5762 35.2285 64.6348 35.5098 64.6348 35.8262C64.6348 36.252 64.5488 36.6113 64.377 36.9043C64.2051 37.1973 63.9727 37.4355 63.6797 37.6191C63.3906 37.8027 63.0566 37.9355 62.6777 38.0176C62.2988 38.0996 61.8984 38.1406 61.4766 38.1406C61.3359 38.1406 61.1621 38.1289 60.9551 38.1055C60.752 38.0859 60.543 38.0547 60.3281 38.0117C60.1133 37.9727 59.9102 37.9238 59.7188 37.8652C59.5273 37.8066 59.373 37.7402 59.2559 37.666ZM68.8418 37.9355C68.5762 38.0684 68.2266 38.1348 67.793 38.1348C66.6289 38.1348 66.0469 37.5762 66.0469 36.459V33.0664H65.0449V32H66.0469V30.6113L67.4062 30.2246V32H68.8418V33.0664H67.4062V36.0664C67.4062 36.4219 67.4707 36.6758 67.5996 36.8281C67.7285 36.9805 67.9434 37.0566 68.2441 37.0566C68.4746 37.0566 68.6738 36.9902 68.8418 36.8574V37.9355ZM72.6035 38.1406C71.6777 38.1406 70.9375 37.8613 70.3828 37.3027C69.832 36.7402 69.5566 35.9961 69.5566 35.0703C69.5566 34.0625 69.8438 33.2754 70.418 32.709C70.9961 32.1426 71.7734 31.8594 72.75 31.8594C73.6875 31.8594 74.418 32.1348 74.9414 32.6855C75.4648 33.2363 75.7266 34 75.7266 34.9766C75.7266 35.9336 75.4434 36.7012 74.877 37.2793C74.3145 37.8535 73.5566 38.1406 72.6035 38.1406ZM72.668 32.9434C72.1367 32.9434 71.7168 33.1289 71.4082 33.5C71.0996 33.8711 70.9453 34.3828 70.9453 35.0352C70.9453 35.6641 71.1016 36.1602 71.4141 36.5234C71.7266 36.8828 72.1445 37.0625 72.668 37.0625C73.2031 37.0625 73.6133 36.8848 73.8984 36.5293C74.1875 36.1738 74.332 35.668 74.332 35.0117C74.332 34.3516 74.1875 33.8418 73.8984 33.4824C73.6133 33.123 73.2031 32.9434 72.668 32.9434ZM80.5957 33.2949C80.4316 33.166 80.1953 33.1016 79.8867 33.1016C79.4844 33.1016 79.1484 33.2832 78.8789 33.6465C78.6094 34.0098 78.4746 34.5039 78.4746 35.1289V38H77.1152V32H78.4746V33.2363H78.498C78.6309 32.8145 78.834 32.4863 79.1074 32.252C79.3848 32.0137 79.6934 31.8945 80.0332 31.8945C80.2793 31.8945 80.4668 31.9316 80.5957 32.0059V33.2949ZM86.5312 35.3691H82.4414C82.457 35.9238 82.627 36.3516 82.9512 36.6523C83.2793 36.9531 83.7285 37.1035 84.2988 37.1035C84.9395 37.1035 85.5273 36.9121 86.0625 36.5293V37.625C85.5156 37.9688 84.793 38.1406 83.8945 38.1406C83.0117 38.1406 82.3184 37.8691 81.8145 37.3262C81.3145 36.7793 81.0645 36.0117 81.0645 35.0234C81.0645 34.0898 81.3398 33.3301 81.8906 32.7441C82.4453 32.1543 83.1328 31.8594 83.9531 31.8594C84.7734 31.8594 85.4082 32.123 85.8574 32.6504C86.3066 33.1777 86.5312 33.9102 86.5312 34.8477V35.3691ZM85.2188 34.4082C85.2148 33.9199 85.0996 33.541 84.873 33.2715C84.6465 32.998 84.334 32.8613 83.9355 32.8613C83.5449 32.8613 83.2129 33.0039 82.9395 33.2891C82.6699 33.5742 82.5039 33.9473 82.4414 34.4082H85.2188Z" fill="url(#paint0_linear_341_3106)"/>
<path d="M15.9375 10.9922C15.9375 11.4219 15.8242 11.8398 15.5977 12.2461C15.3789 12.6523 15.082 13.0352 14.707 13.3945C14.332 13.7461 13.8945 14.0703 13.3945 14.3672C12.8945 14.6562 12.3672 14.9062 11.8125 15.1172C11.8984 15.1016 11.9844 15.0938 12.0703 15.0938C12.1641 15.0938 12.2539 15.0938 12.3398 15.0938C12.9883 15.0938 13.6289 15.1484 14.2617 15.2578C14.9023 15.3672 15.4766 15.5703 15.9844 15.8672C16.4922 16.1562 16.9023 16.5547 17.2148 17.0625C17.5273 17.5703 17.6836 18.2188 17.6836 19.0078C17.6836 19.625 17.5938 20.1758 17.4141 20.6602C17.2422 21.1445 17 21.5742 16.6875 21.9492C16.3828 22.3242 16.0273 22.6484 15.6211 22.9219C15.2148 23.1875 14.7812 23.4141 14.3203 23.6016C13.8594 23.7891 13.3828 23.9375 12.8906 24.0469C12.3984 24.1641 11.918 24.2539 11.4492 24.3164C10.9805 24.3789 10.5312 24.4219 10.1016 24.4453C9.67969 24.4688 9.30469 24.4805 8.97656 24.4805C8.64844 24.4805 8.30859 24.4688 7.95703 24.4453C7.60547 24.4297 7.25391 24.4062 6.90234 24.375C6.55078 24.3438 6.20312 24.3086 5.85938 24.2695C5.52344 24.2305 5.20312 24.1875 4.89844 24.1406C4.17969 24.0391 3.47656 23.9219 2.78906 23.7891L2.90625 9.29297C2.90625 9.12891 2.87891 8.94922 2.82422 8.75391C2.76953 8.55859 2.66406 8.37891 2.50781 8.21484C2.35938 8.05078 2.14844 7.91406 1.875 7.80469C1.60156 7.6875 1.24219 7.62891 0.796875 7.62891V7.19531H8.63672C9.74609 7.19531 10.75 7.24219 11.6484 7.33594C12.5469 7.42969 13.3125 7.61328 13.9453 7.88672C14.5859 8.16016 15.0781 8.54688 15.4219 9.04688C15.7656 9.53906 15.9375 10.1875 15.9375 10.9922ZM12.0234 10.9688C12.0234 10.3594 11.9258 9.85547 11.7305 9.45703C11.5352 9.05859 11.2773 8.74219 10.957 8.50781C10.6367 8.27344 10.2734 8.10938 9.86719 8.01562C9.46094 7.92188 9.05078 7.875 8.63672 7.875C8.21484 7.875 7.86719 7.92188 7.59375 8.01562C7.32812 8.10156 7.11719 8.21875 6.96094 8.36719C6.8125 8.51562 6.71094 8.6875 6.65625 8.88281C6.60156 9.07812 6.57422 9.28516 6.57422 9.50391L6.52734 23.1094C6.79297 23.25 7.09375 23.3711 7.42969 23.4727C7.71875 23.5664 8.0625 23.6523 8.46094 23.7305C8.85938 23.8008 9.30469 23.8359 9.79688 23.8359C10.2266 23.8359 10.6914 23.7617 11.1914 23.6133C11.6914 23.457 12.1562 23.2227 12.5859 22.9102C13.0156 22.5898 13.3711 22.1875 13.6523 21.7031C13.9414 21.2109 14.0859 20.6328 14.0859 19.9688C14.0859 19.4141 14.0156 18.9336 13.875 18.5273C13.7344 18.1133 13.543 17.7617 13.3008 17.4727C13.0586 17.1758 12.7812 16.9336 12.4688 16.7461C12.1562 16.5586 11.8242 16.4141 11.4727 16.3125C11.1289 16.2031 10.7773 16.1289 10.418 16.0898C10.0664 16.0508 9.73047 16.0312 9.41016 16.0312C9.16016 16.0312 8.92578 16.043 8.70703 16.0664C8.48828 16.082 8.29688 16.0977 8.13281 16.1133C7.9375 16.1445 7.76172 16.1719 7.60547 16.1953L7.41797 15.7383C8.27734 15.6367 9.04297 15.3984 9.71484 15.0234C10.0039 14.8672 10.2852 14.6719 10.5586 14.4375C10.832 14.2031 11.0781 13.9219 11.2969 13.5938C11.5156 13.2656 11.6914 12.8867 11.8242 12.457C11.957 12.0195 12.0234 11.5234 12.0234 10.9688ZM19.3594 2.42578H25.1367V23.0859H33.6562C33.3594 23.375 33.1094 23.7109 32.9062 24.0938C32.7031 24.4766 32.5391 24.8438 32.4141 25.1953C32.2734 25.6094 32.1602 26.0273 32.0742 26.4492L31.5234 26.5664C31.5625 26.4258 31.5859 26.2852 31.5938 26.1445C31.6094 26.0039 31.6172 25.875 31.6172 25.7578C31.6172 25.2422 31.4531 24.8594 31.125 24.6094C30.8047 24.3594 30.3438 24.1875 29.7422 24.0938C29.1406 24.0078 28.4062 23.9727 27.5391 23.9883C26.6719 23.9961 25.6953 24 24.6094 24H19.3594V23.5664C19.7734 23.5664 20.1133 23.5273 20.3789 23.4492C20.6445 23.3633 20.8555 23.25 21.0117 23.1094C21.168 22.9609 21.2734 22.793 21.3281 22.6055C21.3906 22.418 21.4219 22.2188 21.4219 22.0078V4.39453C21.4219 4.23828 21.3906 4.07031 21.3281 3.89062C21.2734 3.71094 21.168 3.54688 21.0117 3.39844C20.8633 3.24219 20.6562 3.11328 20.3906 3.01172C20.125 2.91016 19.7812 2.85938 19.3594 2.85938V2.42578ZM45.3398 7.19531H53.1914V7.62891C52.7695 7.62891 52.4219 7.67578 52.1484 7.76953C51.8828 7.85547 51.6719 7.97656 51.5156 8.13281C51.3672 8.28125 51.2656 8.45312 51.2109 8.64844C51.1562 8.84375 51.1289 9.05078 51.1289 9.26953V21.9375C51.1289 22.0938 51.1523 22.2656 51.1992 22.4531C51.2539 22.6406 51.3516 22.8164 51.4922 22.9805C51.6406 23.1445 51.8477 23.2852 52.1133 23.4023C52.3867 23.5117 52.7461 23.5664 53.1914 23.5664V24H47.4141V22.2422C47.1328 22.5469 46.8242 22.8359 46.4883 23.1094C46.1523 23.375 45.7773 23.6094 45.3633 23.8125C44.957 24.0156 44.5117 24.1758 44.0273 24.293C43.543 24.418 43.0156 24.4805 42.4453 24.4805C41.7422 24.4805 41.0391 24.4062 40.3359 24.2578C39.6328 24.1094 38.957 23.8867 38.3086 23.5898C37.668 23.293 37.0703 22.9258 36.5156 22.4883C35.9609 22.043 35.4766 21.5312 35.0625 20.9531C34.6562 20.3672 34.3359 19.7109 34.1016 18.9844C33.8672 18.25 33.75 17.4492 33.75 16.582C33.75 15.6445 33.8555 14.7812 34.0664 13.9922C34.2852 13.1953 34.5703 12.4727 34.9219 11.8242C35.2812 11.168 35.6875 10.582 36.1406 10.0664C36.5938 9.54297 37.0586 9.08203 37.5352 8.68359C38.6523 7.74609 39.918 6.99609 41.332 6.43359L41.6484 6.71484C41.6172 6.73828 41.5039 6.83984 41.3086 7.01953C41.1133 7.19922 40.875 7.46484 40.5938 7.81641C40.3125 8.16797 40.0117 8.61328 39.6914 9.15234C39.3711 9.68359 39.0742 10.3203 38.8008 11.0625C38.5273 11.8047 38.3008 12.6562 38.1211 13.6172C37.9414 14.5781 37.8516 15.6562 37.8516 16.8516C37.8516 17.9844 37.9727 18.9766 38.2148 19.8281C38.4648 20.6719 38.8086 21.3789 39.2461 21.9492C39.6836 22.5117 40.1992 22.9336 40.793 23.2148C41.3945 23.4961 42.0469 23.6367 42.75 23.6367C43.3828 23.6367 43.9805 23.5156 44.543 23.2734C45.1055 23.0312 45.5977 22.6914 46.0195 22.2539C46.4492 21.8164 46.7891 21.2969 47.0391 20.6953C47.2891 20.0859 47.4141 19.418 47.4141 18.6914V9.26953C47.4141 9.11328 47.3867 8.94141 47.332 8.75391C47.2852 8.55859 47.1875 8.37891 47.0391 8.21484C46.8984 8.05078 46.6914 7.91406 46.418 7.80469C46.1445 7.6875 45.7852 7.62891 45.3398 7.62891V7.19531ZM70.0781 10.9453C69.8516 10.4531 69.5547 10.0156 69.1875 9.63281C68.8281 9.25 68.4219 8.92578 67.9688 8.66016C67.5234 8.39453 67.0508 8.19531 66.5508 8.0625C66.0508 7.92188 65.5547 7.85156 65.0625 7.85156C64.5234 7.85156 64.0156 7.94922 63.5391 8.14453C63.0625 8.33203 62.6172 8.59375 62.2031 8.92969C61.7969 9.25781 61.4258 9.65234 61.0898 10.1133C60.7539 10.5664 60.457 11.0586 60.1992 11.5898C59.9492 12.1133 59.7422 12.6641 59.5781 13.2422C59.4141 13.8203 59.2969 14.3984 59.2266 14.9766H69.2109C69.0469 15.3047 68.9219 15.6523 68.8359 16.0195C68.75 16.3789 68.6875 16.7148 68.6484 17.0273C68.6016 17.3945 68.5742 17.75 68.5664 18.0938L68.1797 18.1641C68.0781 17.6641 67.9531 17.25 67.8047 16.9219C67.6562 16.5938 67.4336 16.3359 67.1367 16.1484C66.8398 15.9609 66.4414 15.832 65.9414 15.7617C65.4492 15.6836 64.8047 15.6445 64.0078 15.6445H59.1562V16.1484C59.1562 16.7812 59.2305 17.4023 59.3789 18.0117C59.5273 18.6211 59.7383 19.2031 60.0117 19.7578C60.2852 20.3047 60.6211 20.8086 61.0195 21.2695C61.418 21.7305 61.8633 22.1328 62.3555 22.4766C62.8477 22.8125 63.3867 23.0742 63.9727 23.2617C64.5586 23.4492 65.1797 23.543 65.8359 23.543C66.4297 23.543 66.9531 23.4883 67.4062 23.3789C67.8594 23.2617 68.25 23.1172 68.5781 22.9453C68.9141 22.7734 69.1953 22.5859 69.4219 22.3828C69.6484 22.1719 69.8359 21.9727 69.9844 21.7852C70.1328 21.5977 70.2422 21.4336 70.3125 21.293C70.3906 21.1445 70.4492 21.0469 70.4883 21L70.3008 22.6523C70.1211 22.9023 69.8594 23.1445 69.5156 23.3789C69.1719 23.6055 68.7617 23.8125 68.2852 24C67.8164 24.1797 67.2891 24.3242 66.7031 24.4336C66.1172 24.543 65.4844 24.5977 64.8047 24.5977C63.5 24.5977 62.2656 24.4062 61.1016 24.0234C59.9453 23.6406 58.9258 23.0977 58.043 22.3945C57.168 21.6914 56.4688 20.8438 55.9453 19.8516C55.4297 18.8516 55.1641 17.7383 55.1484 16.5117C55.1719 15.2461 55.3906 14.1094 55.8047 13.1016C56.2266 12.0859 56.7852 11.2031 57.4805 10.4531C58.1836 9.69531 59 9.07031 59.9297 8.57812C60.8594 8.07812 61.8516 7.70703 62.9062 7.46484C63.4609 7.33203 64.0977 7.24609 64.8164 7.20703C65.5352 7.16797 66.2578 7.14844 66.9844 7.14844C67.6875 7.14844 68.3477 7.15625 68.9648 7.17188C69.5898 7.1875 70.1133 7.19531 70.5352 7.19531C70.4492 7.5625 70.3867 7.89062 70.3477 8.17969C70.3164 8.46094 70.3008 8.72656 70.3008 8.97656C70.3008 9.32812 70.3281 9.65625 70.3828 9.96094C70.4375 10.2578 70.5117 10.5781 70.6055 10.9219L70.0781 10.9453ZM80.9414 24.5742C79.8086 24.5742 78.7383 24.3828 77.7305 24C76.7305 23.6172 75.8516 23.082 75.0938 22.3945C74.3438 21.6992 73.75 20.875 73.3125 19.9219C72.875 18.9688 72.6562 17.9219 72.6562 16.7812C72.6562 15.7109 72.8789 14.6992 73.3242 13.7461C73.7695 12.793 74.4062 11.9219 75.2344 11.1328C76.0625 10.3359 77.0664 9.63672 78.2461 9.03516C79.4258 8.42578 80.7461 7.93359 82.207 7.55859L81.3164 6.9375C80.7617 6.5625 80.3633 6.12109 80.1211 5.61328C79.8789 5.09766 79.7578 4.57031 79.7578 4.03125C79.7578 3.64063 79.8125 3.25391 79.9219 2.87109C80.0391 2.48828 80.1992 2.13281 80.4023 1.80469C80.6055 1.47656 80.8438 1.1875 81.1172 0.9375C81.3906 0.679688 81.6914 0.480469 82.0195 0.339844L82.3008 0.773438C81.7773 1.14844 81.5156 1.57813 81.5156 2.0625C81.5156 2.50781 81.7188 2.98438 82.125 3.49219C82.5312 4 83.1211 4.53125 83.8945 5.08594C85.1992 6.03906 86.3438 6.9375 87.3281 7.78125C88.3203 8.61719 89.1484 9.44922 89.8125 10.2773C90.4844 11.1055 90.9922 11.9492 91.3359 12.8086C91.6797 13.6602 91.8633 14.582 91.8867 15.5742C91.8867 16.582 91.7422 17.5039 91.4531 18.3398C91.1641 19.168 90.7656 19.918 90.2578 20.5898C89.75 21.2539 89.1484 21.8359 88.4531 22.3359C87.7578 22.8359 87.0039 23.2539 86.1914 23.5898C85.3789 23.918 84.5273 24.1641 83.6367 24.3281C82.7461 24.4922 81.8477 24.5742 80.9414 24.5742ZM87.9258 16.5352C87.9258 15.7539 87.8398 15.0156 87.668 14.3203C87.5039 13.6172 87.2305 12.9297 86.8477 12.2578C86.4727 11.5859 85.9727 10.918 85.3477 10.2539C84.7305 9.58984 83.9648 8.90625 83.0508 8.20312C82.4336 8.33594 81.8477 8.54297 81.293 8.82422C80.7383 9.09766 80.2227 9.43359 79.7461 9.83203C79.2695 10.2227 78.8359 10.668 78.4453 11.168C78.0625 11.6602 77.7344 12.1875 77.4609 12.75C77.1953 13.3047 76.9883 13.8867 76.8398 14.4961C76.6914 15.0977 76.6172 15.707 76.6172 16.3242C76.6172 16.9336 76.6836 17.5352 76.8164 18.1289C76.9492 18.7148 77.1367 19.2773 77.3789 19.8164C77.6289 20.3477 77.9336 20.8398 78.293 21.293C78.6523 21.7461 79.0547 22.1367 79.5 22.4648C79.9531 22.793 80.4453 23.0508 80.9766 23.2383C81.5156 23.4258 82.0859 23.5195 82.6875 23.5195C83.4141 23.5195 84.0938 23.3516 84.7266 23.0156C85.3672 22.6719 85.9219 22.1953 86.3906 21.5859C86.8672 20.9688 87.2422 20.2344 87.5156 19.3828C87.7891 18.5234 87.9258 17.5742 87.9258 16.5352ZM111.246 23.8594C110.535 24.1484 109.895 24.3438 109.324 24.4453C108.754 24.5469 108.25 24.5977 107.812 24.5977C107.266 24.5977 106.719 24.4531 106.172 24.1641C105.633 23.875 105.109 23.5078 104.602 23.0625C104.102 22.6094 103.629 22.1094 103.184 21.5625C102.738 21.0156 102.336 20.4805 101.977 19.957C101.625 19.4336 101.324 18.957 101.074 18.5273C100.832 18.0977 100.66 17.7773 100.559 17.5664C101.551 17.4023 102.438 17.1055 103.219 16.6758C103.555 16.4883 103.883 16.2656 104.203 16.0078C104.523 15.75 104.809 15.4453 105.059 15.0938C105.309 14.7422 105.508 14.3398 105.656 13.8867C105.812 13.4336 105.891 12.918 105.891 12.3398C105.891 11.8164 105.824 11.3438 105.691 10.9219C105.559 10.4922 105.383 10.1133 105.164 9.78516C104.945 9.44922 104.691 9.16406 104.402 8.92969C104.113 8.6875 103.812 8.48828 103.5 8.33203C103.188 8.17578 102.871 8.0625 102.551 7.99219C102.238 7.91406 101.945 7.875 101.672 7.875C101.258 7.875 100.914 7.91797 100.641 8.00391C100.375 8.08984 100.164 8.20703 100.008 8.35547C99.8516 8.49609 99.7422 8.66406 99.6797 8.85938C99.625 9.04688 99.5977 9.24609 99.5977 9.45703V21.9375C99.5977 22.0938 99.6211 22.2656 99.668 22.4531C99.7227 22.6406 99.8203 22.8164 99.9609 22.9805C100.109 23.1445 100.32 23.2852 100.594 23.4023C100.867 23.5117 101.227 23.5664 101.672 23.5664V24H93.8203V23.5664C94.2344 23.5664 94.5742 23.5273 94.8398 23.4492C95.1055 23.3633 95.3164 23.25 95.4727 23.1094C95.6289 22.9609 95.7344 22.793 95.7891 22.6055C95.8516 22.418 95.8828 22.2188 95.8828 22.0078V9.16406C95.8828 9.00781 95.8516 8.83984 95.7891 8.66016C95.7344 8.48047 95.6289 8.31641 95.4727 8.16797C95.3242 8.01172 95.1172 7.88281 94.8516 7.78125C94.5859 7.67969 94.2422 7.62891 93.8203 7.62891V7.19531H101.672C102.781 7.19531 103.828 7.29297 104.812 7.48828C105.797 7.68359 106.656 7.99219 107.391 8.41406C108.133 8.82812 108.719 9.36328 109.148 10.0195C109.586 10.668 109.805 11.4492 109.805 12.3633C109.805 13.1367 109.645 13.8125 109.324 14.3906C109.012 14.9688 108.594 15.4648 108.07 15.8789C107.555 16.293 106.965 16.6367 106.301 16.9102C105.645 17.1758 104.973 17.3867 104.285 17.543C104.551 18.0273 104.844 18.5117 105.164 18.9961C105.484 19.4805 105.82 19.9453 106.172 20.3906C106.523 20.8359 106.875 21.25 107.227 21.6328C107.586 22.0156 107.934 22.3516 108.27 22.6406C108.605 22.9219 108.918 23.1445 109.207 23.3086C109.504 23.4648 109.766 23.543 109.992 23.543C110.102 23.543 110.25 23.5312 110.438 23.5078C110.633 23.4844 110.844 23.4258 111.07 23.332L111.246 23.8594ZM131.73 23.3789C131.02 23.668 130.371 23.8633 129.785 23.9648C129.199 24.0664 128.672 24.1172 128.203 24.1172C127.828 24.1172 127.504 24.0938 127.23 24.0469C126.957 24.0078 126.723 23.957 126.527 23.8945C126.301 23.8242 126.105 23.7461 125.941 23.6602C125.598 23.4648 125.297 23.2109 125.039 22.8984C124.781 22.5859 124.547 22.25 124.336 21.8906C124.133 21.5312 123.949 21.1602 123.785 20.7773C123.621 20.3945 123.461 20.0352 123.305 19.6992L123.012 19.0781C122.223 19.3047 121.484 19.5664 120.797 19.8633C120.117 20.1523 119.512 20.4414 118.98 20.7305C118.449 21.0117 118 21.2734 117.633 21.5156C117.273 21.75 117.02 21.9219 116.871 22.0312C116.582 22.3516 116.258 22.6367 115.898 22.8867C115.539 23.1367 115.137 23.3516 114.691 23.5312C114.246 23.7031 113.75 23.8359 113.203 23.9297C112.656 24.0234 112.055 24.0703 111.398 24.0703L111.281 23.5664C112.039 23.4414 112.691 23.1992 113.238 22.8398C113.793 22.4805 114.27 22.0391 114.668 21.5156C115.066 20.9844 115.406 20.3906 115.688 19.7344C115.969 19.0703 116.219 18.3711 116.438 17.6367C116.562 17.2148 116.727 16.7695 116.93 16.3008C117.141 15.832 117.391 15.3789 117.68 14.9414C117.977 14.4961 118.312 14.082 118.688 13.6992C119.07 13.3086 119.504 12.9805 119.988 12.7148C119.855 12.4648 119.723 12.2109 119.59 11.9531C119.465 11.6875 119.344 11.4219 119.227 11.1562C119.062 10.8438 118.898 10.5 118.734 10.125C118.57 9.74219 118.375 9.39062 118.148 9.07031C117.93 8.74219 117.668 8.46875 117.363 8.25C117.066 8.03125 116.695 7.92188 116.25 7.92188C115.938 7.92188 115.629 7.95703 115.324 8.02734C115.027 8.09766 114.742 8.18359 114.469 8.28516L114.305 7.80469C114.984 7.57813 115.672 7.38672 116.367 7.23047C117.07 7.06641 117.766 6.98438 118.453 6.98438C118.781 6.98438 119.105 7.00781 119.426 7.05469C119.746 7.09375 120.055 7.16797 120.352 7.27734C120.609 7.37109 120.859 7.52734 121.102 7.74609C121.344 7.95703 121.574 8.21094 121.793 8.50781C122.012 8.79688 122.215 9.10938 122.402 9.44531C122.598 9.78125 122.777 10.1172 122.941 10.4531C123.113 10.7891 123.266 11.1094 123.398 11.4141C123.539 11.7109 123.66 11.9688 123.762 12.1875C124.449 13.6641 125.133 15.1445 125.812 16.6289C126.492 18.1055 127.223 19.5625 128.004 21C128.145 21.2578 128.293 21.5117 128.449 21.7617C128.613 22.0117 128.793 22.2344 128.988 22.4297C129.191 22.625 129.414 22.7812 129.656 22.8984C129.898 23.0156 130.172 23.0703 130.477 23.0625C130.586 23.0625 130.734 23.0508 130.922 23.0273C131.117 23.0039 131.328 22.9453 131.555 22.8516L131.73 23.3789ZM120.645 14.0625C120.441 14.3906 120.254 14.7305 120.082 15.082C119.918 15.4336 119.766 15.793 119.625 16.1602C119.484 16.5195 119.355 16.8789 119.238 17.2383C119.121 17.5977 119.004 17.9414 118.887 18.2695C118.77 18.6289 118.641 18.9805 118.5 19.3242C118.367 19.6602 118.215 19.9883 118.043 20.3086C118.629 19.9648 119.316 19.6055 120.105 19.2305C120.895 18.8555 121.738 18.5352 122.637 18.2695L120.645 14.0625ZM138.645 16.8984C138.863 16.6797 139.152 16.4336 139.512 16.1602C139.871 15.8789 140.305 15.6172 140.812 15.375C141.328 15.1328 141.914 14.9297 142.57 14.7656C143.234 14.6016 143.973 14.5195 144.785 14.5195C145.371 14.5195 145.945 14.5938 146.508 14.7422C147.07 14.8828 147.57 15.1133 148.008 15.4336C148.453 15.7539 148.812 16.1719 149.086 16.6875C149.359 17.1953 149.496 17.8164 149.496 18.5508C149.496 19.1523 149.367 19.7188 149.109 20.25C148.852 20.7812 148.496 21.2734 148.043 21.7266C147.59 22.1719 147.059 22.5742 146.449 22.9336C145.84 23.2852 145.184 23.5859 144.48 23.8359C143.785 24.0781 143.059 24.2656 142.301 24.3984C141.543 24.5312 140.789 24.5977 140.039 24.5977C139.219 24.5977 138.434 24.5156 137.684 24.3516C136.934 24.1875 136.23 23.9492 135.574 23.6367C134.918 23.3164 134.32 22.9258 133.781 22.4648C133.25 21.9961 132.793 21.4648 132.41 20.8711C132.027 20.2695 131.73 19.6055 131.52 18.8789C131.309 18.1445 131.203 17.3555 131.203 16.5117C131.219 15.6602 131.336 14.8672 131.555 14.1328C131.781 13.3984 132.082 12.7227 132.457 12.1055C132.84 11.4883 133.289 10.9297 133.805 10.4297C134.328 9.92188 134.891 9.47656 135.492 9.09375C136.102 8.70312 136.738 8.375 137.402 8.10938C138.074 7.83594 138.754 7.62109 139.441 7.46484C139.723 7.39453 140.027 7.33984 140.355 7.30078C140.691 7.26172 141.035 7.23047 141.387 7.20703C141.746 7.18359 142.113 7.16797 142.488 7.16016C142.863 7.15234 143.238 7.14844 143.613 7.14844C144.324 7.14844 145 7.15625 145.641 7.17188C146.289 7.1875 146.828 7.19531 147.258 7.19531C147.172 7.5625 147.109 7.89062 147.07 8.17969C147.039 8.46094 147.023 8.72656 147.023 8.97656C147.023 9.32812 147.051 9.65625 147.105 9.96094C147.16 10.2578 147.238 10.5781 147.34 10.9219L146.812 10.9453C146.578 10.4453 146.273 10.0078 145.898 9.63281C145.523 9.25 145.109 8.93359 144.656 8.68359C144.203 8.42578 143.719 8.23438 143.203 8.10938C142.695 7.98437 142.191 7.92188 141.691 7.92188C140.871 7.92188 140.141 8.05469 139.5 8.32031C138.867 8.58594 138.309 8.94141 137.824 9.38672C137.348 9.82422 136.941 10.3281 136.605 10.8984C136.277 11.4688 136.008 12.0625 135.797 12.6797C135.594 13.2891 135.445 13.8984 135.352 14.5078C135.258 15.1172 135.211 15.6797 135.211 16.1953C135.211 17.25 135.363 18.2266 135.668 19.125C135.973 20.0156 136.391 20.7891 136.922 21.4453C137.461 22.0938 138.094 22.6016 138.82 22.9688C139.555 23.3359 140.352 23.5195 141.211 23.5195C141.82 23.5195 142.355 23.4492 142.816 23.3086C143.277 23.1602 143.672 22.9688 144 22.7344C144.336 22.5 144.613 22.2305 144.832 21.9258C145.059 21.6133 145.234 21.293 145.359 20.9648C145.492 20.6367 145.586 20.3086 145.641 19.9805C145.695 19.6523 145.723 19.3516 145.723 19.0781C145.723 18.625 145.648 18.1953 145.5 17.7891C145.352 17.3828 145.137 17.0273 144.855 16.7227C144.574 16.418 144.227 16.1797 143.812 16.0078C143.406 15.8281 142.941 15.7383 142.418 15.7383C141.957 15.7383 141.531 15.8008 141.141 15.9258C140.75 16.043 140.402 16.1797 140.098 16.3359C139.801 16.4922 139.547 16.6523 139.336 16.8164C139.133 16.9805 138.984 17.1016 138.891 17.1797L138.645 16.8984ZM151.289 15.5977C151.289 14.9492 151.379 14.2852 151.559 13.6055C151.738 12.918 152.004 12.2578 152.355 11.625C152.707 10.9844 153.141 10.3828 153.656 9.82031C154.18 9.25 154.777 8.75391 155.449 8.33203C156.129 7.91016 156.887 7.57813 157.723 7.33594C158.559 7.08594 159.465 6.96094 160.441 6.96094C161.449 6.96094 162.375 7.07422 163.219 7.30078C164.07 7.52734 164.836 7.83984 165.516 8.23828C166.203 8.63672 166.805 9.10938 167.32 9.65625C167.844 10.2031 168.277 10.7969 168.621 11.4375C168.973 12.0703 169.234 12.7422 169.406 13.4531C169.586 14.1641 169.676 14.8789 169.676 15.5977C169.676 16.2852 169.586 16.9805 169.406 17.6836C169.234 18.3867 168.973 19.0664 168.621 19.7227C168.277 20.3789 167.844 20.9961 167.32 21.5742C166.805 22.1523 166.203 22.6562 165.516 23.0859C164.836 23.5156 164.07 23.8555 163.219 24.1055C162.375 24.3555 161.449 24.4805 160.441 24.4805C159.449 24.4805 158.535 24.3555 157.699 24.1055C156.863 23.8633 156.105 23.5273 155.426 23.0977C154.754 22.668 154.16 22.1641 153.645 21.5859C153.129 21.0078 152.695 20.3906 152.344 19.7344C151.992 19.0781 151.727 18.3984 151.547 17.6953C151.375 16.9844 151.289 16.2852 151.289 15.5977ZM155.32 15.5508C155.32 16.2148 155.355 16.8711 155.426 17.5195C155.504 18.168 155.625 18.7891 155.789 19.3828C155.953 19.9688 156.164 20.5156 156.422 21.0234C156.688 21.5234 157.008 21.9609 157.383 22.3359C157.758 22.7109 158.191 23.0078 158.684 23.2266C159.176 23.4453 159.734 23.5586 160.359 23.5664C160.984 23.5664 161.551 23.457 162.059 23.2383C162.566 23.0117 163.016 22.707 163.406 22.3242C163.797 21.9414 164.133 21.4922 164.414 20.9766C164.695 20.4609 164.93 19.9141 165.117 19.3359C165.305 18.75 165.441 18.1445 165.527 17.5195C165.621 16.8867 165.676 16.2695 165.691 15.668C165.691 15.0508 165.652 14.4297 165.574 13.8047C165.504 13.1797 165.383 12.582 165.211 12.0117C165.047 11.4336 164.832 10.8945 164.566 10.3945C164.301 9.89453 163.977 9.46094 163.594 9.09375C163.211 8.71875 162.77 8.42578 162.27 8.21484C161.77 8.00391 161.199 7.89844 160.559 7.89844C159.934 7.89844 159.371 7.99219 158.871 8.17969C158.379 8.36719 157.938 8.63281 157.547 8.97656C157.164 9.32031 156.832 9.72656 156.551 10.1953C156.277 10.6641 156.051 11.1836 155.871 11.7539C155.691 12.3242 155.555 12.9297 155.461 13.5703C155.375 14.2109 155.328 14.8711 155.32 15.5508ZM171.656 7.19531H177.539L186.41 17.9766V9.16406C186.41 9.00781 186.379 8.83984 186.316 8.66016C186.262 8.48047 186.156 8.31641 186 8.16797C185.852 8.01172 185.645 7.88281 185.379 7.78125C185.113 7.67969 184.77 7.62891 184.348 7.62891V7.19531H189.539V7.62891C189.109 7.62891 188.762 7.67578 188.496 7.76953C188.23 7.85547 188.02 7.97656 187.863 8.13281C187.715 8.28125 187.613 8.45312 187.559 8.64844C187.504 8.84375 187.477 9.05078 187.477 9.26953V24H186.41L174.773 9.96094V21.9375C174.773 22.0938 174.797 22.2656 174.844 22.4531C174.898 22.6406 174.996 22.8164 175.137 22.9805C175.285 23.1445 175.492 23.2852 175.758 23.4023C176.031 23.5117 176.391 23.5664 176.836 23.5664V24H171.656V23.5664C172.078 23.5664 172.422 23.5234 172.688 23.4375C172.961 23.3438 173.172 23.2227 173.32 23.0742C173.477 22.9258 173.582 22.7539 173.637 22.5586C173.691 22.3633 173.719 22.1562 173.719 21.9375V8.68359C173.531 8.47266 173.359 8.30078 173.203 8.16797C173.047 8.03516 172.887 7.92969 172.723 7.85156C172.566 7.76563 172.402 7.70703 172.23 7.67578C172.059 7.64453 171.867 7.62891 171.656 7.62891V7.19531Z" fill="url(#paint1_linear_341_3106)"/>
<defs>
<linearGradient id="paint0_linear_341_3106" x1="43.5" y1="24" x2="43.5" y2="42" gradientUnits="userSpaceOnUse">
<stop stop-color="#5259FF"/>
<stop offset="1" stop-color="#333BF4"/>
</linearGradient>
<linearGradient id="paint1_linear_341_3106" x1="95.5" y1="1" x2="95.5" y2="32" gradientUnits="userSpaceOnUse">
<stop stop-color="#5259FF"/>
<stop offset="1" stop-color="#333BF4"/>
</linearGradient>
</defs>
</svg>
