<svg width="168" height="144" viewBox="0 0 168 144" fill="none" xmlns="http://www.w3.org/2000/svg">
<g filter="url(#filter0_d_836_6226)">
<path fill-rule="evenodd" clip-rule="evenodd" d="M71.6406 27.4421C82.0859 21.4488 87.1719 11.5141 93.2285 0C96.3184 3.29359 97.9863 11.3926 97.3027 22.7177C126.41 20.8414 144.854 36.9989 168 12.7019C158.047 50.6457 122.117 29.0889 107.105 32.396C130.279 34.9876 136.855 47.622 163.543 43.1406C154.355 54.0607 134.025 51.847 116.908 44.153C119.93 52.36 150.855 57.6648 144.553 82.1642C138.592 72.054 133 65.8448 127.75 63.1586C138.564 81.6243 137.717 98.4567 127.627 116.855C125.398 120.904 122.678 124.589 119.355 127.775C123.977 117.692 126.219 108.297 124.25 100.13C122.377 107.15 87.3633 175.397 106.053 119.487C68.7285 155.69 32.4023 118.839 0 144C10.8145 93.9618 69.6992 113.548 91.3828 90.3577C95.8398 85.5793 97.4531 79.1136 95.5391 74.4567C89.9609 60.9044 70.4238 64.8864 63.3418 73.1609C58.9805 79.7885 50.5312 87.1586 43.5996 78.9516C42.4648 77.6153 41.8223 75.901 41.6445 73.8493C45.1445 75.3206 48.6445 75.8875 52.1445 74.2002L49.3418 71.0956C53.0742 70.0562 57.2441 71.2171 60.5391 67.829L72.7891 59.8785C75.127 58.1777 69.877 57.0844 57.3945 56.234C56.3418 58.9201 56.8203 61.3768 59.8418 63.4961C56.2598 63.9685 53.1562 63.0236 50.7363 60.0405C49.3145 61.1339 49.5195 61.9033 53.334 67.883C49.9023 68.0315 46.4707 66.6817 43.0391 64.5354C42.2461 67.2621 43.4082 69.9887 43.5996 72.7154C41.0977 72 38.8008 70.8256 36.7363 69.1788C34.6582 67.5186 32.7852 65.3993 31.1445 62.8076C30.0098 60.27 30.0234 58.3667 30.8984 56.9494C31.4316 56.072 32.293 55.3836 33.4277 54.8301C37.666 52.7649 39.7988 53.0079 44.7617 49.7413C49.4512 46.6637 54.2363 42.9786 58.3106 38.0112C64.9004 29.9663 64.7227 31.4106 71.6406 27.4421ZM70.6699 39.9145C69.043 40.5759 68.9199 41.3588 66.6777 41.9663C66.0078 42.1417 64.832 43.1406 64.4629 43.721C63.3145 45.5703 67.498 46.5557 68.7559 44.342C69.0703 43.802 70.4785 41.2373 70.5879 40.9269C70.6973 40.6029 70.9844 40.3465 70.7656 39.982C70.7383 39.982 70.7246 39.901 70.6699 39.9145Z" fill="white"/>
</g>
<defs>
<filter id="filter0_d_836_6226" x="-4" y="-4" width="176" height="152" filterUnits="userSpaceOnUse" color-interpolation-filters="sRGB">
<feFlood flood-opacity="0" result="BackgroundImageFix"/>
<feColorMatrix in="SourceAlpha" type="matrix" values="0 0 0 0 0 0 0 0 0 0 0 0 0 0 0 0 0 0 127 0" result="hardAlpha"/>
<feOffset/>
<feGaussianBlur stdDeviation="2"/>
<feComposite in2="hardAlpha" operator="out"/>
<feColorMatrix type="matrix" values="0 0 0 0 0 0 0 0 0 0 0 0 0 0 0 0 0 0 0.25 0"/>
<feBlend mode="normal" in2="BackgroundImageFix" result="effect1_dropShadow_836_6226"/>
<feBlend mode="normal" in="SourceGraphic" in2="effect1_dropShadow_836_6226" result="shape"/>
</filter>
</defs>
</svg>
