<svg width="100" height="24" viewBox="0 0 100 24" fill="none" xmlns="http://www.w3.org/2000/svg">
<g clip-path="url(#clip0_550_6788)">
<g clip-path="url(#clip1_550_6788)">
<path d="M4 18C4 15.7909 5.79086 14 8 14H16C18.2091 14 20 15.7909 20 18V18C20 19.1046 19.1046 20 18 20H6C4.89543 20 4 19.1046 4 18V18Z" stroke="#5259FF" stroke-width="1.5" stroke-linejoin="round"/>
<circle cx="12" cy="7" r="3" stroke="#5259FF" stroke-width="1.5"/>
</g>
<path d="M47.7373 18H46.124V11.6562C46.124 11.1367 46.1559 10.501 46.2197 9.74902H46.1924C46.0921 10.1774 46.0033 10.485 45.9258 10.6719L43 18H41.8789L38.9463 10.7266C38.8643 10.5124 38.7777 10.1865 38.6865 9.74902H38.6592C38.6956 10.141 38.7139 10.7812 38.7139 11.6699V18H37.21V8.19727H39.5L42.0771 14.7256C42.2731 15.2269 42.4007 15.6006 42.46 15.8467H42.4941C42.6628 15.3317 42.7995 14.9489 42.9043 14.6982L45.5293 8.19727H47.7373V18ZM50.7793 9.53027C50.5195 9.53027 50.2962 9.44596 50.1094 9.27734C49.9271 9.10872 49.8359 8.89453 49.8359 8.63477C49.8359 8.375 49.9271 8.15853 50.1094 7.98535C50.2962 7.81217 50.5195 7.72559 50.7793 7.72559C51.0482 7.72559 51.276 7.81217 51.4629 7.98535C51.6497 8.15853 51.7432 8.375 51.7432 8.63477C51.7432 8.88086 51.6497 9.09277 51.4629 9.27051C51.276 9.44368 51.0482 9.53027 50.7793 9.53027ZM51.5654 18H49.9795V11H51.5654V18ZM62.5098 17.6787C61.9492 18.0023 61.2861 18.1641 60.5205 18.1641C59.4814 18.1641 58.6429 17.8405 58.0049 17.1934C57.3669 16.5417 57.0479 15.6986 57.0479 14.6641C57.0479 13.5111 57.3896 12.5859 58.0732 11.8887C58.7614 11.1868 59.6797 10.8359 60.8281 10.8359C61.4661 10.8359 62.029 10.9476 62.5166 11.1709V12.6475C62.029 12.2829 61.5094 12.1006 60.958 12.1006C60.2881 12.1006 59.7389 12.3285 59.3105 12.7842C58.8822 13.2354 58.668 13.8278 58.668 14.5615C58.668 15.2861 58.8685 15.8581 59.2695 16.2773C59.6751 16.6966 60.2174 16.9062 60.8965 16.9062C61.4661 16.9062 62.0039 16.7035 62.5098 16.2979V17.6787ZM70.1934 18H68.6074V16.8926H68.5801C68.1198 17.7402 67.4043 18.1641 66.4336 18.1641C64.7793 18.1641 63.9521 17.1706 63.9521 15.1836V11H65.5381V15.0195C65.5381 16.2773 66.0234 16.9062 66.9941 16.9062C67.4635 16.9062 67.8486 16.7331 68.1494 16.3867C68.4548 16.0404 68.6074 15.5869 68.6074 15.0264V11H70.1934V18ZM78.1914 14.9307H73.4199C73.4382 15.5778 73.6364 16.0768 74.0146 16.4277C74.3975 16.7786 74.9215 16.9541 75.5869 16.9541C76.3343 16.9541 77.0202 16.7308 77.6445 16.2842V17.5625C77.0065 17.9635 76.1634 18.1641 75.1152 18.1641C74.0853 18.1641 73.2764 17.8473 72.6885 17.2139C72.1051 16.5758 71.8135 15.6803 71.8135 14.5273C71.8135 13.4382 72.1348 12.5518 72.7773 11.8682C73.4245 11.18 74.2266 10.8359 75.1836 10.8359C76.1406 10.8359 76.8812 11.1436 77.4053 11.7588C77.9294 12.374 78.1914 13.2285 78.1914 14.3223V14.9307ZM76.6602 13.8096C76.6556 13.2399 76.5212 12.7979 76.2568 12.4834C75.9925 12.1644 75.6279 12.0049 75.1631 12.0049C74.7074 12.0049 74.32 12.1712 74.001 12.5039C73.6865 12.8366 73.4928 13.2718 73.4199 13.8096H76.6602ZM85.9365 18H84.3506V14.0557C84.3506 12.7477 83.888 12.0938 82.9629 12.0938C82.4798 12.0938 82.0811 12.276 81.7666 12.6406C81.4521 13.0007 81.2949 13.4564 81.2949 14.0078V18H79.7021V11H81.2949V12.1621H81.3223C81.8464 11.278 82.6029 10.8359 83.5918 10.8359C84.3529 10.8359 84.9339 11.0843 85.335 11.5811C85.736 12.0732 85.9365 12.7865 85.9365 13.7207V18ZM91.5693 17.9248C91.2594 18.0798 90.8516 18.1572 90.3457 18.1572C88.9876 18.1572 88.3086 17.5055 88.3086 16.2021V12.2441H87.1396V11H88.3086V9.37988L89.8945 8.92871V11H91.5693V12.2441H89.8945V15.7441C89.8945 16.1589 89.9697 16.4551 90.1201 16.6328C90.2705 16.8105 90.5212 16.8994 90.8721 16.8994C91.141 16.8994 91.3734 16.8219 91.5693 16.667V17.9248ZM98.3096 18H96.7715V16.9062H96.7441C96.2611 17.7448 95.5524 18.1641 94.6182 18.1641C93.93 18.1641 93.39 17.9772 92.998 17.6035C92.6107 17.2298 92.417 16.7354 92.417 16.1201C92.417 14.7985 93.1781 14.0283 94.7002 13.8096L96.7783 13.5156C96.7783 12.5176 96.3044 12.0186 95.3564 12.0186C94.5225 12.0186 93.7705 12.3057 93.1006 12.8799V11.4922C93.8389 11.0547 94.6911 10.8359 95.6572 10.8359C97.4255 10.8359 98.3096 11.7064 98.3096 13.4473V18ZM96.7783 14.5615L95.3086 14.7666C94.8529 14.8258 94.5088 14.9375 94.2764 15.1016C94.0485 15.2611 93.9346 15.5436 93.9346 15.9492C93.9346 16.2454 94.0394 16.4893 94.249 16.6807C94.4632 16.8675 94.748 16.9609 95.1035 16.9609C95.5866 16.9609 95.9854 16.7923 96.2998 16.4551C96.6188 16.1133 96.7783 15.6849 96.7783 15.1699V14.5615Z" fill="#5259FF"/>
</g>
<defs>
<clipPath id="clip0_550_6788">
<rect width="100" height="24" fill="white"/>
</clipPath>
<clipPath id="clip1_550_6788">
<rect width="24" height="24" fill="white"/>
</clipPath>
</defs>
</svg>
