<svg width="168" height="40" viewBox="0 0 168 40" fill="none" xmlns="http://www.w3.org/2000/svg">
<g filter="url(#filter0_d_495_3892)">
<rect x="4" y="4" width="160" height="32" rx="8" fill="url(#paint0_linear_495_3892)"/>
<path d="M20.7588 24.6104V22.9355C20.9092 23.0723 21.0869 23.1953 21.292 23.3047C21.5016 23.4141 21.7227 23.5075 21.9551 23.585C22.1875 23.6579 22.4199 23.7148 22.6523 23.7559C22.8848 23.7969 23.099 23.8174 23.2949 23.8174C23.9785 23.8174 24.4867 23.7035 24.8193 23.4756C25.1566 23.2477 25.3252 22.9173 25.3252 22.4844C25.3252 22.252 25.2682 22.0514 25.1543 21.8828C25.0449 21.7096 24.89 21.5524 24.6895 21.4111C24.4889 21.2699 24.252 21.1354 23.9785 21.0078C23.7096 20.8757 23.4202 20.7389 23.1104 20.5977C22.7777 20.4199 22.4678 20.2399 22.1807 20.0576C21.8936 19.8753 21.6429 19.6748 21.4287 19.4561C21.2191 19.2327 21.0527 18.9821 20.9297 18.7041C20.8112 18.4261 20.752 18.1003 20.752 17.7266C20.752 17.2663 20.8545 16.8675 21.0596 16.5303C21.2692 16.1885 21.5426 15.9082 21.8799 15.6895C22.2217 15.4661 22.609 15.3021 23.042 15.1973C23.4749 15.0879 23.917 15.0332 24.3682 15.0332C25.3936 15.0332 26.141 15.1494 26.6104 15.3818V16.9883C26.0544 16.5872 25.3389 16.3867 24.4639 16.3867C24.2223 16.3867 23.9808 16.4095 23.7393 16.4551C23.5023 16.5007 23.2881 16.5758 23.0967 16.6807C22.9098 16.7855 22.7572 16.9199 22.6387 17.084C22.5202 17.248 22.4609 17.4463 22.4609 17.6787C22.4609 17.8975 22.5065 18.0866 22.5977 18.2461C22.6888 18.4056 22.821 18.5514 22.9941 18.6836C23.1719 18.8158 23.3861 18.9456 23.6367 19.0732C23.8919 19.1963 24.1859 19.3307 24.5186 19.4766C24.8604 19.6543 25.1816 19.8411 25.4824 20.0371C25.7878 20.2331 26.0544 20.4495 26.2822 20.6865C26.5146 20.9235 26.6969 21.1878 26.8291 21.4795C26.9658 21.7666 27.0342 22.0947 27.0342 22.4639C27.0342 22.9606 26.9339 23.3799 26.7334 23.7217C26.5329 24.0635 26.2617 24.3415 25.9199 24.5557C25.5827 24.7699 25.193 24.9248 24.751 25.0205C24.3089 25.1162 23.8418 25.1641 23.3496 25.1641C23.1855 25.1641 22.9827 25.1504 22.7412 25.123C22.5042 25.1003 22.2604 25.0638 22.0098 25.0137C21.7591 24.9681 21.5221 24.9111 21.2988 24.8428C21.0755 24.7744 20.8955 24.6969 20.7588 24.6104ZM29.4609 16.5303C29.2012 16.5303 28.9779 16.446 28.791 16.2773C28.6087 16.1087 28.5176 15.8945 28.5176 15.6348C28.5176 15.375 28.6087 15.1585 28.791 14.9854C28.9779 14.8122 29.2012 14.7256 29.4609 14.7256C29.7298 14.7256 29.9577 14.8122 30.1445 14.9854C30.3314 15.1585 30.4248 15.375 30.4248 15.6348C30.4248 15.8809 30.3314 16.0928 30.1445 16.2705C29.9577 16.4437 29.7298 16.5303 29.4609 16.5303ZM30.2471 25H28.6611V18H30.2471V25ZM38.6963 24.4395C38.6963 27.0098 37.4043 28.2949 34.8203 28.2949C33.9089 28.2949 33.1136 28.1423 32.4346 27.8369V26.3877C33.2002 26.8252 33.9271 27.0439 34.6152 27.0439C36.2786 27.0439 37.1104 26.2259 37.1104 24.5898V23.8242H37.083C36.5589 24.7174 35.7705 25.1641 34.7178 25.1641C33.8656 25.1641 33.1774 24.8542 32.6533 24.2344C32.1338 23.61 31.874 22.7738 31.874 21.7256C31.874 20.5361 32.1543 19.5905 32.7148 18.8887C33.2754 18.1868 34.0456 17.8359 35.0254 17.8359C35.9505 17.8359 36.6364 18.2142 37.083 18.9707H37.1104V18H38.6963V24.4395ZM37.124 21.7939V20.8848C37.124 20.3926 36.96 19.9733 36.6318 19.627C36.3083 19.276 35.9027 19.1006 35.415 19.1006C34.8135 19.1006 34.3418 19.3239 34 19.7705C33.6628 20.2126 33.4941 20.8324 33.4941 21.6299C33.4941 22.318 33.6559 22.8695 33.9795 23.2842C34.3076 23.6943 34.7406 23.8994 35.2783 23.8994C35.8252 23.8994 36.2695 23.7035 36.6113 23.3115C36.9531 22.915 37.124 22.4092 37.124 21.7939ZM46.8652 25H45.2793V23.8926H45.252C44.7917 24.7402 44.0762 25.1641 43.1055 25.1641C41.4512 25.1641 40.624 24.1706 40.624 22.1836V18H42.21V22.0195C42.21 23.2773 42.6953 23.9062 43.666 23.9062C44.1354 23.9062 44.5205 23.7331 44.8213 23.3867C45.1266 23.0404 45.2793 22.5869 45.2793 22.0264V18H46.8652V25ZM49.7363 16.5303C49.4766 16.5303 49.2533 16.446 49.0664 16.2773C48.8841 16.1087 48.793 15.8945 48.793 15.6348C48.793 15.375 48.8841 15.1585 49.0664 14.9854C49.2533 14.8122 49.4766 14.7256 49.7363 14.7256C50.0052 14.7256 50.2331 14.8122 50.4199 14.9854C50.6068 15.1585 50.7002 15.375 50.7002 15.6348C50.7002 15.8809 50.6068 16.0928 50.4199 16.2705C50.2331 16.4437 50.0052 16.5303 49.7363 16.5303ZM50.5225 25H48.9365V18H50.5225V25ZM58.5273 21.9307H53.7559C53.7741 22.5778 53.9723 23.0768 54.3506 23.4277C54.7334 23.7786 55.2575 23.9541 55.9229 23.9541C56.6702 23.9541 57.3561 23.7308 57.9805 23.2842V24.5625C57.3424 24.9635 56.4993 25.1641 55.4512 25.1641C54.4212 25.1641 53.6123 24.8473 53.0244 24.2139C52.4411 23.5758 52.1494 22.6803 52.1494 21.5273C52.1494 20.4382 52.4707 19.5518 53.1133 18.8682C53.7604 18.18 54.5625 17.8359 55.5195 17.8359C56.4766 17.8359 57.2171 18.1436 57.7412 18.7588C58.2653 19.374 58.5273 20.2285 58.5273 21.3223V21.9307ZM56.9961 20.8096C56.9915 20.2399 56.8571 19.7979 56.5928 19.4834C56.3285 19.1644 55.9639 19.0049 55.499 19.0049C55.0433 19.0049 54.6559 19.1712 54.3369 19.5039C54.0225 19.8366 53.8288 20.2718 53.7559 20.8096H56.9961ZM66.2725 25H64.6865V21.0557C64.6865 19.7477 64.224 19.0938 63.2988 19.0938C62.8158 19.0938 62.417 19.276 62.1025 19.6406C61.7881 20.0007 61.6309 20.4564 61.6309 21.0078V25H60.0381V18H61.6309V19.1621H61.6582C62.1823 18.278 62.9388 17.8359 63.9277 17.8359C64.6888 17.8359 65.2699 18.0843 65.6709 18.5811C66.0719 19.0732 66.2725 19.7865 66.2725 20.7207V25ZM71.9053 24.9248C71.5954 25.0798 71.1875 25.1572 70.6816 25.1572C69.3236 25.1572 68.6445 24.5055 68.6445 23.2021V19.2441H67.4756V18H68.6445V16.3799L70.2305 15.9287V18H71.9053V19.2441H70.2305V22.7441C70.2305 23.1589 70.3057 23.4551 70.4561 23.6328C70.6064 23.8105 70.8571 23.8994 71.208 23.8994C71.4769 23.8994 71.7093 23.8219 71.9053 23.667V24.9248ZM79.1172 21.9307H74.3457C74.3639 22.5778 74.5622 23.0768 74.9404 23.4277C75.3232 23.7786 75.8473 23.9541 76.5127 23.9541C77.2601 23.9541 77.946 23.7308 78.5703 23.2842V24.5625C77.9323 24.9635 77.0892 25.1641 76.041 25.1641C75.0111 25.1641 74.2021 24.8473 73.6143 24.2139C73.0309 23.5758 72.7393 22.6803 72.7393 21.5273C72.7393 20.4382 73.0605 19.5518 73.7031 18.8682C74.3503 18.18 75.1523 17.8359 76.1094 17.8359C77.0664 17.8359 77.807 18.1436 78.3311 18.7588C78.8551 19.374 79.1172 20.2285 79.1172 21.3223V21.9307ZM77.5859 20.8096C77.5814 20.2399 77.4469 19.7979 77.1826 19.4834C76.9183 19.1644 76.5537 19.0049 76.0889 19.0049C75.6331 19.0049 75.2458 19.1712 74.9268 19.5039C74.6123 19.8366 74.4186 20.2718 74.3457 20.8096H77.5859ZM86.0967 23.9678H86.0693V28.2197H84.4834V18H86.0693V19.2305H86.0967C86.639 18.3008 87.432 17.8359 88.4756 17.8359C89.3643 17.8359 90.057 18.1481 90.5537 18.7725C91.0505 19.3968 91.2988 20.2354 91.2988 21.2881C91.2988 22.4548 91.0186 23.389 90.458 24.0908C89.8975 24.7926 89.1318 25.1436 88.1611 25.1436C87.2679 25.1436 86.5798 24.7516 86.0967 23.9678ZM86.0557 21.2061V22.0742C86.0557 22.5846 86.2174 23.0176 86.541 23.373C86.8691 23.7285 87.2839 23.9062 87.7852 23.9062C88.373 23.9062 88.8333 23.6784 89.166 23.2227C89.5033 22.7624 89.6719 22.1221 89.6719 21.3018C89.6719 20.6136 89.5146 20.0758 89.2002 19.6885C88.8903 19.2965 88.4688 19.1006 87.9355 19.1006C87.3704 19.1006 86.9147 19.3011 86.5684 19.7021C86.2266 20.1032 86.0557 20.6045 86.0557 21.2061ZM98.1279 25H96.5898V23.9062H96.5625C96.0794 24.7448 95.3708 25.1641 94.4365 25.1641C93.7484 25.1641 93.2083 24.9772 92.8164 24.6035C92.429 24.2298 92.2354 23.7354 92.2354 23.1201C92.2354 21.7985 92.9964 21.0283 94.5186 20.8096L96.5967 20.5156C96.5967 19.5176 96.1227 19.0186 95.1748 19.0186C94.3408 19.0186 93.5889 19.3057 92.9189 19.8799V18.4922C93.6572 18.0547 94.5094 17.8359 95.4756 17.8359C97.2438 17.8359 98.1279 18.7064 98.1279 20.4473V25ZM96.5967 21.5615L95.127 21.7666C94.6712 21.8258 94.3271 21.9375 94.0947 22.1016C93.8669 22.2611 93.7529 22.5436 93.7529 22.9492C93.7529 23.2454 93.8577 23.4893 94.0674 23.6807C94.2816 23.8675 94.5664 23.9609 94.9219 23.9609C95.4049 23.9609 95.8037 23.7923 96.1182 23.4551C96.4372 23.1133 96.5967 22.6849 96.5967 22.1699V21.5615ZM99.6318 24.7812V23.3115C100.224 23.7627 100.878 23.9883 101.594 23.9883C102.551 23.9883 103.029 23.7057 103.029 23.1406C103.029 22.9811 102.988 22.8467 102.906 22.7373C102.824 22.6234 102.713 22.5231 102.571 22.4365C102.435 22.3499 102.271 22.2725 102.079 22.2041C101.892 22.1357 101.683 22.0583 101.45 21.9717C101.163 21.8577 100.903 21.737 100.671 21.6094C100.443 21.4818 100.252 21.3382 100.097 21.1787C99.9463 21.0146 99.8324 20.8301 99.7549 20.625C99.6774 20.4199 99.6387 20.1807 99.6387 19.9072C99.6387 19.57 99.7184 19.2738 99.8779 19.0186C100.037 18.7588 100.252 18.5423 100.521 18.3691C100.789 18.1914 101.095 18.0592 101.437 17.9727C101.778 17.8815 102.132 17.8359 102.496 17.8359C103.143 17.8359 103.722 17.9339 104.232 18.1299V19.5176C103.74 19.1803 103.175 19.0117 102.537 19.0117C102.337 19.0117 102.154 19.0322 101.99 19.0732C101.831 19.1143 101.694 19.1712 101.58 19.2441C101.466 19.3171 101.377 19.4059 101.313 19.5107C101.25 19.611 101.218 19.7227 101.218 19.8457C101.218 19.9961 101.25 20.1237 101.313 20.2285C101.377 20.3333 101.471 20.4268 101.594 20.5088C101.721 20.5863 101.872 20.6592 102.045 20.7275C102.223 20.7913 102.425 20.862 102.653 20.9395C102.954 21.0625 103.223 21.1878 103.46 21.3154C103.701 21.443 103.907 21.5889 104.075 21.7529C104.244 21.9124 104.374 22.0993 104.465 22.3135C104.556 22.5231 104.602 22.7738 104.602 23.0654C104.602 23.4209 104.52 23.7308 104.355 23.9951C104.191 24.2594 103.973 24.4782 103.699 24.6514C103.426 24.8245 103.109 24.9521 102.749 25.0342C102.394 25.1208 102.018 25.1641 101.621 25.1641C100.855 25.1641 100.192 25.0365 99.6318 24.7812ZM109.216 25.1641C108.136 25.1641 107.272 24.8382 106.625 24.1865C105.982 23.5303 105.661 22.6621 105.661 21.582C105.661 20.4062 105.996 19.488 106.666 18.8271C107.34 18.1663 108.247 17.8359 109.387 17.8359C110.48 17.8359 111.333 18.1572 111.943 18.7998C112.554 19.4424 112.859 20.3333 112.859 21.4727C112.859 22.5892 112.529 23.4847 111.868 24.1592C111.212 24.8291 110.328 25.1641 109.216 25.1641ZM109.291 19.1006C108.671 19.1006 108.181 19.3171 107.821 19.75C107.461 20.1829 107.281 20.7799 107.281 21.541C107.281 22.2747 107.464 22.8535 107.828 23.2773C108.193 23.6966 108.68 23.9062 109.291 23.9062C109.915 23.9062 110.394 23.6989 110.727 23.2842C111.064 22.8695 111.232 22.2793 111.232 21.5137C111.232 20.7435 111.064 20.1488 110.727 19.7295C110.394 19.3102 109.915 19.1006 109.291 19.1006Z" fill="white"/>
<g clip-path="url(#clip0_495_3892)">
<path d="M136 27L143 20L136 13M143 20L129 20" stroke="white" stroke-width="1.5" stroke-linecap="round" stroke-linejoin="round"/>
</g>
</g>
<defs>
<filter id="filter0_d_495_3892" x="0" y="0" width="168" height="40" filterUnits="userSpaceOnUse" color-interpolation-filters="sRGB">
<feFlood flood-opacity="0" result="BackgroundImageFix"/>
<feColorMatrix in="SourceAlpha" type="matrix" values="0 0 0 0 0 0 0 0 0 0 0 0 0 0 0 0 0 0 127 0" result="hardAlpha"/>
<feOffset/>
<feGaussianBlur stdDeviation="2"/>
<feComposite in2="hardAlpha" operator="out"/>
<feColorMatrix type="matrix" values="0 0 0 0 0 0 0 0 0 0 0 0 0 0 0 0 0 0 0.25 0"/>
<feBlend mode="normal" in2="BackgroundImageFix" result="effect1_dropShadow_495_3892"/>
<feBlend mode="normal" in="SourceGraphic" in2="effect1_dropShadow_495_3892" result="shape"/>
</filter>
<linearGradient id="paint0_linear_495_3892" x1="84" y1="4" x2="84" y2="36" gradientUnits="userSpaceOnUse">
<stop stop-color="#5259FF"/>
<stop offset="1" stop-color="#333BF4"/>
</linearGradient>
<clipPath id="clip0_495_3892">
<rect width="24" height="24" fill="white" transform="translate(124 8)"/>
</clipPath>
</defs>
</svg>
