<svg width="372" height="152" viewBox="0 0 372 152" fill="none" xmlns="http://www.w3.org/2000/svg">
<rect width="372" height="152" fill="white"/>
<rect x="8" y="8" width="108" height="60" rx="4" fill="white"/>
<path fill-rule="evenodd" clip-rule="evenodd" d="M45.2507 47.8443H39.6253L35.407 32.3288C35.2068 31.6151 34.7817 30.9842 34.1563 30.6868C32.5957 29.9395 30.876 29.3447 29 29.0447V28.4474H38.062C39.3127 28.4474 40.2507 29.3447 40.407 30.3868L42.5957 41.5786L48.2183 28.4474H53.6873L45.2507 47.8443ZM56.8141 47.8443H51.5014L55.876 28.4474H61.1887L56.8141 47.8443ZM68.062 33.8209C68.2183 32.7762 69.1563 32.1788 70.2507 32.1788C71.9704 32.0288 73.8437 32.3288 75.407 33.0735L76.345 28.8973C74.7817 28.3 73.062 28 71.5014 28C66.345 28 62.593 30.6868 62.593 34.4156C62.593 37.2524 65.2507 38.7418 67.1267 39.6392C69.1563 40.5339 69.938 41.1312 69.7817 42.0259C69.7817 43.368 68.2183 43.9654 66.6577 43.9654C64.7817 43.9654 62.9056 43.518 61.1887 42.7707L60.2507 46.9495C62.1267 47.6943 64.1563 47.9942 66.0324 47.9942C71.814 48.1416 75.407 45.4574 75.407 41.4286C75.407 36.3551 68.062 36.0577 68.062 33.8209ZM94 47.8443L89.7817 28.4474H85.2507C84.3127 28.4474 83.3747 29.0447 83.062 29.9395L75.2507 47.8443H80.7197L81.8113 45.0101H88.531L89.1563 47.8443H94ZM86.0324 33.671L87.593 40.9813H83.2183L86.0324 33.671Z" fill="#172B85"/>
<rect x="132" y="8" width="108" height="60" rx="4" fill="white"/>
<path fill-rule="evenodd" clip-rule="evenodd" d="M174.688 53.7701V55.8332V57.8963H173.761V57.3953C173.466 57.7668 173.02 58 172.413 58C171.217 58 170.279 57.094 170.279 55.8332C170.279 54.5734 171.217 53.6664 172.413 53.6664C173.02 53.6664 173.466 53.8996 173.761 54.2711V53.7701H174.688ZM172.528 54.5121C171.725 54.5121 171.234 55.1079 171.234 55.8332C171.234 56.5584 171.725 57.1542 172.528 57.1542C173.296 57.1542 173.814 56.5841 173.814 55.8332C173.814 55.0823 173.296 54.5121 172.528 54.5121ZM206.039 55.8332C206.039 55.1079 206.53 54.5121 207.333 54.5121C208.101 54.5121 208.618 55.0823 208.618 55.8332C208.618 56.5841 208.101 57.1542 207.333 57.1542C206.53 57.1542 206.039 56.5584 206.039 55.8332ZM209.494 52.1132V55.8332V57.8963H208.565V57.3953C208.271 57.7668 207.825 58 207.218 58C206.021 58 205.083 57.094 205.083 55.8332C205.083 54.5734 206.021 53.6664 207.218 53.6664C207.825 53.6664 208.271 53.8996 208.565 54.2711V52.1132H209.494ZM186.204 54.4697C186.802 54.4697 187.186 54.8323 187.284 55.4706H185.07C185.169 54.8748 185.543 54.4697 186.204 54.4697ZM184.097 55.8332C184.097 54.5467 184.972 53.6664 186.222 53.6664C187.418 53.6664 188.239 54.5467 188.249 55.8332C188.249 55.9537 188.239 56.0664 188.23 56.178H185.062C185.196 56.921 185.74 57.1888 186.338 57.1888C186.766 57.1888 187.222 57.0327 187.579 56.757L188.034 57.422C187.516 57.8449 186.927 58 186.285 58C185.008 58 184.097 57.1453 184.097 55.8332ZM197.425 55.8332C197.425 55.1079 197.916 54.5121 198.719 54.5121C199.486 54.5121 200.004 55.0823 200.004 55.8332C200.004 56.5841 199.486 57.1542 198.719 57.1542C197.916 57.1542 197.425 56.5584 197.425 55.8332ZM200.879 53.7701V55.8332V57.8963H199.951V57.3953C199.656 57.7668 199.211 58 198.604 58C197.407 58 196.469 57.094 196.469 55.8332C196.469 54.5734 197.407 53.6664 198.604 53.6664C199.211 53.6664 199.656 53.8996 199.951 54.2711V53.7701H200.879ZM192.185 55.8332C192.185 57.0851 193.086 58 194.462 58C195.104 58 195.532 57.8617 195.996 57.5079L195.551 56.7827C195.202 57.0248 194.836 57.1542 194.434 57.1542C193.693 57.1453 193.149 56.6276 193.149 55.8332C193.149 55.0388 193.693 54.521 194.434 54.5122C194.836 54.5122 195.202 54.6416 195.551 54.8837L195.996 54.1584C195.532 53.8047 195.104 53.6664 194.462 53.6664C193.086 53.6664 192.185 54.5813 192.185 55.8332ZM203.021 54.2711C203.262 53.9085 203.611 53.6664 204.146 53.6664C204.334 53.6664 204.602 53.701 204.807 53.779L204.521 54.6248C204.325 54.5467 204.129 54.5211 203.941 54.5211C203.334 54.5211 203.031 54.9005 203.031 55.5832V57.8963H202.102V53.7701H203.021V54.2711ZM179.277 54.0982C178.83 53.8136 178.215 53.6664 177.537 53.6664C176.456 53.6664 175.76 54.1673 175.76 54.9874C175.76 55.6603 176.278 56.0753 177.232 56.2047L177.671 56.265C178.18 56.3341 178.42 56.4636 178.42 56.6968C178.42 57.0159 178.08 57.1977 177.447 57.1977C176.804 57.1977 176.34 56.9991 176.028 56.7659L175.591 57.4645C176.099 57.8271 176.742 58 177.438 58C178.67 58 179.384 57.4388 179.384 56.6533C179.384 55.928 178.822 55.5486 177.893 55.4192L177.456 55.3579C177.055 55.3066 176.733 55.2295 176.733 54.9528C176.733 54.6505 177.036 54.4697 177.545 54.4697C178.09 54.4697 178.617 54.6683 178.875 54.8234L179.277 54.0982ZM190.123 54.2711C190.364 53.9085 190.712 53.6664 191.247 53.6664C191.435 53.6664 191.703 53.701 191.908 53.779L191.622 54.6248C191.426 54.5467 191.23 54.5211 191.042 54.5211C190.435 54.5211 190.132 54.9005 190.132 55.5832V57.8963H189.204V53.7701H190.123V54.2711ZM183.33 53.7701H181.813V52.5183H180.875V53.7701H180.009V54.5902H180.875V56.4725C180.875 57.4299 181.259 58 182.356 58C182.759 58 183.223 57.8795 183.517 57.6809L183.249 56.9121C182.972 57.0673 182.669 57.1453 182.428 57.1453C181.964 57.1453 181.813 56.8687 181.813 56.4547V54.5902H183.33V53.7701ZM169.458 55.3066V57.8963H168.52V55.6C168.52 54.9005 168.217 54.5122 167.583 54.5122C166.967 54.5122 166.539 54.8926 166.539 55.6089V57.8963H165.601V55.6C165.601 54.9005 165.29 54.5122 164.674 54.5122C164.039 54.5122 163.628 54.8926 163.628 55.6089V57.8963H162.691V53.7701H163.62V54.279C163.969 53.7958 164.414 53.6664 164.87 53.6664C165.522 53.6664 165.985 53.943 166.28 54.4005C166.673 53.8215 167.235 53.6575 167.78 53.6664C168.816 53.6753 169.458 54.3314 169.458 55.3066Z" fill="#231F20"/>
<path d="M193.031 46.7609H178.971V22.3242H193.031V46.7609Z" fill="#FF5F00"/>
<path d="M179.862 34.5409C179.862 29.5838 182.262 25.1682 185.999 22.3226C183.266 20.2417 179.817 18.9997 176.068 18.9997C167.194 18.9997 160 25.9576 160 34.5409C160 43.1241 167.194 50.082 176.068 50.082C179.817 50.082 183.266 48.84 185.999 46.7592C182.262 43.9136 179.862 39.498 179.862 34.5409Z" fill="#EB001B"/>
<path d="M212.001 34.5409C212.001 43.1241 204.807 50.082 195.932 50.082C192.183 50.082 188.734 48.84 186 46.7592C189.738 43.9136 192.138 39.498 192.138 34.5409C192.138 29.5838 189.738 25.1682 186 22.3226C188.734 20.2417 192.183 18.9997 195.932 18.9997C204.807 18.9997 212.001 25.9576 212.001 34.5409Z" fill="#F79E1B"/>
<rect x="256" y="8" width="108" height="60" rx="4" fill="white"/>
<path fill-rule="evenodd" clip-rule="evenodd" d="M285.995 43.6941L285.948 43.7407C285.191 44.5156 284.314 44.9261 283.412 44.9261C281.528 44.9261 280.159 43.5057 280.159 41.5461C280.159 39.5903 281.528 38.1688 283.412 38.1688C284.314 38.1688 285.19 38.5803 285.948 39.3565L285.995 39.4038L287.207 37.9315L287.175 37.8917C286.168 36.6953 284.958 36.1133 283.471 36.1133C281.98 36.1133 280.615 36.6177 279.632 37.5268C278.563 38.5123 278 39.901 278 41.5453C278 43.1896 278.564 44.5821 279.632 45.5673C280.615 46.481 281.98 46.9819 283.471 46.9819C284.958 46.9819 286.168 46.4003 287.175 45.2035L287.207 45.1668L285.995 43.6941Z" fill="#004685"/>
<path fill-rule="evenodd" clip-rule="evenodd" d="M288.432 46.7789H290.573V36.2812H288.432V46.7789Z" fill="#004685"/>
<path fill-rule="evenodd" clip-rule="evenodd" d="M298.962 44.5002C298.389 44.8494 297.858 45.0256 297.38 45.0256C296.688 45.0256 296.376 44.6587 296.376 43.8417V38.271H298.557V36.2942H296.376V33.0273L294.277 34.1558V36.2942H292.467V38.271H294.277V44.1975C294.277 45.8109 295.23 46.9141 296.652 46.9435C297.616 46.9622 298.198 46.6733 298.551 46.462L298.573 46.4471L299.087 44.4226L298.962 44.5002Z" fill="#004685"/>
<path fill-rule="evenodd" clip-rule="evenodd" d="M300.734 46.7789H302.878V36.2812H300.734V46.7789Z" fill="#004685"/>
<path fill-rule="evenodd" clip-rule="evenodd" d="M304.126 34.4423C302.17 31.6596 298.921 30 295.616 30C292.312 30 289.063 31.66 287.11 34.4423L287.01 34.5852H289.473L289.5 34.5554C291.177 32.8186 293.365 31.8992 295.616 31.8992C297.867 31.8992 300.055 32.8186 301.735 34.5554L301.763 34.5852H304.224L304.126 34.4423Z" fill="#ED1C2E"/>
<path fill-rule="evenodd" clip-rule="evenodd" d="M306.967 38.7781L306.938 38.8167V44.2472L306.959 44.2804C307.633 45.3279 308.733 45.9546 309.9 45.9546C311.705 45.9546 312.621 44.426 312.621 41.414C312.621 38.7211 311.608 37.1796 309.84 37.1796C308.768 37.1792 307.801 37.7173 306.967 38.7781ZM343.001 46.7444V46.7811C342.679 46.7811 341.837 46.7811 341.707 46.7811C341.634 46.6321 338.997 41.0246 338.997 41.0246L337.029 43.7963C337.029 43.7963 337.029 46.5331 337.029 46.7811C336.825 46.7811 336.008 46.7811 335.807 46.7811C335.807 46.5171 335.807 33.1443 335.807 32.9903C335.914 32.9288 336.741 32.4526 337.029 32.2894C337.029 32.7342 337.029 42.3029 337.029 42.3029L337.697 41.2612C337.695 41.2646 340.692 36.9064 341.076 36.3511C341.183 36.3511 342.053 36.3511 342.413 36.3511C342.128 36.7337 339.772 39.9914 339.772 39.9914C339.772 39.9914 342.696 46.1131 343.001 46.7444ZM318.644 47.0005H318.125C317.073 46.9393 315.177 46.4487 315.177 43.7172C315.177 41.2902 317.171 40.4285 319.04 40.4285C319.979 40.4285 320.906 40.6452 321.578 41.0246L321.78 41.1358V39.639C321.78 37.979 320.973 37.1383 319.376 37.1383C318.392 37.1383 317.504 37.3867 316.595 37.9026C316.514 37.7173 316.231 37.0894 316.153 36.9121C317.104 36.4073 318.28 36.1257 319.476 36.1257C321.848 36.1257 323.002 37.2136 323.002 39.4556C323.002 39.4556 323.002 46.519 323.002 46.7811C322.799 46.7811 321.981 46.7811 321.78 46.7811C321.78 46.5637 321.78 45.2598 321.78 45.2598L321.543 45.5239C320.707 46.4475 319.758 46.9347 318.644 47.0005ZM310.245 47.0005H309.761C308.75 46.9378 307.924 46.4968 307.176 45.6271L306.938 45.3481C306.938 45.3481 306.938 46.5686 306.938 46.7807C306.738 46.7807 305.92 46.7807 305.719 46.7807C305.719 46.5167 305.719 33.1439 305.719 32.9899C305.822 32.9284 306.652 32.4522 306.938 32.2891C306.938 32.7182 306.938 37.8694 306.938 37.8694L307.174 37.6091C308.075 36.6106 309.071 36.1253 310.216 36.1253C312.509 36.1253 313.824 38.0436 313.824 41.3919C313.824 44.6893 312.426 46.8598 310.245 47.0005ZM316.374 43.6151C316.374 45.1754 317.179 46.0337 318.641 46.0337C319.885 46.0337 320.99 45.4433 321.756 44.3698L321.78 44.3332V42.0465L321.711 42.0071C320.931 41.5604 320.134 41.3796 318.959 41.3796C317.342 41.3796 316.374 42.2158 316.374 43.6151ZM326.989 37.5935C327.619 36.6477 328.607 36.1253 329.763 36.1253C332.067 36.1253 333.288 37.6015 333.288 40.3941C333.288 40.3941 333.288 46.5194 333.288 46.7807C333.087 46.7807 332.268 46.7807 332.063 46.7807C332.063 46.5194 332.063 40.6589 332.063 40.6589C332.063 38.2828 331.241 37.1788 329.463 37.1788C327.759 37.1788 326.741 38.4812 326.741 40.6589C326.741 40.6589 326.741 46.5194 326.741 46.7807C326.541 46.7807 325.72 46.7807 325.52 46.7807C325.52 46.5186 325.52 36.611 325.52 36.3508C325.72 36.3508 326.541 36.3508 326.741 36.3508C326.741 36.5667 326.741 37.9676 326.741 37.9676L326.989 37.5935Z" fill="#004685"/>
<rect x="8" y="84" width="108" height="60" rx="4" fill="white"/>
<rect x="38.5" y="97.5" width="47" height="34" rx="3.5" fill="#006FCF" stroke="#F3F3F3"/>
<path fill-rule="evenodd" clip-rule="evenodd" d="M47.8185 122.283V115.078H55.5346L56.3625 116.145L57.2177 115.078H85.2254V121.786C85.2254 121.786 84.4929 122.276 83.6458 122.283H68.1374L67.204 121.147V122.283H64.1454V120.344C64.1454 120.344 63.7276 120.615 62.8243 120.615H61.7832V122.283H57.1522L56.3256 121.193L55.4862 122.283H47.8185ZM38.8281 109.648L40.5642 105.637H43.5666L44.5518 107.883V105.637H48.284L48.8705 107.261L49.4391 105.637H66.1929V106.453C66.1929 106.453 67.0736 105.637 68.521 105.637L73.957 105.656L74.9252 107.873V105.637H78.0485L78.9081 106.91V105.637H82.0601V112.842H78.9081L78.0843 111.564V112.842H73.4955L73.034 111.706H71.8004L71.3464 112.842H68.2345C66.989 112.842 66.1929 112.042 66.1929 112.042V112.842H61.5007L60.5695 111.706V112.842H43.1218L42.6606 111.706H41.4309L40.973 112.842H38.8281V109.648ZM38.8372 111.92L41.1788 106.525H42.954L45.2933 111.92H43.7352L43.3054 110.84H40.7937L40.3617 111.92H38.8372ZM42.8108 109.668L42.0452 107.781L41.2773 109.668H42.8108ZM45.4544 111.919V106.524L47.6208 106.532L48.8809 110.01L50.1107 106.524H52.2598V111.919H50.8987V107.944L49.456 111.919H48.2623L46.8155 107.944V111.919H45.4544ZM53.1911 111.919V106.524H57.6325V107.731H54.5665V108.654H57.5608V109.789H54.5665V110.748H57.6325V111.919H53.1911ZM58.4203 111.92V106.525H61.4492C62.4528 106.525 63.352 107.14 63.352 108.275C63.352 109.246 62.5938 109.871 61.8588 109.932L63.6497 111.92H61.9864L60.3545 110.003H59.7814V111.92H58.4203ZM61.3374 107.732H59.7815V108.867H61.3575C61.6303 108.867 61.9821 108.658 61.9821 108.3C61.9821 108.021 61.7106 107.732 61.3374 107.732ZM65.2974 111.919H63.9076V106.524H65.2974V111.919ZM68.5926 111.919H68.2926C66.8412 111.919 65.96 110.786 65.96 109.244C65.96 107.663 66.8314 106.524 68.6642 106.524H70.1686V107.802H68.6092C67.8652 107.802 67.339 108.377 67.339 109.257C67.339 110.302 67.9407 110.741 68.8075 110.741H69.1657L68.5926 111.919ZM69.2129 111.92L71.5544 106.525H73.3297L75.669 111.92H74.1109L73.6811 110.84H71.1694L70.7373 111.92H69.2129ZM73.1865 109.668L72.4209 107.781L71.6531 109.668H73.1865ZM75.8279 111.919V106.524H77.5583L79.7678 109.914V106.524H81.1289V111.919H79.4544L77.1889 108.441V111.919H75.8279ZM48.7497 121.36V115.965H53.1911V117.172H50.1251V118.095H53.1194V119.231H50.1251V120.189H53.1911V121.36H48.7497ZM70.5125 121.36V115.965H74.9539V117.172H71.8879V118.095H74.8679V119.231H71.8879V120.189H74.9539V121.36H70.5125ZM53.3634 121.36L55.5259 118.696L53.3119 115.965H55.0266L56.3452 117.654L57.6682 115.965H59.3158L57.1309 118.663L59.2974 121.36H57.5829L56.3026 119.699L55.0535 121.36H53.3634ZM59.4592 121.361V115.966H62.4657C63.6993 115.966 64.42 116.754 64.42 117.781C64.42 119.02 63.5011 119.658 62.2888 119.658H60.8561V121.361H59.4592ZM62.3649 117.186H60.856V118.429H62.3604C62.7579 118.429 63.0364 118.168 63.0364 117.807C63.0364 117.424 62.7565 117.186 62.3649 117.186ZM65.011 121.36V115.965H68.0398C69.0434 115.965 69.9427 116.58 69.9427 117.716C69.9427 118.686 69.1845 119.311 68.4495 119.373L70.2404 121.36H68.5771L66.9452 119.444H66.3721V121.36H65.011ZM67.928 117.172H66.3721V118.308H67.9481C68.2209 118.308 68.5727 118.098 68.5727 117.74C68.5727 117.461 68.3012 117.172 67.928 117.172ZM75.5842 121.36V120.189H78.3082C78.7112 120.189 78.8857 119.973 78.8857 119.737C78.8857 119.51 78.7118 119.28 78.3082 119.28H77.0772C76.0073 119.28 75.4114 118.635 75.4114 117.665C75.4114 116.8 75.9571 115.965 77.547 115.965H80.1975L79.6245 117.179H77.3321C76.8939 117.179 76.759 117.407 76.759 117.625C76.759 117.848 76.9257 118.095 77.2605 118.095H78.5499C79.7427 118.095 80.2602 118.765 80.2602 119.643C80.2602 120.587 79.6835 121.36 78.485 121.36H75.5842ZM80.3803 121.36V120.189H83.1043C83.5073 120.189 83.6818 119.973 83.6818 119.737C83.6818 119.51 83.5079 119.28 83.1043 119.28H81.8734C80.8034 119.28 80.2075 118.635 80.2075 117.665C80.2075 116.8 80.7532 115.965 82.3431 115.965H84.9937L84.4206 117.179H82.1282C81.69 117.179 81.5552 117.407 81.5552 117.625C81.5552 117.848 81.7218 118.095 82.0566 118.095H83.346C84.5388 118.095 85.0563 118.765 85.0563 119.643C85.0563 120.587 84.4796 121.36 83.2811 121.36H80.3803Z" fill="white"/>
<rect x="132" y="84" width="108" height="60" rx="4" fill="white"/>
<path fill-rule="evenodd" clip-rule="evenodd" d="M161.689 105H156.705C156.364 105 156.074 105.274 156.021 105.646L154.005 119.779C153.965 120.058 154.161 120.309 154.416 120.309H156.796C157.137 120.309 157.427 120.035 157.48 119.662L158.024 115.85C158.076 115.477 158.367 115.203 158.707 115.203H160.285C163.568 115.203 165.462 113.446 165.957 109.965C166.18 108.442 165.967 107.245 165.322 106.407C164.613 105.487 163.357 105 161.689 105ZM162.264 110.162C161.991 112.139 160.625 112.139 159.304 112.139H158.552L159.079 108.446C159.111 108.223 159.286 108.058 159.49 108.058H159.834C160.734 108.058 161.583 108.058 162.022 108.626C162.284 108.964 162.364 109.467 162.264 110.162Z" fill="#28356A"/>
<path fill-rule="evenodd" clip-rule="evenodd" d="M176.714 109.99H174.327C174.124 109.99 173.948 110.155 173.917 110.378L173.811 111.116L173.644 110.849C173.128 110.019 171.976 109.742 170.826 109.742C168.188 109.742 165.936 111.951 165.497 115.05C165.269 116.595 165.593 118.073 166.386 119.104C167.114 120.052 168.154 120.447 169.392 120.447C171.517 120.447 172.696 118.936 172.696 118.936L172.589 119.669C172.549 119.949 172.745 120.201 172.999 120.201H175.148C175.49 120.201 175.779 119.927 175.833 119.554L177.123 110.521C177.164 110.243 176.969 109.99 176.714 109.99ZM173.387 115.127C173.157 116.635 172.075 117.647 170.695 117.647C170.002 117.647 169.448 117.401 169.092 116.935C168.739 116.473 168.605 115.815 168.717 115.081C168.933 113.586 170.033 112.541 171.392 112.541C172.07 112.541 172.621 112.79 172.984 113.26C173.347 113.734 173.491 114.397 173.387 115.127Z" fill="#28356A"/>
<path fill-rule="evenodd" clip-rule="evenodd" d="M189.241 110.219H186.842C186.613 110.219 186.399 110.344 186.269 110.555L182.961 115.943L181.559 110.765C181.471 110.441 181.201 110.219 180.894 110.219H178.538C178.251 110.219 178.052 110.528 178.143 110.826L180.785 119.399L178.302 123.276C178.106 123.582 178.303 124.001 178.64 124.001H181.036C181.263 124.001 181.476 123.879 181.605 123.673L189.582 110.94C189.773 110.635 189.577 110.219 189.241 110.219Z" fill="#28356A"/>
<path fill-rule="evenodd" clip-rule="evenodd" d="M197.236 105H192.251C191.911 105 191.621 105.274 191.568 105.646L189.552 119.779C189.512 120.058 189.707 120.309 189.962 120.309H192.52C192.757 120.309 192.96 120.117 192.997 119.856L193.57 115.85C193.622 115.477 193.913 115.203 194.253 115.203H195.83C199.114 115.203 201.008 113.446 201.503 109.965C201.727 108.442 201.512 107.245 200.867 106.407C200.16 105.487 198.904 105 197.236 105ZM197.811 110.162C197.539 112.139 196.173 112.139 194.851 112.139H194.1L194.628 108.446C194.659 108.223 194.833 108.058 195.037 108.058H195.382C196.281 108.058 197.131 108.058 197.57 108.626C197.831 108.964 197.911 109.467 197.811 110.162Z" fill="#298FC2"/>
<path fill-rule="evenodd" clip-rule="evenodd" d="M212.258 109.99H209.872C209.668 109.99 209.494 110.155 209.463 110.378L209.357 111.116L209.19 110.849C208.673 110.019 207.522 109.742 206.371 109.742C203.734 109.742 201.483 111.951 201.044 115.05C200.816 116.595 201.139 118.073 201.932 119.104C202.661 120.052 203.7 120.447 204.938 120.447C207.063 120.447 208.241 118.936 208.241 118.936L208.135 119.669C208.095 119.949 208.29 120.201 208.546 120.201H210.695C211.035 120.201 211.326 119.927 211.379 119.554L212.669 110.521C212.709 110.243 212.513 109.99 212.258 109.99ZM208.931 115.127C208.702 116.635 207.618 117.647 206.238 117.647C205.546 117.647 204.991 117.401 204.635 116.935C204.283 116.473 204.15 115.815 204.261 115.081C204.478 113.586 205.576 112.541 206.936 112.541C207.613 112.541 208.164 112.79 208.527 113.26C208.892 113.734 209.036 114.397 208.931 115.127Z" fill="#298FC2"/>
<path fill-rule="evenodd" clip-rule="evenodd" d="M214.873 105.388L212.827 119.78C212.787 120.059 212.983 120.31 213.237 120.31H215.293C215.635 120.31 215.925 120.036 215.978 119.663L217.995 105.531C218.035 105.252 217.84 105 217.585 105H215.283C215.079 105.001 214.904 105.165 214.873 105.388Z" fill="#298FC2"/>
<rect x="256" y="84" width="108" height="60" rx="4" fill="white"/>
<path d="M317.396 122.741H303.605V98.3203H317.396V122.741Z" fill="#6C6BBD"/>
<path d="M304.48 110.531C304.48 105.578 306.834 101.165 310.5 98.321C307.819 96.2415 304.436 95.0004 300.76 95.0004C292.056 95.0004 285 101.954 285 110.531C285 119.109 292.056 126.062 300.76 126.062C304.436 126.062 307.819 124.821 310.5 122.742C306.834 119.898 304.48 115.485 304.48 110.531Z" fill="#EB001B"/>
<path d="M336.001 110.531C336.001 119.109 328.945 126.062 320.241 126.062C316.565 126.062 313.182 124.821 310.5 122.742C314.167 119.898 316.52 115.485 316.52 110.531C316.52 105.578 314.167 101.165 310.5 98.321C313.182 96.2415 316.565 95.0004 320.241 95.0004C328.945 95.0004 336.001 101.954 336.001 110.531Z" fill="#0099DF"/>
<path d="M322.062 129.64C322.245 129.64 322.509 129.675 322.71 129.753L322.43 130.598C322.237 130.52 322.045 130.494 321.86 130.494C321.265 130.494 320.968 130.873 320.968 131.555V133.867H320.057V129.744H320.959V130.244C321.195 129.882 321.537 129.64 322.062 129.64Z" fill="#231F20"/>
<path d="M318.696 130.565H317.208V132.428C317.208 132.842 317.356 133.119 317.812 133.119C318.049 133.119 318.346 133.041 318.617 132.886L318.88 133.653C318.591 133.851 318.136 133.973 317.742 133.973C316.665 133.973 316.289 133.403 316.289 132.445V130.565H315.439V129.746H316.289V128.494H317.208V129.746H318.696V130.565Z" fill="#231F20"/>
<path fill-rule="evenodd" clip-rule="evenodd" d="M308.173 129.641C309.347 129.641 310.152 130.52 310.161 131.806C310.161 131.926 310.152 132.036 310.143 132.148L310.143 132.151H307.036C307.167 132.892 307.701 133.16 308.287 133.16C308.707 133.16 309.154 133.005 309.504 132.728L309.951 133.393C309.443 133.815 308.866 133.97 308.235 133.97C306.983 133.97 306.09 133.116 306.09 131.806C306.09 130.52 306.948 129.641 308.173 129.641ZM308.156 130.442C307.508 130.442 307.141 130.848 307.044 131.444H309.215C309.119 130.805 308.742 130.442 308.156 130.442Z" fill="#231F20"/>
<path d="M314.161 130.798C313.908 130.642 313.392 130.444 312.857 130.444C312.358 130.444 312.061 130.625 312.061 130.927C312.061 131.203 312.375 131.281 312.769 131.332L313.198 131.393C314.109 131.523 314.66 131.902 314.66 132.627C314.66 133.412 313.96 133.973 312.752 133.973C312.069 133.973 311.438 133.8 310.939 133.437L311.368 132.738C311.675 132.971 312.131 133.17 312.761 133.17C313.382 133.17 313.715 132.989 313.715 132.669C313.715 132.437 313.479 132.307 312.98 132.239L312.551 132.179C311.614 132.048 311.106 131.634 311.106 130.962C311.106 130.142 311.789 129.642 312.848 129.642C313.514 129.642 314.118 129.789 314.555 130.073L314.161 130.798Z" fill="#231F20"/>
<path fill-rule="evenodd" clip-rule="evenodd" d="M326.29 129.807C326.014 129.696 325.713 129.641 325.389 129.641C325.064 129.641 324.763 129.696 324.487 129.807C324.21 129.918 323.973 130.071 323.772 130.266C323.572 130.46 323.414 130.69 323.3 130.955C323.186 131.22 323.129 131.509 323.129 131.82C323.129 132.131 323.186 132.419 323.3 132.685C323.414 132.949 323.572 133.181 323.772 133.375C323.973 133.57 324.21 133.722 324.487 133.833C324.763 133.944 325.064 133.999 325.389 133.999C325.713 133.999 326.014 133.944 326.29 133.833C326.567 133.722 326.806 133.57 327.008 133.375C327.21 133.181 327.368 132.949 327.482 132.685C327.596 132.419 327.653 132.131 327.653 131.82C327.653 131.509 327.596 131.22 327.482 130.955C327.368 130.69 327.21 130.46 327.008 130.266C326.806 130.071 326.567 129.918 326.29 129.807ZM324.866 130.589C325.028 130.525 325.201 130.493 325.388 130.493C325.576 130.493 325.75 130.525 325.911 130.589C326.072 130.655 326.212 130.746 326.329 130.862C326.449 130.979 326.541 131.119 326.609 131.282C326.676 131.445 326.709 131.624 326.709 131.82C326.709 132.016 326.676 132.195 326.609 132.358C326.541 132.521 326.449 132.661 326.329 132.778C326.212 132.894 326.072 132.985 325.911 133.05C325.75 133.115 325.576 133.147 325.388 133.147C325.201 133.147 325.028 133.115 324.866 133.05C324.706 132.985 324.567 132.894 324.45 132.778C324.332 132.661 324.24 132.521 324.173 132.358C324.106 132.195 324.073 132.016 324.073 131.82C324.073 131.624 324.106 131.445 324.173 131.282C324.24 131.119 324.332 130.979 324.45 130.862C324.567 130.746 324.706 130.655 324.866 130.589Z" fill="#231F20"/>
<path fill-rule="evenodd" clip-rule="evenodd" d="M305.113 129.744V131.806V133.868H304.203V133.367C303.914 133.738 303.477 133.971 302.881 133.971C301.708 133.971 300.789 133.065 300.789 131.806C300.789 130.546 301.708 129.641 302.881 129.641C303.477 129.641 303.914 129.874 304.203 130.245V129.744H305.113ZM302.995 130.486C302.207 130.486 301.725 131.081 301.725 131.806C301.725 132.531 302.207 133.125 302.995 133.125C303.747 133.125 304.255 132.556 304.255 131.806C304.255 131.056 303.747 130.486 302.995 130.486Z" fill="#231F20"/>
<path d="M299.983 133.867V131.279C299.983 130.305 299.353 129.649 298.338 129.64C297.804 129.631 297.252 129.795 296.867 130.374C296.578 129.917 296.122 129.64 295.483 129.64C295.037 129.64 294.599 129.769 294.258 130.252V129.744H293.348V133.867H294.267V131.581C294.267 130.865 294.669 130.485 295.291 130.485C295.895 130.485 296.202 130.873 296.202 131.572V133.867H297.12V131.581C297.12 130.865 297.541 130.485 298.145 130.485C298.767 130.485 299.064 130.873 299.064 131.572V133.867H299.983V133.867Z" fill="#231F20"/>
</svg>
