<svg width="24" height="24" viewBox="0 0 24 24" fill="none" xmlns="http://www.w3.org/2000/svg">
<path d="M21.1559 7.22543C21.17 7.42966 21.17 7.6339 21.17 7.84001C21.17 14.1205 16.3888 21.3638 7.64624 21.3638V21.36C5.06365 21.3638 2.53471 20.624 0.360596 19.2292C0.736125 19.2744 1.11354 19.297 1.49189 19.2979C3.63212 19.2998 5.71118 18.5817 7.39495 17.2593C5.36107 17.2207 3.57754 15.8946 2.95448 13.9586C3.66695 14.096 4.40107 14.0678 5.10036 13.8767C2.88295 13.4287 1.28765 11.4805 1.28765 9.2179C1.28765 9.19719 1.28765 9.17743 1.28765 9.15766C1.94836 9.52566 2.68813 9.7299 3.44483 9.75249C1.35636 8.35672 0.712596 5.57837 1.97377 3.40613C4.38695 6.37554 7.94742 8.18072 11.7695 8.37178C11.3865 6.72096 11.9098 4.99107 13.1446 3.8306C15.0589 2.03107 18.0698 2.12331 19.8693 4.03672C20.9338 3.82684 21.954 3.43625 22.8877 2.88284C22.5328 3.98307 21.7902 4.91766 20.7982 5.51154C21.7404 5.40049 22.6608 5.14825 23.5277 4.76331C22.8895 5.71954 22.0858 6.55249 21.1559 7.22543Z" fill="white"/>
</svg>
