<svg width="24" height="24" viewBox="0 0 24 24" fill="none" xmlns="http://www.w3.org/2000/svg">
<path fill-rule="evenodd" clip-rule="evenodd" d="M19.471 4.43207C17.4755 2.43398 14.8214 1.33304 11.9935 1.33203C6.16647 1.33203 1.42411 6.07385 1.42208 11.9024C1.42106 13.7656 1.90818 15.5843 2.83323 17.1871L1.33337 22.6654L6.93744 21.1954C8.48138 22.0379 10.22 22.4814 11.989 22.4819H11.9935C17.8196 22.4819 22.5625 17.7395 22.5645 11.911C22.5656 9.08622 21.4671 6.43069 19.471 4.43258V4.43207ZM11.9935 20.6967H11.99C10.4136 20.6962 8.86714 20.2724 7.51784 19.4721L7.19696 19.2815L3.87133 20.1538L4.75887 16.9113L4.55003 16.5788C3.6706 15.1799 3.20579 13.5629 3.2068 11.9029C3.20883 7.0587 7.15033 3.11724 11.9971 3.11724C14.344 3.11826 16.5499 4.03317 18.2089 5.6942C19.868 7.35472 20.7808 9.56268 20.7798 11.91C20.7778 16.7547 16.8363 20.6962 11.9935 20.6962V20.6967ZM16.813 14.1164C16.5489 13.9841 15.2503 13.3454 15.008 13.2573C14.7657 13.1691 14.5898 13.125 14.4139 13.3896C14.238 13.6542 13.7317 14.2492 13.5776 14.4251C13.4235 14.6015 13.2694 14.6233 13.0053 14.491C12.7412 14.3587 11.8902 14.0799 10.881 13.1802C10.0958 12.4797 9.56559 11.615 9.41154 11.3504C9.25744 11.0858 9.39532 10.9429 9.52707 10.8116C9.64567 10.693 9.79117 10.5029 9.92345 10.3488C10.0558 10.1947 10.0994 10.0843 10.1875 9.90833C10.2758 9.73194 10.2317 9.5779 10.1658 9.44556C10.0998 9.31328 9.57172 8.01312 9.35121 7.48447C9.13677 6.96949 8.91886 7.03944 8.75715 7.03083C8.60305 7.02322 8.42718 7.0217 8.25079 7.0217C8.07439 7.0217 7.78848 7.0876 7.54621 7.35219C7.30393 7.61675 6.62165 8.25592 6.62165 9.55555C6.62165 10.8552 7.56803 12.1118 7.70031 12.2881C7.83259 12.4645 9.56305 15.1322 12.2125 16.2767C12.8426 16.5489 13.3348 16.7116 13.7185 16.8333C14.3511 17.0345 14.9269 17.0061 15.382 16.9382C15.8895 16.8622 16.9448 16.299 17.1648 15.6822C17.3847 15.0653 17.3847 14.5361 17.3189 14.4261C17.253 14.3161 17.0766 14.2497 16.8125 14.1174L16.813 14.1164Z" fill="white"/>
</svg>
