<svg width="24" height="24" viewBox="0 0 24 24" fill="none" xmlns="http://www.w3.org/2000/svg">
<path fill-rule="evenodd" clip-rule="evenodd" d="M20.3348 4.98388C21.2528 5.23079 21.9756 5.95843 22.2209 6.88219C22.6667 8.55673 22.6667 12.0503 22.6667 12.0503C22.6667 12.0503 22.6667 15.544 22.2209 17.2185C21.9756 18.1423 21.2528 18.8698 20.3348 19.1168C18.6712 19.5655 12 19.5655 12 19.5655C12 19.5655 5.32889 19.5655 3.66513 19.1168C2.74731 18.8698 2.0244 18.1423 1.77907 17.2185C1.33337 15.544 1.33337 12.0503 1.33337 12.0503C1.33337 12.0503 1.33337 8.55673 1.77907 6.88219C2.0244 5.95843 2.74731 5.23079 3.66513 4.98388C5.32889 4.53516 12 4.53516 12 4.53516C12 4.53516 18.6712 4.53516 20.3348 4.98388ZM15.3928 12.0509L9.81708 15.2228V8.87891L15.3928 12.0509Z" fill="white"/>
</svg>
